<?xml version="1.0" encoding="UTF-8" standalone="no"?>
<!-- Created with Inkscape (http://www.inkscape.org/) -->

<svg
   version="1.1"
   id="svg55384"
   xml:space="preserve"
   width="110.46774"
   height="116.45413"
   viewBox="0 0 110.46774 116.45413"
   sodipodi:docname="2D_Pia_Banheiro.svg"
   inkscape:version="1.1 (c68e22c387, 2021-05-23)"
   xmlns:inkscape="http://www.inkscape.org/namespaces/inkscape"
   xmlns:sodipodi="http://sodipodi.sourceforge.net/DTD/sodipodi-0.dtd"
   xmlns="http://www.w3.org/2000/svg"
   xmlns:svg="http://www.w3.org/2000/svg"><defs
     id="defs55388"><inkscape:path-effect
       effect="bspline"
       id="path-effect8210"
       is_visible="true"
       lpeversion="1"
       weight="33.333333"
       steps="2"
       helper_size="0"
       apply_no_weight="true"
       apply_with_weight="true"
       only_selected="false" /><inkscape:path-effect
       effect="bspline"
       id="path-effect7789"
       is_visible="true"
       lpeversion="1"
       weight="33.333333"
       steps="2"
       helper_size="0"
       apply_no_weight="true"
       apply_with_weight="true"
       only_selected="false" /><inkscape:path-effect
       effect="bspline"
       id="path-effect11333"
       is_visible="true"
       lpeversion="1"
       weight="33.333333"
       steps="2"
       helper_size="0"
       apply_no_weight="true"
       apply_with_weight="true"
       only_selected="false" /><inkscape:path-effect
       effect="bspline"
       id="path-effect11329"
       is_visible="true"
       lpeversion="1"
       weight="33.333333"
       steps="2"
       helper_size="0"
       apply_no_weight="true"
       apply_with_weight="true"
       only_selected="false" /></defs><sodipodi:namedview
     id="namedview55386"
     pagecolor="#505050"
     bordercolor="#eeeeee"
     borderopacity="1"
     inkscape:pageshadow="0"
     inkscape:pageopacity="0"
     inkscape:pagecheckerboard="0"
     showgrid="false"
     inkscape:zoom="2.5490196"
     inkscape:cx="82.776923"
     inkscape:cy="32.757692"
     inkscape:window-width="1360"
     inkscape:window-height="705"
     inkscape:window-x="1358"
     inkscape:window-y="-8"
     inkscape:window-maximized="1"
     inkscape:current-layer="g55390"
     fit-margin-top="0"
     fit-margin-left="0"
     fit-margin-right="0"
     fit-margin-bottom="0" /><g
     id="g55390"
     inkscape:groupmode="layer"
     inkscape:label="2D_Fogao_4Bocas"
     transform="translate(-174.88613,-35.686131)"><path
       style="fill:#ffffff;stroke:#4d4d4d;stroke-width:0.982;stroke-linecap:butt;stroke-linejoin:miter;stroke-opacity:1;stroke-miterlimit:4;stroke-dasharray:none"
       d="m 182.82269,54.809926 c 1.44044,-1.228955 4.32119,-2.168658 7.238,-2.855361 2.91681,-0.686704 5.86952,-1.120404 9.03838,-1.517972 3.16887,-0.397568 6.55368,-0.758986 9.68652,-1.120416 3.13284,-0.36143 6.01353,-0.722847 8.4622,-0.975842 2.44867,-0.252995 4.46516,-0.397562 6.51772,-0.433694 2.05257,-0.03613 4.14107,0.03615 6.8418,0.108436 2.70073,0.07228 6.01353,0.144567 9.07436,0.216853 3.06082,0.07229 5.8695,0.14457 8.85832,0.361437 2.98882,0.216868 6.15758,0.578285 9.07437,1.012008 2.9168,0.433723 5.58144,0.939708 8.39019,1.409559 2.80876,0.469851 5.76147,0.903552 7.99408,1.337283 2.2326,0.433731 3.74496,0.867431 4.68113,1.698797 0.93617,0.831367 1.29626,2.060185 1.36824,3.614301 0.072,1.554115 -0.14408,3.433485 -0.2521,5.023777 -0.10802,1.590293 -0.10802,2.891397 0.036,4.264839 0.14406,1.373442 0.43214,2.819112 0.82825,4.590115 0.39611,1.771003 0.90023,3.867224 1.44037,6.361081 0.54014,2.493856 1.11628,5.385196 1.54839,7.879042 0.43211,2.493847 0.72018,4.590069 0.75616,6.397182 0.036,1.807113 -0.18006,3.325065 -0.54017,5.276774 -0.3601,1.95171 -0.86422,4.337065 -1.47639,6.577895 -0.61217,2.24084 -1.33235,4.33707 -2.19658,6.3249 -0.86424,1.98783 -1.87247,3.8672 -3.06079,5.71047 -1.18832,1.84327 -2.55664,3.65035 -4.06905,5.38519 -1.5124,1.73484 -3.1688,3.39736 -4.71721,4.80692 -1.5484,1.40956 -2.98875,2.56609 -4.75321,3.68651 -1.76445,1.12042 -3.85295,2.20467 -5.79748,3.18052 -1.94452,0.97586 -3.74495,1.84326 -5.79749,2.63841 -2.05254,0.79514 -4.3571,1.51797 -6.6617,2.09626 -2.30461,0.57829 -4.60917,1.01199 -6.48167,1.33727 -1.87249,0.32529 -3.31284,0.54214 -4.82524,0.65058 -1.51239,0.10844 -3.09677,0.10844 -4.53715,0.0362 -1.44038,-0.0723 -2.73669,-0.21684 -4.64522,-0.46983 -1.90852,-0.253 -4.42912,-0.61442 -6.87778,-1.1204 -2.44866,-0.50599 -4.82523,-1.15654 -6.73373,-1.84323 -1.90851,-0.68669 -3.34886,-1.40953 -4.9693,-2.16853 -1.62044,-0.75901 -3.42087,-1.55413 -5.14935,-2.5661 -1.72847,-1.01198 -3.38487,-2.24079 -4.78925,-3.36121 -1.40439,-1.12042 -2.55667,-2.13238 -3.67297,-3.14438 -1.1163,-1.012 -2.19656,-2.02397 -3.27687,-3.25281 -1.08031,-1.22885 -2.16057,-2.67451 -3.20485,-4.04794 -1.04428,-1.37343 -2.05252,-2.67453 -3.02481,-4.19252 -0.97228,-1.518 -1.90851,-3.2528 -2.62872,-4.95151 -0.72022,-1.69872 -1.22434,-3.36124 -1.69247,-4.95152 -0.46813,-1.59029 -0.90023,-3.10824 -1.22434,-4.987676 -0.32411,-1.879438 -0.54016,-4.120228 -0.68421,-5.999654 -0.14404,-1.879425 -0.21606,-3.397379 0.036,-5.312984 0.25205,-1.915605 0.82819,-4.228677 1.33233,-6.180387 0.50413,-1.95171 0.93624,-3.541948 1.29634,-5.349076 0.3601,-1.807129 0.64817,-3.831064 0.90024,-5.457492 0.25207,-1.626427 0.46812,-2.855245 0.61216,-4.084088 0.14405,-1.228844 0.21606,-2.457665 0.25208,-3.686515 0.036,-1.22885 0.036,-2.457668 0.036,-3.831097 0,-1.373429 0,-2.891381 1.44043,-4.120335 z"
       id="path11327"
       inkscape:original-d="m 181.38226,54.520713 c 2.88094,-0.939522 5.76169,-1.879226 8.64226,-2.819112 2.95301,-0.433536 5.90572,-0.867236 8.85831,-1.301127 3.38513,-0.36125 6.76994,-0.722668 10.15464,-1.084275 2.88099,-0.361249 5.76168,-0.722667 8.64225,-1.084274 2.01675,-0.144389 4.03324,-0.288957 6.04958,-0.433709 2.08877,0.07247 4.17727,0.144752 6.26563,0.216855 3.31311,0.07247 6.62591,0.144752 9.93859,0.216854 2.80897,0.07247 5.61765,0.144752 8.4262,0.216855 3.16907,0.361615 6.33783,0.723031 9.50648,1.084274 2.66493,0.506186 5.32957,1.012172 7.99408,1.517983 2.95301,0.4339 5.90572,0.867602 8.85831,1.301129 1.51261,0.4339 3.02497,0.867602 4.53718,1.301129 0.36029,1.229049 0.72037,2.457869 1.08028,3.68653 -0.21588,1.879628 -0.43193,3.758998 -0.64817,5.638224 1.9e-4,1.301336 1.9e-4,2.60244 0,3.903387 0.28827,1.445908 0.57634,2.891578 0.86423,4.337094 0.50432,2.096488 1.00845,4.192707 1.51239,6.288788 0.57635,2.891636 1.15249,5.782975 1.72845,8.674191 0.28827,2.096485 0.57634,4.192707 0.86423,6.288788 -0.21588,1.518196 -0.43193,3.036148 -0.64817,4.55395 -0.50396,2.385632 -1.00808,4.770983 -1.51239,7.156203 -0.72002,2.09649 -1.4402,4.19271 -2.16057,6.28879 -1.0081,1.87963 -2.01634,3.759 -3.02478,5.63823 -1.36821,1.80734 -2.73654,3.61442 -4.10507,5.42137 -1.65629,1.66276 -3.31269,3.32528 -4.9693,4.98765 -1.44022,1.15677 -2.88057,2.3133 -4.32113,3.46968 -2.0884,1.08448 -4.1769,2.16873 -6.26563,3.25282 -1.80032,0.86762 -3.60076,1.73502 -5.40141,2.60226 -2.30446,0.72304 -4.60902,1.44588 -6.9138,2.16855 -2.30446,0.4339 -4.60902,0.8676 -6.9138,1.30112 -1.44022,0.21705 -2.88057,0.4339 -4.32113,0.65057 -1.58426,1.8e-4 -3.16864,1.8e-4 -4.75324,0 -1.29618,-0.14439 -2.59249,-0.28896 -3.88901,-0.43371 -2.52053,-0.36125 -5.04113,-0.72267 -7.56197,-1.08427 -2.37649,-0.6504 -4.75306,-1.30095 -7.12986,-1.9517 -1.44022,-0.72268 -2.88057,-1.44551 -4.32112,-2.16854 -1.80033,-0.79497 -3.60076,-1.59009 -5.40141,-2.38541 -1.65629,-1.22868 -3.31268,-2.4575 -4.9693,-3.68653 -1.15214,-1.01183 -2.30442,-2.02379 -3.4569,-3.03596 -1.08012,-1.01183 -2.16038,-2.0238 -3.24084,-3.03597 -1.08012,-1.44555 -2.16038,-2.89122 -3.24085,-4.3371 -1.0081,-1.30097 -2.01634,-2.60207 -3.02478,-3.90338 -0.93609,-1.73469 -1.87231,-3.4695 -2.80874,-5.20452 -0.50396,-1.6624 -1.00808,-3.32492 -1.51239,-4.98766 -0.43194,-1.51783 -0.86405,-3.03578 -1.29634,-4.553946 -0.21588,-2.240694 -0.43193,-4.481484 -0.64817,-6.722497 -0.0718,-1.517832 -0.14385,-3.035785 -0.21606,-4.55395 0.57635,-2.312982 1.15249,-4.626054 1.72846,-6.939353 0.4323,-1.590117 0.8644,-3.180355 1.29633,-4.770805 0.28827,-2.023835 0.57633,-4.047772 0.86423,-6.071932 0.21624,-1.228687 0.43229,-2.457505 0.64817,-3.686532 0.0722,-1.228685 0.14422,-2.457505 0.21605,-3.68653 1.9e-4,-1.228687 1.9e-4,-2.457505 0,-3.686532 1.9e-4,-1.517831 1.9e-4,-3.035783 0,-4.55395 z"
       inkscape:path-effect="#path-effect11329" /><path
       style="fill:none;stroke:#999999;stroke-width:0.836;stroke-linecap:butt;stroke-linejoin:miter;stroke-miterlimit:4;stroke-dasharray:none;stroke-opacity:1"
       d="m 194.4876,69.338496 c 1.69254,0.03618 4.2132,0.83132 6.76989,1.698753 2.55669,0.867433 5.14932,1.80712 7.74201,2.529954 2.5927,0.722834 5.18532,1.228818 7.66998,1.554087 2.48467,0.325269 4.86124,0.469836 7.02182,0.578262 2.16058,0.108425 4.10505,0.180709 6.22962,0.180702 2.12457,-7e-6 4.42912,-0.07229 7.12985,-0.289155 2.70073,-0.216865 5.79748,-0.578283 8.39015,-1.084293 2.59267,-0.506009 4.68117,-1.15656 6.6617,-1.807131 1.98053,-0.650571 3.85298,-1.301122 5.22134,-1.80712 1.36836,-0.505999 2.23257,-0.867417 3.4569,-1.409562 1.22433,-0.542144 2.80871,-1.264978 4.1411,-0.867272 1.33239,0.397705 2.41265,1.915656 3.49293,3.650518 1.08028,1.734862 2.16054,3.686516 3.16881,5.5298 1.00827,1.843285 1.94449,3.578086 2.5206,5.493649 0.5761,1.915562 0.79215,4.011783 0.93619,5.891203 0.14403,1.879419 0.21605,3.541939 0.036,5.674349 -0.18007,2.13241 -0.61217,4.734615 -1.29636,7.37302 -0.6842,2.6384 -1.62042,5.31289 -2.95278,7.91514 -1.33236,2.60225 -3.06078,5.13218 -4.89726,7.30072 -1.83648,2.16855 -3.78095,3.97563 -6.73372,5.85504 -2.95278,1.87941 -6.91374,3.83107 -10.19059,5.13221 -3.27685,1.30114 -5.86947,1.95168 -8.42615,2.49383 -2.55669,0.54214 -5.0773,0.97584 -7.30988,1.26499 -2.23259,0.28915 -4.17706,0.43372 -6.37364,0.28917 -2.19657,-0.14455 -4.64516,-0.57825 -7.52595,-1.33724 -2.88078,-0.75898 -6.19357,-1.84324 -9.00233,-3.03593 -2.80876,-1.19269 -5.11331,-2.49379 -7.12985,-3.65036 -2.01655,-1.15657 -3.74495,-2.16853 -6.0136,-4.26479 -2.26864,-2.09626 -5.07732,-5.27674 -6.98586,-7.91515 -1.90854,-2.6384 -2.91678,-4.73462 -3.63701,-6.79477 -0.72022,-2.06014 -1.15232,-4.08408 -1.51243,-6.505658 -0.36011,-2.421578 -0.64818,-5.240634 -0.6842,-7.55379 -0.036,-2.313156 0.18002,-4.120241 0.79218,-6.324988 0.61216,-2.204747 1.6204,-4.806952 2.34059,-6.758653 0.7202,-1.9517 1.1523,-3.252803 1.69245,-4.409401 0.54015,-1.156599 1.18831,-2.168568 1.94454,-3.036025 0.75623,-0.867457 1.62044,-1.590294 3.31298,-1.554109 z"
       id="path11331"
       inkscape:path-effect="#path-effect11333"
       inkscape:original-d="m 193.65926,68.579477 c 2.52084,0.795317 5.0415,1.590451 7.56197,2.385403 2.59291,0.939904 5.18554,1.87959 7.77803,2.819112 2.59291,0.506186 5.18553,1.01217 7.77803,1.517983 2.37685,0.144755 4.75342,0.289321 7.12986,0.433709 1.94472,0.07247 3.88919,0.144752 5.83352,0.216855 2.30483,-0.0721 4.60938,-0.144387 6.9138,-0.216855 3.09705,-0.361249 6.1938,-0.722667 9.29042,-1.084274 2.08877,-0.650395 4.17727,-1.300947 6.26563,-1.951692 1.87271,-0.650395 3.74516,-1.300947 5.61747,-1.951693 0.86442,-0.361251 1.72863,-0.722667 2.59267,-1.084274 1.58463,-0.722681 3.16901,-1.445517 4.75324,-2.168547 1.08049,1.518196 2.16075,3.036147 3.24085,4.55395 1.08048,1.951914 2.16074,3.903567 3.24084,5.855077 0.93645,1.735055 1.87267,3.469859 2.80873,5.204515 0.21625,2.096487 0.4323,4.192708 0.64817,6.288788 0.0722,1.662769 0.14422,3.325289 0.21606,4.987659 -0.43194,2.602491 -0.86404,5.204697 -1.29634,7.806777 -0.93608,2.67477 -1.8723,5.34926 -2.80873,8.02362 -1.7283,2.53021 -3.45672,5.06013 -5.18535,7.58992 -1.94437,1.80734 -3.88883,3.61443 -5.83352,5.42137 -3.96093,1.95191 -7.92189,3.90357 -11.8831,5.85508 -2.59255,0.65076 -5.18517,1.30131 -7.77803,1.95169 -2.52052,0.4339 -5.04113,0.8676 -7.56197,1.30113 -1.94436,0.14475 -3.88883,0.28932 -5.83352,0.43371 -2.4485,-0.43354 -4.89709,-0.86724 -7.34591,-1.30113 -3.31275,-1.08412 -6.62555,-2.16837 -9.93859,-3.25282 -2.30447,-1.30098 -4.60902,-2.60208 -6.9138,-3.90339 -1.72831,-1.01183 -3.45672,-2.02379 -5.18536,-3.03597 -2.8086,-3.18041 -5.61728,-6.36089 -8.42619,-9.54161 -1.0081,-2.09612 -2.01635,-4.19234 -3.02479,-6.28878 -0.43194,-2.02384 -0.86404,-4.04778 -1.29634,-6.071936 -0.2879,-2.818986 -0.57597,-5.638042 -0.86422,-8.457336 0.21624,-1.806978 0.43229,-3.614064 0.64817,-5.42137 1.00846,-2.602127 2.0167,-5.204332 3.02478,-7.806771 0.43231,-1.300972 0.86441,-2.602076 1.29634,-3.903385 0.64836,-1.011828 1.29652,-2.023795 1.94451,-3.035967 0.86442,-0.722681 1.72863,-1.445517 2.59267,-2.168548 z" /><ellipse
       style="opacity:0.871795;fill:#808080;stroke:#808080;stroke-width:0.736;stroke-linecap:round;stroke-linejoin:round;stroke-miterlimit:4;stroke-dasharray:none;paint-order:markers stroke fill"
       id="path11680"
       cx="222.55334"
       cy="65.760368"
       rx="5.2933793"
       ry="5.204514" /><ellipse
       style="opacity:0.871795;fill:#808080;stroke:#808080;stroke-width:0.836;stroke-linecap:round;stroke-linejoin:round;stroke-miterlimit:4;stroke-dasharray:none;paint-order:markers stroke fill"
       id="path11682"
       cx="241.1003"
       cy="66.156868"
       rx="5.4014077"
       ry="5.204514" /><g
       id="g11897"
       style="fill:#999999;stroke:#999999;stroke-opacity:1;stroke-width:4.85088904;stroke-miterlimit:4;stroke-dasharray:none"
       transform="matrix(0.1814873,0,0,0.182158,153.95546,38.870375)"><rect
         style="opacity:0.871795;fill:#999999;stroke:#999999;stroke-width:4.85088904;stroke-linecap:round;stroke-linejoin:round;stroke-miterlimit:4;stroke-dasharray:none;paint-order:markers stroke fill;stroke-opacity:1"
         id="rect11786"
         width="22.619047"
         height="204.7619"
         x="417.85715"
         y="151.19048" /><ellipse
         style="opacity:0.871795;fill:#999999;stroke:#999999;stroke-width:4.85088904;stroke-linecap:round;stroke-linejoin:round;stroke-miterlimit:4;stroke-dasharray:none;paint-order:markers stroke fill;stroke-opacity:1"
         id="path11813"
         cx="428.91699"
         cy="352.03229"
         rx="11.399747"
         ry="17.371042" /></g></g></svg>
