<?xml version="1.0" encoding="UTF-8" standalone="no"?>
<!-- Created with Inkscape (http://www.inkscape.org/) -->

<svg
   version="1.1"
   id="svg19018"
   xml:space="preserve"
   width="110"
   height="62.85191"
   viewBox="0 0 110 62.85191"
   sodipodi:docname="2D_Sinuca.svg"
   inkscape:version="1.1 (c68e22c387, 2021-05-23)"
   xmlns:inkscape="http://www.inkscape.org/namespaces/inkscape"
   xmlns:sodipodi="http://sodipodi.sourceforge.net/DTD/sodipodi-0.dtd"
   xmlns="http://www.w3.org/2000/svg"
   xmlns:svg="http://www.w3.org/2000/svg"><defs
     id="defs19022"><clipPath
       clipPathUnits="userSpaceOnUse"
       id="clipPath19032"><path
         d="m 462.72,243.03999 v 14.56002 h 23.35999 v -14.56002 z m 189.60001,118.88002 -0.16004,0.15998 -15.83996,15.84002 10.39996,10.4 V 388.16 L 662.88,372 652.79999,361.92001 Z"
         clip-rule="evenodd"
         id="path19030" /></clipPath></defs><sodipodi:namedview
     id="namedview19020"
     pagecolor="#505050"
     bordercolor="#eeeeee"
     borderopacity="1"
     inkscape:pageshadow="0"
     inkscape:pageopacity="0"
     inkscape:pagecheckerboard="0"
     showgrid="false"
     inkscape:zoom="5.6568543"
     inkscape:cx="61.24087"
     inkscape:cy="65.126088"
     inkscape:window-width="1360"
     inkscape:window-height="705"
     inkscape:window-x="1358"
     inkscape:window-y="-8"
     inkscape:window-maximized="1"
     inkscape:current-layer="g19024"
     fit-margin-top="0"
     fit-margin-left="0"
     fit-margin-right="0"
     fit-margin-bottom="0"
     inkscape:rotation="-10" /><g
     id="g19024"
     inkscape:groupmode="layer"
     inkscape:label="2D_Sinuca"
     transform="translate(-47.76,-133.51999)"><g
       id="g19036"
       transform="matrix(0.11452607,0,0,0.11452607,42.290235,118.22847)"
       style="fill:#5e5e5e;fill-opacity:1;stroke:#5e5e5e;stroke-opacity:1;stroke-width:6.91545602;stroke-miterlimit:4;stroke-dasharray:none"><path
         d="M 486.07999,257.60001 V 243.03999"
         style="fill:#5e5e5e;stroke:#5e5e5e;stroke-width:6.91545602;stroke-linecap:round;stroke-linejoin:round;stroke-miterlimit:4;stroke-dasharray:none;stroke-opacity:1;fill-opacity:1"
         id="path19038" /></g><g
       id="g19040"
       transform="matrix(0.11452607,0,0,0.11452607,42.290235,118.22847)"
       style="fill:#5e5e5e;fill-opacity:1;stroke:#5e5e5e;stroke-opacity:1;stroke-width:6.91545602;stroke-miterlimit:4;stroke-dasharray:none"><path
         d="M 486.07999,243.03999 H 462.72"
         style="fill:#5e5e5e;stroke:#5e5e5e;stroke-width:6.91545602;stroke-linecap:round;stroke-linejoin:round;stroke-miterlimit:4;stroke-dasharray:none;stroke-opacity:1;fill-opacity:1"
         id="path19042" /></g><g
       id="g19044"
       transform="matrix(0.11452607,0,0,0.11452607,42.290235,118.22847)"
       style="fill:#5e5e5e;fill-opacity:1;stroke:#5e5e5e;stroke-opacity:1;stroke-width:6.91545602;stroke-miterlimit:4;stroke-dasharray:none"><path
         d="m 462.72,243.03999 v 14.56002"
         style="fill:#5e5e5e;stroke:#5e5e5e;stroke-width:6.91545602;stroke-linecap:round;stroke-linejoin:round;stroke-miterlimit:4;stroke-dasharray:none;stroke-opacity:1;fill-opacity:1"
         id="path19046" /></g><g
       id="g19048"
       transform="matrix(0.11452607,0,0,0.11452607,42.290235,118.22847)"
       style="fill:#5e5e5e;fill-opacity:1;stroke:#5e5e5e;stroke-opacity:1;stroke-width:6.91545602;stroke-miterlimit:4;stroke-dasharray:none"><path
         d="m 462.72,257.60001 h 23.35999"
         style="fill:#5e5e5e;stroke:#5e5e5e;stroke-width:6.91545602;stroke-linecap:round;stroke-linejoin:round;stroke-miterlimit:4;stroke-dasharray:none;stroke-opacity:1;fill-opacity:1"
         id="path19050" /></g><g
       id="g19052"
       transform="matrix(0.11452607,0,0,0.11452607,42.290235,118.22847)"
       style="fill:#5e5e5e;fill-opacity:1;stroke:#5e5e5e;stroke-opacity:1;stroke-width:6.91545602;stroke-miterlimit:4;stroke-dasharray:none"><path
         d="m 652.47998,361.92001 -16.15997,16.15998"
         style="fill:#5e5e5e;stroke:#5e5e5e;stroke-width:6.91545602;stroke-linecap:round;stroke-linejoin:round;stroke-miterlimit:4;stroke-dasharray:none;stroke-opacity:1;fill-opacity:1"
         id="path19054" /></g><g
       id="g19056"
       transform="matrix(0.11452607,0,0,0.11452607,42.290235,118.22847)"
       style="fill:#5e5e5e;fill-opacity:1;stroke:#5e5e5e;stroke-opacity:1;stroke-width:6.91545602;stroke-miterlimit:4;stroke-dasharray:none"><path
         d="M 636.32001,378.07999 646.56,388.48001"
         style="fill:#5e5e5e;stroke:#5e5e5e;stroke-width:6.91545602;stroke-linecap:round;stroke-linejoin:round;stroke-miterlimit:4;stroke-dasharray:none;stroke-opacity:1;fill-opacity:1"
         id="path19058" /></g><g
       id="g19060"
       transform="matrix(0.11452607,0,0,0.11452607,42.290235,118.22847)"
       style="fill:#5e5e5e;fill-opacity:1;stroke:#5e5e5e;stroke-opacity:1;stroke-width:6.91545602;stroke-miterlimit:4;stroke-dasharray:none"><path
         d="M 646.56,388.48001 662.88,372.16"
         style="fill:#5e5e5e;stroke:#5e5e5e;stroke-width:6.91545602;stroke-linecap:round;stroke-linejoin:round;stroke-miterlimit:4;stroke-dasharray:none;stroke-opacity:1;fill-opacity:1"
         id="path19062" /></g><g
       id="g19064"
       transform="matrix(0.11452607,0,0,0.11452607,42.290235,118.22847)"
       style="fill:#5e5e5e;fill-opacity:1;stroke:#5e5e5e;stroke-opacity:1;stroke-width:6.91545602;stroke-miterlimit:4;stroke-dasharray:none"><path
         d="M 662.88,372.16 652.47998,361.92001"
         style="fill:#5e5e5e;stroke:#5e5e5e;stroke-width:6.91545602;stroke-linecap:round;stroke-linejoin:round;stroke-miterlimit:4;stroke-dasharray:none;stroke-opacity:1;fill-opacity:1"
         id="path19066" /></g><g
       id="g19068"
       transform="matrix(0.11452607,0,0,0.11452607,42.290235,118.22847)"
       style="fill:#5e5e5e;fill-opacity:1;stroke:#5e5e5e;stroke-opacity:1;stroke-width:6.91545602;stroke-miterlimit:4;stroke-dasharray:none"><path
         d="M 277.60001,133.75999 H 1008"
         style="fill:#5e5e5e;stroke:#5e5e5e;stroke-width:6.91545602;stroke-linecap:round;stroke-linejoin:round;stroke-miterlimit:4;stroke-dasharray:none;stroke-opacity:1;fill-opacity:1"
         id="path19070" /></g><g
       id="g19072"
       transform="matrix(0.11452607,0,0,0.11452607,42.290235,118.22847)"
       style="fill:#5e5e5e;fill-opacity:1;stroke:#5e5e5e;stroke-opacity:1;stroke-width:6.91545602;stroke-miterlimit:4;stroke-dasharray:none"><path
         d="M 1008,133.75999 V 572"
         style="fill:#5e5e5e;stroke:#5e5e5e;stroke-width:6.91545602;stroke-linecap:round;stroke-linejoin:round;stroke-miterlimit:4;stroke-dasharray:none;stroke-opacity:1;fill-opacity:1"
         id="path19074" /></g><g
       id="g19076"
       transform="matrix(0.11452607,0,0,0.11452607,42.290235,118.22847)"
       style="fill:#5e5e5e;fill-opacity:1;stroke:#5e5e5e;stroke-opacity:1;stroke-width:6.91545602;stroke-miterlimit:4;stroke-dasharray:none"><path
         d="M 1008,572 H 277.60001"
         style="fill:#5e5e5e;stroke:#5e5e5e;stroke-width:6.91545602;stroke-linecap:round;stroke-linejoin:round;stroke-miterlimit:4;stroke-dasharray:none;stroke-opacity:1;fill-opacity:1"
         id="path19078" /></g><g
       id="g19080"
       transform="matrix(0.11452607,0,0,0.11452607,42.290235,118.22847)"
       style="fill:#5e5e5e;fill-opacity:1;stroke:#5e5e5e;stroke-opacity:1;stroke-width:6.91545602;stroke-miterlimit:4;stroke-dasharray:none"><path
         d="M 277.60001,572 V 133.75999"
         style="fill:#5e5e5e;stroke:#5e5e5e;stroke-width:6.91545602;stroke-linecap:round;stroke-linejoin:round;stroke-miterlimit:4;stroke-dasharray:none;stroke-opacity:1;fill-opacity:1"
         id="path19082" /></g><g
       id="g19084"
       transform="matrix(0.11452607,0,0,0.11452607,42.290235,118.22847)"
       style="fill:#5e5e5e;fill-opacity:1;stroke:#5e5e5e;stroke-opacity:1;stroke-width:6.91545602;stroke-miterlimit:4;stroke-dasharray:none"><path
         d="M 336.16,163.03999 H 569.28003"
         style="fill:#5e5e5e;stroke:#5e5e5e;stroke-width:6.91545602;stroke-linecap:round;stroke-linejoin:round;stroke-miterlimit:4;stroke-dasharray:none;stroke-opacity:1;fill-opacity:1"
         id="path19086" /></g><g
       id="g19088"
       transform="matrix(0.11452607,0,0,0.11452607,42.290235,118.22847)"
       style="fill:#5e5e5e;fill-opacity:1;stroke:#5e5e5e;stroke-opacity:1;stroke-width:6.91545602;stroke-miterlimit:4;stroke-dasharray:none"><path
         d="M 978.71997,192.32001 V 513.59998"
         style="fill:#5e5e5e;stroke:#5e5e5e;stroke-width:6.91545602;stroke-linecap:round;stroke-linejoin:round;stroke-miterlimit:4;stroke-dasharray:none;stroke-opacity:1;fill-opacity:1"
         id="path19090" /></g><g
       id="g19092"
       transform="matrix(0.11452607,0,0,0.11452607,42.290235,118.22847)"
       style="fill:#5e5e5e;fill-opacity:1;stroke:#5e5e5e;stroke-opacity:1;stroke-width:6.91545602;stroke-miterlimit:4;stroke-dasharray:none"><path
         d="M 949.44,542.71997 H 627.67999"
         style="fill:#5e5e5e;stroke:#5e5e5e;stroke-width:6.91545602;stroke-linecap:round;stroke-linejoin:round;stroke-miterlimit:4;stroke-dasharray:none;stroke-opacity:1;fill-opacity:1"
         id="path19094" /></g><g
       id="g19096"
       transform="matrix(0.11452607,0,0,0.11452607,42.290235,118.22847)"
       style="fill:#5e5e5e;fill-opacity:1;stroke:#5e5e5e;stroke-opacity:1;stroke-width:6.91545602;stroke-miterlimit:4;stroke-dasharray:none"><path
         d="M 306.88,513.12 V 192.32001"
         style="fill:#5e5e5e;stroke:#5e5e5e;stroke-width:6.91545602;stroke-linecap:round;stroke-linejoin:round;stroke-miterlimit:4;stroke-dasharray:none;stroke-opacity:1;fill-opacity:1"
         id="path19098" /></g><g
       id="g19100"
       transform="matrix(0.11452607,0,0,0.11452607,122.97156,146.05373)"
       style="fill:#5e5e5e;fill-opacity:1;stroke:#5e5e5e;stroke-opacity:1;stroke-width:6.91545602;stroke-miterlimit:4;stroke-dasharray:none"><path
         d="m 0,0 c 0,5.62 -4.58,10.16 -10.24,10.16 -5.66,0 -10.24,-4.54 -10.24,-10.16 0,-5.62 4.58,-10.16 10.24,-10.16 C -4.58,-10.16 0,-5.62 0,0 Z"
         style="fill:#5e5e5e;stroke:#5e5e5e;stroke-width:6.91545602;stroke-linecap:round;stroke-linejoin:round;stroke-miterlimit:4;stroke-dasharray:none;stroke-opacity:1;fill-opacity:1"
         id="path19102" /></g><g
       id="g19104"
       transform="matrix(0.11452607,0,0,0.11452607,136.8796,153.00775)"
       style="fill:#5e5e5e;fill-opacity:1;stroke:#5e5e5e;stroke-opacity:1;stroke-width:6.91545602;stroke-miterlimit:4;stroke-dasharray:none"><path
         d="m 0,0 c 0,5.66 -4.54,10.24 -10.16,10.24 -5.62,0 -10.16,-4.58 -10.16,-10.24 0,-5.66 4.54,-10.24 10.16,-10.24 C -4.54,-10.24 0,-5.66 0,0 Z"
         style="fill:#5e5e5e;stroke:#5e5e5e;stroke-width:6.91545602;stroke-linecap:round;stroke-linejoin:round;stroke-miterlimit:4;stroke-dasharray:none;stroke-opacity:1;fill-opacity:1"
         id="path19106" /></g><g
       id="g19108"
       transform="matrix(0.11452607,0,0,0.11452607,142.57842,153.64909)"
       style="fill:#5e5e5e;fill-opacity:1;stroke:#5e5e5e;stroke-opacity:1;stroke-width:6.91545602;stroke-miterlimit:4;stroke-dasharray:none"><path
         d="m 0,0 c 0,5.62 -4.58,10.16 -10.24,10.16 -5.66,0 -10.24,-4.54 -10.24,-10.16 0,-5.62 4.58,-10.16 10.24,-10.16 C -4.58,-10.16 0,-5.62 0,0 Z"
         style="fill:#5e5e5e;stroke:#5e5e5e;stroke-width:6.91545602;stroke-linecap:round;stroke-linejoin:round;stroke-miterlimit:4;stroke-dasharray:none;stroke-opacity:1;fill-opacity:1"
         id="path19110" /></g><g
       id="g19112"
       transform="matrix(0.11452607,0,0,0.11452607,139.42666,165.65142)"
       style="fill:#5e5e5e;fill-opacity:1;stroke:#5e5e5e;stroke-opacity:1;stroke-width:6.91545602;stroke-miterlimit:4;stroke-dasharray:none"><path
         d="m 0,0 c 0,5.62 -4.58,10.16 -10.24,10.16 -5.66,0 -10.24,-4.54 -10.24,-10.16 0,-5.62 4.58,-10.16 10.24,-10.16 C -4.58,-10.16 0,-5.62 0,0 Z"
         style="fill:#5e5e5e;stroke:#5e5e5e;stroke-width:6.91545602;stroke-linecap:round;stroke-linejoin:round;stroke-miterlimit:4;stroke-dasharray:none;stroke-opacity:1;fill-opacity:1"
         id="path19114" /></g><g
       id="g19116"
       transform="matrix(0.11452607,0,0,0.11452607,129.2934,165.65142)"
       style="fill:#5e5e5e;fill-opacity:1;stroke:#5e5e5e;stroke-opacity:1;stroke-width:6.91545602;stroke-miterlimit:4;stroke-dasharray:none"><path
         d="m 0,0 c 0,5.62 -4.58,10.16 -10.24,10.16 -5.66,0 -10.24,-4.54 -10.24,-10.16 0,-5.62 4.58,-10.16 10.24,-10.16 C -4.58,-10.16 0,-5.62 0,0 Z"
         style="fill:#5e5e5e;stroke:#5e5e5e;stroke-width:6.91545602;stroke-linecap:round;stroke-linejoin:round;stroke-miterlimit:4;stroke-dasharray:none;stroke-opacity:1;fill-opacity:1"
         id="path19118" /></g><g
       id="g19120"
       transform="matrix(0.11452607,0,0,0.11452607,42.290235,118.22847)"
       style="fill:#5e5e5e;fill-opacity:1;stroke:#5e5e5e;stroke-opacity:1;stroke-width:6.91545602;stroke-miterlimit:4;stroke-dasharray:none"><path
         d="M 662.88,372.16 353.12,682.08002"
         style="fill:#5e5e5e;stroke:#5e5e5e;stroke-width:6.91545602;stroke-linecap:round;stroke-linejoin:round;stroke-miterlimit:4;stroke-dasharray:none;stroke-opacity:1;fill-opacity:1"
         id="path19122" /></g><g
       id="g19124"
       transform="matrix(0.11452607,0,0,0.11452607,42.290235,118.22847)"
       style="fill:#5e5e5e;fill-opacity:1;stroke:#5e5e5e;stroke-opacity:1;stroke-width:6.91545602;stroke-miterlimit:4;stroke-dasharray:none"><path
         d="m 353.12,682.08002 -10.4,-10.40003"
         style="fill:#5e5e5e;stroke:#5e5e5e;stroke-width:6.91545602;stroke-linecap:round;stroke-linejoin:round;stroke-miterlimit:4;stroke-dasharray:none;stroke-opacity:1;fill-opacity:1"
         id="path19126" /></g><g
       id="g19128"
       transform="matrix(0.11452607,0,0,0.11452607,42.290235,118.22847)"
       style="fill:#5e5e5e;fill-opacity:1;stroke:#5e5e5e;stroke-opacity:1;stroke-width:6.91545602;stroke-miterlimit:4;stroke-dasharray:none"><path
         d="M 342.72,671.67999 652.47998,361.92001"
         style="fill:#5e5e5e;stroke:#5e5e5e;stroke-width:6.91545602;stroke-linecap:round;stroke-linejoin:round;stroke-miterlimit:4;stroke-dasharray:none;stroke-opacity:1;fill-opacity:1"
         id="path19130" /></g><g
       id="g19132"
       transform="matrix(0.11452607,0,0,0.11452607,42.290235,118.22847)"
       style="fill:#5e5e5e;fill-opacity:1;stroke:#5e5e5e;stroke-opacity:1;stroke-width:6.91545602;stroke-miterlimit:4;stroke-dasharray:none"><path
         d="M 652.47998,361.92001 662.88,372.16"
         style="fill:#5e5e5e;stroke:#5e5e5e;stroke-width:6.91545602;stroke-linecap:round;stroke-linejoin:round;stroke-miterlimit:4;stroke-dasharray:none;stroke-opacity:1;fill-opacity:1"
         id="path19134" /></g><g
       id="g19136"
       transform="matrix(0.11452607,0,0,0.11452607,42.290235,118.22847)"
       style="fill:#5e5e5e;fill-opacity:1;stroke:#5e5e5e;stroke-opacity:1;stroke-width:6.91545602;stroke-miterlimit:4;stroke-dasharray:none"><path
         d="M 486.07999,257.60001 H 48"
         style="fill:#5e5e5e;stroke:#5e5e5e;stroke-width:6.91545602;stroke-linecap:round;stroke-linejoin:round;stroke-miterlimit:4;stroke-dasharray:none;stroke-opacity:1;fill-opacity:1"
         id="path19138" /></g><g
       id="g19140"
       transform="matrix(0.11452607,0,0,0.11452607,42.290235,118.22847)"
       style="fill:#5e5e5e;fill-opacity:1;stroke:#5e5e5e;stroke-opacity:1;stroke-width:6.91545602;stroke-miterlimit:4;stroke-dasharray:none"><path
         d="M 48,257.60001 V 243.03999"
         style="fill:#5e5e5e;stroke:#5e5e5e;stroke-width:6.91545602;stroke-linecap:round;stroke-linejoin:round;stroke-miterlimit:4;stroke-dasharray:none;stroke-opacity:1;fill-opacity:1"
         id="path19142" /></g><g
       id="g19144"
       transform="matrix(0.11452607,0,0,0.11452607,42.290235,118.22847)"
       style="fill:#5e5e5e;fill-opacity:1;stroke:#5e5e5e;stroke-opacity:1;stroke-width:6.91545602;stroke-miterlimit:4;stroke-dasharray:none"><path
         d="M 48,243.03999 H 486.07999"
         style="fill:#5e5e5e;stroke:#5e5e5e;stroke-width:6.91545602;stroke-linecap:round;stroke-linejoin:round;stroke-miterlimit:4;stroke-dasharray:none;stroke-opacity:1;fill-opacity:1"
         id="path19146" /></g><g
       id="g19148"
       transform="matrix(0.11452607,0,0,0.11452607,42.290235,118.22847)"
       style="fill:#5e5e5e;fill-opacity:1;stroke:#5e5e5e;stroke-opacity:1;stroke-width:6.91545602;stroke-miterlimit:4;stroke-dasharray:none"><path
         d="m 486.07999,243.03999 v 14.56002"
         style="fill:#5e5e5e;stroke:#5e5e5e;stroke-width:6.91545602;stroke-linecap:round;stroke-linejoin:round;stroke-miterlimit:4;stroke-dasharray:none;stroke-opacity:1;fill-opacity:1"
         id="path19150" /></g><g
       id="g19156"
       transform="matrix(0.11452607,0,0,0.11452607,42.290235,118.22847)"
       style="fill:#5e5e5e;fill-opacity:1;stroke:#5e5e5e;stroke-opacity:1;stroke-width:6.91545602;stroke-miterlimit:4;stroke-dasharray:none"><path
         d="M 636.32001,378.07999 646.56,388.48001"
         style="fill:#5e5e5e;stroke:#5e5e5e;stroke-width:6.91545602;stroke-linecap:round;stroke-linejoin:round;stroke-miterlimit:4;stroke-dasharray:none;stroke-opacity:1;fill-opacity:1"
         id="path19158" /></g><g
       id="g19160"
       transform="matrix(0.11452607,0,0,0.11452607,154.37919,177.03074)"
       style="fill:#5e5e5e;fill-opacity:1;stroke:#5e5e5e;stroke-opacity:1;stroke-width:6.91545602;stroke-miterlimit:4;stroke-dasharray:none"><path
         d="m 0,0 c -0.42,0 -0.4,0 0.08,0 16.129999,0 29.200001,13.07 29.200001,29.200001 0,16.130001 -13.070002,29.200001 -29.200001,29.200001 -16.1,0 -29.16,-13.020001 -29.200001,-29.120001"
         style="fill:#5e5e5e;stroke:#5e5e5e;stroke-width:6.91545602;stroke-linecap:round;stroke-linejoin:round;stroke-miterlimit:4;stroke-dasharray:none;stroke-opacity:1;fill-opacity:1"
         id="path19162" /></g><g
       id="g19164"
       transform="matrix(0.11452607,0,0,0.11452607,42.290235,118.22847)"
       style="fill:#5e5e5e;fill-opacity:1;stroke:#5e5e5e;stroke-opacity:1;stroke-width:6.91545602;stroke-miterlimit:4;stroke-dasharray:none"><path
         d="m 627.67999,542.71997 c -0.04,16.10004 -13.09997,29.12006 -29.20001,29.12006 -16.09998,0 -29.15997,-13.02002 -29.19995,-29.12006"
         style="fill:#5e5e5e;stroke:#5e5e5e;stroke-width:6.91545602;stroke-linecap:round;stroke-linejoin:round;stroke-miterlimit:4;stroke-dasharray:none;stroke-opacity:1;fill-opacity:1"
         id="path19166" /></g><g
       id="g19168"
       transform="matrix(0.11452607,0,0,0.11452607,80.844292,180.38406)"
       style="fill:#5e5e5e;fill-opacity:1;stroke:#5e5e5e;stroke-opacity:1;stroke-width:6.91545602;stroke-miterlimit:4;stroke-dasharray:none"><path
         d="m 0,0 c -0.04,16.360001 -13.32,29.6 -29.68,29.6 -16.400002,0 -29.680001,-13.28 -29.680001,-29.68 0,-16.4 13.279999,-29.68 29.680001,-29.68 0.489999,0 0.51,0 0.08,0"
         style="fill:#5e5e5e;stroke:#5e5e5e;stroke-width:6.91545602;stroke-linecap:round;stroke-linejoin:round;stroke-miterlimit:4;stroke-dasharray:none;stroke-opacity:1;fill-opacity:1"
         id="path19170" /></g><g
       id="g19172"
       transform="matrix(0.11452607,0,0,0.11452607,77.454321,140.2358)"
       style="fill:#5e5e5e;fill-opacity:1;stroke:#5e5e5e;stroke-opacity:1;stroke-width:6.91545602;stroke-miterlimit:4;stroke-dasharray:none"><path
         d="m 0,0 c 0.42,0 0.4,0 -0.08,0 -16.129999,0 -29.200001,-13.07 -29.200001,-29.200001 0,-16.130001 13.070002,-29.200001 29.200001,-29.200001 16.1,0 29.16,13.020001 29.200001,29.120001"
         style="fill:#5e5e5e;stroke:#5e5e5e;stroke-width:6.91545602;stroke-linecap:round;stroke-linejoin:round;stroke-miterlimit:4;stroke-dasharray:none;stroke-opacity:1;fill-opacity:1"
         id="path19174" /></g><g
       id="g19176"
       transform="matrix(0.11452607,0,0,0.11452607,42.290235,118.22847)"
       style="fill:#5e5e5e;fill-opacity:1;stroke:#5e5e5e;stroke-opacity:1;stroke-width:6.91545602;stroke-miterlimit:4;stroke-dasharray:none"><path
         d="m 569.28003,162.88 c 0.04,-16.1 13.09997,-29.12001 29.19995,-29.12001 16.10004,0 29.16003,13.02001 29.20001,29.12001"
         style="fill:#5e5e5e;stroke:#5e5e5e;stroke-width:6.91545602;stroke-linecap:round;stroke-linejoin:round;stroke-miterlimit:4;stroke-dasharray:none;stroke-opacity:1;fill-opacity:1"
         id="path19178" /></g><g
       id="g19180"
       transform="matrix(0.11452607,0,0,0.11452607,151.04419,136.88248)"
       style="fill:#5e5e5e;fill-opacity:1;stroke:#5e5e5e;stroke-opacity:1;stroke-width:6.91545602;stroke-miterlimit:4;stroke-dasharray:none"><path
         d="m 0,0 c 0.04,-16.1 13.1,-29.120001 29.200001,-29.120001 16.130001,0 29.200001,13.070002 29.200001,29.200001 0,16.129999 -13.07,29.200001 -29.200001,29.200001 -0.480002,0 -0.5,0 -0.08,0"
         style="fill:#5e5e5e;stroke:#5e5e5e;stroke-width:6.91545602;stroke-linecap:round;stroke-linejoin:round;stroke-miterlimit:4;stroke-dasharray:none;stroke-opacity:1;fill-opacity:1"
         id="path19182" /></g><g
       id="g19184"
       transform="matrix(0.11452607,0,0,0.11452607,42.290235,118.22847)"
       style="fill:#5e5e5e;fill-opacity:1;stroke:#5e5e5e;stroke-opacity:1;stroke-width:6.91545602;stroke-miterlimit:4;stroke-dasharray:none"><path
         d="M 569.28003,542.71997 H 336.48001"
         style="fill:#5e5e5e;stroke:#5e5e5e;stroke-width:6.91545602;stroke-linecap:round;stroke-linejoin:round;stroke-miterlimit:4;stroke-dasharray:none;stroke-opacity:1;fill-opacity:1"
         id="path19186" /></g><g
       id="g19188"
       transform="matrix(0.11452607,0,0,0.11452607,42.290235,118.22847)"
       style="fill:#5e5e5e;fill-opacity:1;stroke:#5e5e5e;stroke-opacity:1;stroke-width:6.91545602;stroke-miterlimit:4;stroke-dasharray:none"><path
         d="M 627.67999,163.03999 H 949.44"
         style="font-variation-settings:normal;opacity:1;vector-effect:none;fill:#ffffff;fill-opacity:1;stroke:none;stroke-width:0.0980769;stroke-linecap:butt;stroke-linejoin:miter;stroke-miterlimit:4;stroke-dasharray:none;stroke-dashoffset:0;stroke-opacity:1;-inkscape-stroke:none;stop-color:#000000;stop-opacity:1"
         id="path19190" /></g><a
       id="a43434"><path
         style="font-variation-settings:normal;opacity:1;vector-effect:none;fill:#ffffff;fill-opacity:1;stroke:none;stroke-width:0.0980769;stroke-linecap:butt;stroke-linejoin:miter;stroke-miterlimit:4;stroke-dasharray:none;stroke-dashoffset:0;stroke-opacity:1;-inkscape-stroke:none;stop-color:#000000;stop-opacity:1"
         d="m 60.121154,46.586539 c -0.07434,-0.120288 -1.652745,-0.196154 -4.08101,-0.196154 h -3.959781 l 9.511033,-9.51255 9.511035,-9.512551 -0.931009,-0.931007 -0.931007,-0.931009 -10.444928,10.443558 -10.444926,10.443559 h -7.851139 -7.85114 l -1.220295,-1.23124 -1.220295,-1.231238 V 29.270683 14.613462 h 10.2 10.2 v -1.275 -1.275 h -10.2 -10.2 V 9.1645258 6.2655899 L 31.438932,5.045295 32.670171,3.825 h 13.664876 c 8.89833,0 13.707165,-0.068422 13.786107,-0.1961538 0.16185,-0.2618788 5.722765,-0.2618788 5.884615,0 C 66.085224,3.7574049 72.597196,3.825 84.902821,3.825 h 18.775819 l 1.2203,1.2312391 1.22029,1.2312392 V 25.118636 43.949795 l -1.23124,1.220295 -1.23124,1.220295 H 84.891876 c -12.298329,0 -18.806654,0.0676 -18.886107,0.196154 -0.07173,0.116056 -1.273177,0.196153 -2.942307,0.196153 -1.66913,0 -2.87058,-0.0801 -2.942308,-0.196153 z M 81.550962,33.131677 c 1.24329,-1.391442 -0.547287,-3.387453 -2.077389,-2.315729 -1.003245,0.702701 -0.928059,2.139328 0.142929,2.731044 0.657716,0.363385 1.376573,0.209051 1.93446,-0.415315 z m 10.097154,0.15239 c 0.186178,-0.18237 0.395109,-0.614614 0.464295,-0.960543 0.105742,-0.528714 0.03075,-0.724004 -0.470528,-1.225281 -1.002688,-1.002688 -2.454007,-0.627546 -2.702796,0.698627 -0.295771,1.576591 1.571367,2.601606 2.709029,1.487197 z M 94.68313,21.380526 c 0.809957,-0.567316 0.74704,-1.926882 -0.119977,-2.592557 -0.536214,-0.411692 -1.55632,-0.299172 -2.085529,0.230038 -1.383842,1.383841 0.587665,3.495699 2.205506,2.362519 z m -5.808439,-0.545418 c 1.339611,-1.028521 0.636184,-2.976434 -1.057471,-2.928318 -2.008019,0.05705 -1.879054,3.193869 0.130472,3.17351 0.338673,-0.0034 0.755824,-0.113767 0.926999,-0.245192 z M 75.274039,13.516292 c 0.24274,-0.271666 0.441346,-0.716478 0.441346,-0.988473 0,-0.661851 -0.994961,-1.641281 -1.667308,-1.641281 -0.653479,0 -1.667308,0.978116 -1.667308,1.608574 0,0.254005 0.141849,0.664345 0.31522,0.911866 0.649646,0.9275 1.803271,0.976416 2.57805,0.109314 z"
         id="path41917"
         transform="translate(47.76,133.51999)" /></a><path
       style="font-variation-settings:normal;opacity:1;vector-effect:none;fill:#ffffff;fill-opacity:1;stroke:none;stroke-width:0.0192382;stroke-linecap:butt;stroke-linejoin:miter;stroke-miterlimit:4;stroke-dasharray:none;stroke-dashoffset:0;stroke-opacity:1;-inkscape-stroke:none;stop-color:#000000;stop-opacity:1"
       d="M 26.873077,29.319481 V 14.613462 H 28.05 29.226923 v 14.221153 c 0,11.813491 -0.04487,14.221154 -0.265016,14.221154 -0.145758,0 -0.675374,0.21819 -1.176923,0.484867 l -0.911907,0.484865 z"
       id="path41956"
       transform="translate(47.76,133.51999)" /><path
       style="font-variation-settings:normal;opacity:1;vector-effect:none;fill:#ffffff;fill-opacity:1;stroke:none;stroke-width:0.0192382;stroke-linecap:butt;stroke-linejoin:miter;stroke-miterlimit:4;stroke-dasharray:none;stroke-dashoffset:0;stroke-opacity:1;-inkscape-stroke:none;stop-color:#000000;stop-opacity:1"
       d="M 33.001513,1.6687068 32.393805,0.49038462 H 46.417952 60.442099 L 60.0173,1.0869589 c -0.233638,0.3281159 -0.488733,0.835664 -0.566876,1.1278846 l -0.142079,0.5313104 -12.849561,0.050438 -12.849563,0.050438 z"
       id="path41995"
       transform="translate(47.76,133.51999)" /><path
       style="font-variation-settings:normal;opacity:1;vector-effect:none;fill:#ffffff;fill-opacity:1;stroke:none;stroke-width:0.0192382;stroke-linecap:butt;stroke-linejoin:miter;stroke-miterlimit:4;stroke-dasharray:none;stroke-dashoffset:0;stroke-opacity:1;-inkscape-stroke:none;stop-color:#000000;stop-opacity:1"
       d="M 26.873077,9.0289884 V 5.9945152 l 0.721237,0.4894449 c 0.396681,0.2691947 0.926296,0.5409114 1.176924,0.6038148 0.446142,0.1119747 0.455685,0.1652725 0.455685,2.5450282 V 12.063462 H 28.05 26.873077 Z"
       id="path42034"
       transform="translate(47.76,133.51999)" /><path
       style="font-variation-settings:normal;opacity:1;vector-effect:none;fill:#ffffff;fill-opacity:1;stroke:none;stroke-width:0.00240477;stroke-linecap:butt;stroke-linejoin:miter;stroke-miterlimit:4;stroke-dasharray:none;stroke-dashoffset:0;stroke-opacity:1;-inkscape-stroke:none;stop-color:#000000;stop-opacity:1"
       d="m 26.725962,13.3875 v -0.429086 h 1.275 1.275 v 0.429086 0.429087 h -1.275 -1.275 z"
       id="path42073"
       transform="translate(47.76,133.51999)" /><path
       style="font-variation-settings:normal;opacity:1;vector-effect:none;fill:#ffffff;fill-opacity:1;stroke:none;stroke-width:0.00240477;stroke-linecap:butt;stroke-linejoin:miter;stroke-miterlimit:4;stroke-dasharray:none;stroke-dashoffset:0;stroke-opacity:1;-inkscape-stroke:none;stop-color:#000000;stop-opacity:1"
       d="m 8.3120193,13.3875 v -0.429086 h 8.8024037 8.802404 V 13.3875 13.816587 H 17.114423 8.3120193 Z"
       id="path42112"
       transform="translate(47.76,133.51999)" /><path
       style="font-variation-settings:normal;opacity:1;vector-effect:none;fill:#ffffff;fill-opacity:1;stroke:none;stroke-width:0.00240477;stroke-linecap:butt;stroke-linejoin:miter;stroke-miterlimit:4;stroke-dasharray:none;stroke-dashoffset:0;stroke-opacity:1;-inkscape-stroke:none;stop-color:#000000;stop-opacity:1"
       d="m 30.085096,13.3875 v -0.429086 h 5.185818 5.185817 v 0.429086 0.429087 h -5.185817 -5.185818 z"
       id="path42151"
       transform="translate(47.76,133.51999)" /><path
       style="font-variation-settings:normal;opacity:1;vector-effect:none;fill:#ffffff;fill-opacity:1;stroke:none;stroke-width:0.00240477;stroke-linecap:butt;stroke-linejoin:miter;stroke-miterlimit:4;stroke-dasharray:none;stroke-dashoffset:0;stroke-opacity:1;-inkscape-stroke:none;stop-color:#000000;stop-opacity:1"
       d="M 26.873077,18.953365 V 14.625721 H 28.05 29.226923 v 4.327644 4.327645 H 28.05 26.873077 Z"
       id="path42190"
       transform="translate(47.76,133.51999)" /><path
       style="font-variation-settings:normal;opacity:1;vector-effect:none;fill:#ffffff;fill-opacity:1;stroke:none;stroke-width:0.00170043;stroke-linecap:butt;stroke-linejoin:miter;stroke-miterlimit:4;stroke-dasharray:none;stroke-dashoffset:0;stroke-opacity:1;-inkscape-stroke:none;stop-color:#000000;stop-opacity:1"
       d="m 47.921443,13.376047 v -0.433443 h 0.936236 0.936237 v 0.433443 0.433443 h -0.936237 -0.936236 z"
       id="path42268"
       transform="translate(47.76,133.51999)" /><path
       style="font-variation-settings:normal;opacity:1;vector-effect:none;fill:#ffffff;fill-opacity:1;stroke:none;stroke-width:0.00170043;stroke-linecap:butt;stroke-linejoin:miter;stroke-miterlimit:4;stroke-dasharray:none;stroke-dashoffset:0;stroke-opacity:1;-inkscape-stroke:none;stop-color:#000000;stop-opacity:1"
       d="m 40.466225,13.376047 v -0.433443 h 3.328842 3.328841 v 0.433443 0.433443 h -3.328841 -3.328842 z"
       id="path42307"
       transform="translate(47.76,133.51999)" /><path
       style="font-variation-settings:normal;opacity:1;vector-effect:none;fill:#ffffff;fill-opacity:1;stroke:none;stroke-width:0.00170043;stroke-linecap:butt;stroke-linejoin:miter;stroke-miterlimit:4;stroke-dasharray:none;stroke-dashoffset:0;stroke-opacity:1;-inkscape-stroke:none;stop-color:#000000;stop-opacity:1"
       d="m 61.401425,34.580162 5.998739,-5.998758 0.282957,0.281647 c 0.155626,0.154906 0.291112,0.296389 0.30108,0.314408 0.01592,0.02878 -0.672803,0.72369 -5.666206,5.717111 l -5.684331,5.684351 h -0.615489 -0.61549 z"
       id="path42346"
       transform="translate(47.76,133.51999)" /><path
       style="font-variation-settings:normal;opacity:1;vector-effect:none;fill:#ffffff;fill-opacity:1;stroke:none;stroke-width:0.00170043;stroke-linecap:butt;stroke-linejoin:miter;stroke-miterlimit:4;stroke-dasharray:none;stroke-dashoffset:0;stroke-opacity:1;-inkscape-stroke:none;stop-color:#000000;stop-opacity:1"
       d="m 53.322141,42.659446 2.080471,-2.080525 h 0.615489 0.615489 l -2.080472,2.080525 -2.080471,2.080526 h -0.615489 -0.615489 z"
       id="path42385"
       transform="translate(47.76,133.51999)" /><path
       style="font-variation-settings:normal;opacity:1;vector-effect:none;fill:#ffffff;fill-opacity:1;stroke:none;stroke-width:0.00170043;stroke-linecap:butt;stroke-linejoin:miter;stroke-miterlimit:4;stroke-dasharray:none;stroke-dashoffset:0;stroke-opacity:1;-inkscape-stroke:none;stop-color:#000000;stop-opacity:1"
       d="m 58.202707,37.796217 6.943739,-6.943754 h 0.598151 0.598151 l -6.943738,6.943754 -6.943739,6.943755 H 51.85712 51.258969 Z"
       id="path42424"
       transform="translate(47.76,133.51999)" /><path
       style="font-variation-settings:normal;opacity:1;vector-effect:none;fill:#ffffff;fill-opacity:1;stroke:none;stroke-width:0.00170043;stroke-linecap:butt;stroke-linejoin:miter;stroke-miterlimit:4;stroke-dasharray:none;stroke-dashoffset:0;stroke-opacity:1;-inkscape-stroke:none;stop-color:#000000;stop-opacity:1"
       d="m 68.282658,28.320387 c -0.161046,-0.16253 -0.294771,-0.301045 -0.297167,-0.30781 -0.0024,-0.0068 0.282376,-0.298626 0.632826,-0.648579 l 0.637183,-0.63628 0.310976,0.30361 0.310976,0.303609 -0.640304,0.64048 c -0.352168,0.352265 -0.645114,0.640481 -0.650992,0.640481 -0.0059,0 -0.142452,-0.13298 -0.303498,-0.295511 z"
       id="path42463"
       transform="translate(47.76,133.51999)" /><path
       style="font-variation-settings:normal;opacity:1;vector-effect:none;fill:#ffffff;fill-opacity:1;stroke:none;stroke-width:0.00170043;stroke-linecap:butt;stroke-linejoin:miter;stroke-miterlimit:4;stroke-dasharray:none;stroke-dashoffset:0;stroke-opacity:1;-inkscape-stroke:none;stop-color:#000000;stop-opacity:1"
       d="m 47.435942,48.545762 1.274278,-1.274484 h 0.615258 0.615257 l -1.265378,1.269988 -1.265377,1.269988 -0.624158,0.0045 -0.624157,0.0045 z"
       id="path42502"
       transform="translate(47.76,133.51999)" /><path
       style="font-variation-settings:normal;opacity:1;vector-effect:none;fill:#ffffff;fill-opacity:1;stroke:none;stroke-width:0.0980769;stroke-linecap:butt;stroke-linejoin:miter;stroke-miterlimit:4;stroke-dasharray:none;stroke-dashoffset:0;stroke-opacity:1;-inkscape-stroke:none;stop-color:#000000;stop-opacity:1"
       d="m 42.755044,53.226557 2.609553,-2.609552 0.614696,0.0046 0.614696,0.0046 -2.597978,2.604992 -2.597977,2.604991 h -0.626271 -0.626271 z"
       id="path42541"
       transform="translate(47.76,133.51999)" /><path
       style="font-variation-settings:normal;opacity:1;vector-effect:none;fill:#ffffff;fill-opacity:1;stroke:none;stroke-width:0.00170043;stroke-linecap:butt;stroke-linejoin:miter;stroke-miterlimit:4;stroke-dasharray:none;stroke-dashoffset:0;stroke-opacity:1;-inkscape-stroke:none;stop-color:#000000;stop-opacity:1"
       d="m 50.383398,45.598189 0.858086,-0.858217 h 0.615488 0.615489 l -0.858085,0.858217 -0.858086,0.858217 h -0.615489 -0.615488 z"
       id="path42580"
       transform="translate(47.76,133.51999)" /><path
       style="font-variation-settings:normal;opacity:1;vector-effect:none;fill:#ffffff;fill-opacity:1;stroke:none;stroke-width:0.00170043;stroke-linecap:butt;stroke-linejoin:miter;stroke-miterlimit:4;stroke-dasharray:none;stroke-dashoffset:0;stroke-opacity:1;-inkscape-stroke:none;stop-color:#000000;stop-opacity:1"
       d="m 49.811254,48.5456 1.274233,-1.274322 h 4.129969 4.129969 l 0.0099,0.06502 c 0.08263,0.543676 0.265209,1.057173 0.528619,1.486709 0.142103,0.231723 0.320314,0.452079 0.558546,0.690637 0.140978,0.141171 0.23953,0.253522 0.23953,0.273069 0,0.03266 -0.100746,0.03321 -6.072491,0.03321 h -6.07249 z"
       id="path42619"
       transform="translate(47.76,133.51999)" /><path
       style="font-variation-settings:normal;opacity:1;vector-effect:none;fill:#ffffff;fill-opacity:1;stroke:none;stroke-width:0.00170043;stroke-linecap:butt;stroke-linejoin:miter;stroke-miterlimit:4;stroke-dasharray:none;stroke-dashoffset:0;stroke-opacity:1;-inkscape-stroke:none;stop-color:#000000;stop-opacity:1"
       d="m 37.952257,48.5456 v -1.274322 h 4.806837 4.806837 L 46.291698,48.5456 45.017464,49.819922 H 41.48486 37.952257 Z"
       id="path42658"
       transform="translate(47.76,133.51999)" /><path
       style="font-variation-settings:normal;opacity:1;vector-effect:none;fill:#ffffff;fill-opacity:1;stroke:none;stroke-width:0.00240477;stroke-linecap:butt;stroke-linejoin:miter;stroke-miterlimit:4;stroke-dasharray:none;stroke-dashoffset:0;stroke-opacity:1;-inkscape-stroke:none;stop-color:#000000;stop-opacity:1"
       d="m 32.373682,49.534976 c 0.579182,-0.582314 0.941926,-1.292378 1.070968,-2.096394 l 0.02853,-0.177764 h 2.229034 2.229035 v 1.275 1.275 h -2.915962 -2.915963 z"
       id="path42697"
       transform="translate(47.76,133.51999)" /><path
       style="font-variation-settings:normal;opacity:1;vector-effect:none;fill:#ffffff;fill-opacity:1;stroke:none;stroke-width:0.00240477;stroke-linecap:butt;stroke-linejoin:miter;stroke-miterlimit:4;stroke-dasharray:none;stroke-dashoffset:0;stroke-opacity:1;-inkscape-stroke:none;stop-color:#000000;stop-opacity:1"
       d="m 32.190205,49.74339 c 0.02686,-0.03709 0.116899,-0.13363 0.200091,-0.214544 0.539022,-0.524259 0.915724,-1.247693 1.052068,-2.020439 l 0.04152,-0.23533 2.223682,-0.0063 2.223682,-0.0063 v 1.27513 1.27513 H 35.036309 32.14137 Z"
       id="path42736"
       transform="translate(47.76,133.51999)" /><path
       style="font-variation-settings:normal;opacity:1;vector-effect:none;fill:#ffffff;fill-opacity:1;stroke:none;stroke-width:0.00240477;stroke-linecap:butt;stroke-linejoin:miter;stroke-miterlimit:4;stroke-dasharray:none;stroke-dashoffset:0;stroke-opacity:1;-inkscape-stroke:none;stop-color:#000000;stop-opacity:1"
       d="m 37.955769,48.548077 v -1.26274 h 4.787291 4.787291 l -1.262562,1.26274 -1.262562,1.262741 h -3.524729 -3.524729 z"
       id="path42775"
       transform="translate(47.76,133.51999)" /><path
       style="font-variation-settings:normal;opacity:1;vector-effect:none;fill:#ffffff;fill-opacity:1;stroke:none;stroke-width:0.000383113;stroke-linecap:butt;stroke-linejoin:miter;stroke-miterlimit:4;stroke-dasharray:none;stroke-dashoffset:0;stroke-opacity:1;-inkscape-stroke:none;stop-color:#000000;stop-opacity:1"
       d="m 36.834961,49.81543 1.098633,-9.91e-4 v -0.931633 c 0,-0.92903 2.2e-5,-0.931634 0.0078,-0.931634 0.0078,0 0.0078,0.0026 0.0078,0.933594 v 0.933593 l -1.106446,-9.69e-4 -1.106445,-9.7e-4 z"
       id="path42814"
       transform="translate(47.76,133.51999)" /><path
       style="font-variation-settings:normal;opacity:1;vector-effect:none;fill:#ffffff;fill-opacity:1;stroke:none;stroke-width:0.000383113;stroke-linecap:butt;stroke-linejoin:miter;stroke-miterlimit:4;stroke-dasharray:none;stroke-dashoffset:0;stroke-opacity:1;-inkscape-stroke:none;stop-color:#000000;stop-opacity:1"
       d="m 37.953125,48.884766 v -0.933594 h 1.453125 1.453125 v 0.933594 0.933593 H 39.40625 37.953125 Z"
       id="path42853"
       transform="translate(47.76,133.51999)" /><path
       style="font-variation-settings:normal;opacity:1;vector-effect:none;fill:#ffffff;fill-opacity:1;stroke:none;stroke-width:0.000383113;stroke-linecap:butt;stroke-linejoin:miter;stroke-miterlimit:4;stroke-dasharray:none;stroke-dashoffset:0;stroke-opacity:1;-inkscape-stroke:none;stop-color:#000000;stop-opacity:1"
       d="m 37.867533,49.815439 0.0648,-0.0012 0.0028,-0.926531 c 0.0015,-0.509591 0.0036,-0.927324 0.0045,-0.928293 9.7e-4,-9.7e-4 0.0025,-10e-4 0.0033,-1.36e-4 8.4e-4,8.95e-4 0.0028,0.419547 0.0044,0.930338 l 0.0029,0.928711 -0.07374,-8.75e-4 -0.07374,-8.76e-4 z"
       id="path42892"
       transform="translate(47.76,133.51999)" /><path
       style="font-variation-settings:normal;opacity:1;vector-effect:none;fill:#ffffff;fill-opacity:1;stroke:none;stroke-width:0.000383113;stroke-linecap:butt;stroke-linejoin:miter;stroke-miterlimit:4;stroke-dasharray:none;stroke-dashoffset:0;stroke-opacity:1;-inkscape-stroke:none;stop-color:#000000;stop-opacity:1"
       d="m 37.953125,48.884766 v -0.933594 h 1.453125 1.453125 v 0.933594 0.933593 H 39.40625 37.953125 Z"
       id="path42931"
       transform="translate(47.76,133.51999)" /><path
       style="font-variation-settings:normal;opacity:1;vector-effect:none;fill:#ffffff;fill-opacity:1;stroke:none;stroke-width:0.00866886;stroke-linecap:butt;stroke-linejoin:miter;stroke-miterlimit:4;stroke-dasharray:none;stroke-dashoffset:0;stroke-opacity:1;-inkscape-stroke:none;stop-color:#000000;stop-opacity:1"
       d="m 65.851013,49.386989 c 0.429664,-0.487189 0.74291,-1.067535 0.888682,-1.646449 l 0.102882,-0.40858 h 18.010237 18.010236 l 0.10288,0.40858 c 0.14838,0.589282 0.49437,1.228685 0.90716,1.67652 l 0.35929,0.389774 H 84.856559 65.480742 Z"
       id="path42970"
       transform="translate(47.76,133.51999)" /><path
       style="font-variation-settings:normal;opacity:1;vector-effect:none;fill:#ffffff;fill-opacity:1;stroke:none;stroke-width:0.0980769;stroke-linecap:butt;stroke-linejoin:miter;stroke-miterlimit:4;stroke-dasharray:none;stroke-dashoffset:0;stroke-opacity:1;-inkscape-stroke:none;stop-color:#000000;stop-opacity:1"
       d="m 34.653157,61.940762 -0.304973,-0.308584 0.20842,-0.208573 c 0.114631,-0.114716 0.406065,-0.406168 0.647632,-0.647672 0.241566,-0.241504 0.621964,-0.621874 0.845328,-0.845266 0.223365,-0.223392 0.606206,-0.606231 0.850757,-0.850755 0.244552,-0.244523 0.627392,-0.627362 0.850757,-0.850754 0.817419,-0.817519 1.29457,-1.294136 1.728219,-1.726288 l 0.443457,-0.441924 0.616928,0.0069 0.616927,0.0069 -0.386186,0.384334 c -0.212403,0.211384 -0.571279,0.56952 -0.797504,0.795857 -0.226224,0.226338 -0.59527,0.595566 -0.820102,0.820509 -0.224832,0.224942 -0.592733,0.593025 -0.817558,0.817963 -0.224825,0.224938 -0.591628,0.59169 -0.815118,0.815004 -0.22349,0.223315 -0.761444,0.761701 -1.195453,1.196413 -1.254574,1.256608 -1.343413,1.344751 -1.355301,1.344673 -0.0062,-4e-5 -0.148495,-0.138936 -0.31623,-0.308657 z"
       id="path43009"
       transform="translate(47.76,133.51999)" /><path
       style="font-variation-settings:normal;opacity:1;vector-effect:none;fill:#ffffff;fill-opacity:1;stroke:none;stroke-width:0.000383113;stroke-linecap:butt;stroke-linejoin:miter;stroke-miterlimit:4;stroke-dasharray:none;stroke-dashoffset:0;stroke-opacity:1;-inkscape-stroke:none;stop-color:#000000;stop-opacity:1"
       d="m 40.146644,56.061719 -0.230335,-0.0025 0.111376,-0.110188 0.111376,-0.110187 0.287666,-4.33e-4 c 0.158216,-2.38e-4 0.440598,-4.98e-4 0.627517,-5.77e-4 l 0.339852,-1.45e-4 -0.117924,0.116783 -0.117924,0.116782 -0.390635,-0.0035 c -0.214849,-0.0019 -0.494286,-0.0046 -0.620969,-0.006 z"
       id="path43048"
       transform="translate(47.76,133.51999)" /><path
       style="font-variation-settings:normal;opacity:1;vector-effect:none;fill:#ffffff;fill-opacity:1;stroke:none;stroke-width:0.00433443;stroke-linecap:butt;stroke-linejoin:miter;stroke-miterlimit:4;stroke-dasharray:none;stroke-dashoffset:0;stroke-opacity:1;-inkscape-stroke:none;stop-color:#000000;stop-opacity:1"
       d="m 107.03887,38.625626 c -0.0103,-0.613826 -0.0151,-6.396235 -0.0106,-12.849796 0.004,-6.453561 0.005,-13.299929 0.002,-15.214151 l -0.006,-3.4804031 0.12954,8.413e-4 c 0.2103,0.00137 0.76355,-0.1651668 1.09985,-0.3310619 0.42732,-0.2107979 0.80955,-0.4869205 1.08334,-0.7826178 l 0.22947,-0.2478224 -0.0101,2.2243003 c -0.006,1.2233652 -0.005,2.2839946 6e-4,2.3569546 0.006,0.07296 0.005,2.946744 -0.001,6.386185 -0.007,3.439442 -0.005,6.740824 0.002,7.336403 0.008,0.59558 0.009,3.459431 0.003,6.364113 -0.006,2.904681 -0.005,6.201093 0.003,7.325358 l 0.0147,2.044119 -1.2606,-0.0082 -1.2606,-0.0082 z"
       id="path43161"
       transform="translate(47.76,133.51999)" /><path
       style="font-variation-settings:normal;opacity:1;vector-effect:none;fill:#ffffff;fill-opacity:1;stroke:none;stroke-width:0.00433443;stroke-linecap:butt;stroke-linejoin:miter;stroke-miterlimit:4;stroke-dasharray:none;stroke-dashoffset:0;stroke-opacity:1;-inkscape-stroke:none;stop-color:#000000;stop-opacity:1"
       d="m 72.159493,1.7114008 0.0081,-1.25421796 2.574436,-0.0110228 c 1.41594,-0.006063 7.596083,-0.007521 13.73365,-0.003241 6.137568,0.00428 12.202691,0.002304 13.478071,-0.004392 l 2.31885,-0.0121745 -0.33369,0.34475905 c -0.53504,0.55278851 -0.88083,1.20957691 -0.99297,1.88603161 l -0.0549,0.3313376 -2.07818,-0.012762 c -1.142988,-0.00702 -7.815807,-0.010894 -14.82848,-0.00861 -7.012674,0.00228 -12.993933,0.00288 -13.291687,0.00133 l -0.541372,-0.00282 z"
       id="path43200"
       transform="translate(47.76,133.51999)" /><path
       style="font-variation-settings:normal;opacity:1;vector-effect:none;fill:#ffffff;fill-opacity:1;stroke:none;stroke-width:0.000541803;stroke-linecap:butt;stroke-linejoin:miter;stroke-miterlimit:4;stroke-dasharray:none;stroke-dashoffset:0;stroke-opacity:1;-inkscape-stroke:none;stop-color:#000000;stop-opacity:1"
       d="m 109.54745,1.030479 c -0.13414,-0.17096786 -0.36315,-0.40293331 -0.54287,-0.54987723 -0.0466,-0.0381349 -0.0581,-0.0501045 -0.0509,-0.0529638 0.005,-0.002032 0.14671,-0.002977 0.31457,-0.0021 l 0.30522,0.001594 -3.6e-4,0.0593849 c -1.9e-4,0.0326617 5.3e-4,0.1756099 0.002,0.31766268 0.001,0.14205277 9.2e-4,0.25815355 -3.3e-4,0.25800165 -0.001,-1.517e-4 -0.0134,-0.014418 -0.0269,-0.031702 z"
       id="path43239"
       transform="translate(47.76,133.51999)" /><path
       style="font-variation-settings:normal;opacity:1;vector-effect:none;fill:#ffffff;fill-opacity:1;stroke:none;stroke-width:0.0030649;stroke-linecap:butt;stroke-linejoin:miter;stroke-miterlimit:4;stroke-dasharray:none;stroke-dashoffset:0;stroke-opacity:1;-inkscape-stroke:none;stop-color:#000000;stop-opacity:1"
       d="m 109.29248,44.224004 c -0.52961,-0.543179 -1.36165,-0.979549 -2.02463,-1.061838 -0.0903,-0.0112 -0.17932,-0.0299 -0.19789,-0.04155 -0.0233,-0.01461 -0.0354,-0.554234 -0.0392,-1.738567 -0.003,-0.944564 0.003,-1.699757 0.0128,-1.678208 0.0141,0.03038 0.29813,0.041 1.26429,0.04727 l 1.24606,0.0081 0.006,0.601611 c 0.009,0.915118 7.9e-4,4.11728 -0.01,4.11721 -0.005,-3.4e-5 -0.12093,-0.114346 -0.25713,-0.254027 z"
       id="path43395"
       transform="translate(47.76,133.51999)" /></g></svg>
