<?xml version="1.0" encoding="UTF-8" standalone="no"?>
<!-- Created with Inkscape (http://www.inkscape.org/) -->

<svg
   version="1.1"
   id="svg17716"
   xml:space="preserve"
   width="110.00001"
   height="84.040565"
   viewBox="0 0 110.00001 84.040567"
   sodipodi:docname="2D_sofa_L.svg"
   inkscape:version="1.1 (c68e22c387, 2021-05-23)"
   xmlns:inkscape="http://www.inkscape.org/namespaces/inkscape"
   xmlns:sodipodi="http://sodipodi.sourceforge.net/DTD/sodipodi-0.dtd"
   xmlns="http://www.w3.org/2000/svg"
   xmlns:svg="http://www.w3.org/2000/svg"><defs
     id="defs17720" /><sodipodi:namedview
     id="namedview17718"
     pagecolor="#505050"
     bordercolor="#eeeeee"
     borderopacity="1"
     inkscape:pageshadow="0"
     inkscape:pageopacity="0"
     inkscape:pagecheckerboard="0"
     showgrid="false"
     inkscape:zoom="5.0980392"
     inkscape:cx="118.03428"
     inkscape:cy="90.54007"
     inkscape:window-width="1360"
     inkscape:window-height="705"
     inkscape:window-x="1358"
     inkscape:window-y="-8"
     inkscape:window-maximized="1"
     inkscape:current-layer="g17722"
     fit-margin-top="0"
     fit-margin-left="0"
     fit-margin-right="0"
     fit-margin-bottom="0"
     inkscape:rotation="1" /><g
     id="g17722"
     inkscape:groupmode="layer"
     inkscape:label="2D_sofa_L"
     transform="translate(-46.550032,-40.150169)"><g
       id="g17724"
       style="fill:#5e5e5e;fill-opacity:1;stroke:#5e5e5e;stroke-width:4.08172;stroke-miterlimit:4;stroke-dasharray:none;stroke-opacity:1"
       transform="matrix(0.11409816,0,0,0.11409816,41.306205,35.636544)"><path
         d="m 101.92,408 c 13.22,0 23.96,10.73001 24,24"
         style="fill:#5e5e5e;fill-opacity:1;stroke:#5e5e5e;stroke-width:4.08172;stroke-linecap:round;stroke-linejoin:round;stroke-miterlimit:4;stroke-dasharray:none;stroke-opacity:1"
         id="path17726" /></g><g
       id="g17728"
       style="fill:#5e5e5e;fill-opacity:1;stroke:#5e5e5e;stroke-width:4.08172;stroke-miterlimit:4;stroke-dasharray:none;stroke-opacity:1"
       transform="matrix(0.11409816,0,0,0.11409816,41.306205,35.636544)"><path
         d="M 101.92,408.16 H 72"
         style="fill:#5e5e5e;fill-opacity:1;stroke:#5e5e5e;stroke-width:4.08172;stroke-linecap:round;stroke-linejoin:round;stroke-miterlimit:4;stroke-dasharray:none;stroke-opacity:1"
         id="path17730" /></g><g
       id="g17732"
       style="fill:#5e5e5e;fill-opacity:1;stroke:#5e5e5e;stroke-width:4.08172;stroke-miterlimit:4;stroke-dasharray:none;stroke-opacity:1"
       transform="matrix(0.11409816,0,0,0.11409816,41.306205,35.636544)"><path
         d="m 48,432 c 0.04,-13.26999 10.779999,-24 24,-24 0,0 0,0 0,0"
         style="fill:#5e5e5e;fill-opacity:1;stroke:#5e5e5e;stroke-width:4.08172;stroke-linecap:round;stroke-linejoin:round;stroke-miterlimit:4;stroke-dasharray:none;stroke-opacity:1"
         id="path17734" /></g><g
       id="g17736"
       style="fill:#5e5e5e;fill-opacity:1;stroke:#5e5e5e;stroke-width:4.08172;stroke-miterlimit:4;stroke-dasharray:none;stroke-opacity:1"
       transform="matrix(0.11409816,0,0,0.11409816,41.306205,35.636544)"><path
         d="M 48,432.16 V 749.76001"
         style="fill:#5e5e5e;fill-opacity:1;stroke:#5e5e5e;stroke-width:4.08172;stroke-linecap:round;stroke-linejoin:round;stroke-miterlimit:4;stroke-dasharray:none;stroke-opacity:1"
         id="path17738" /></g><g
       id="g17740"
       transform="matrix(0.11409816,0,0,0.11409816,49.57604,123.9565)"
       style="fill:#5e5e5e;fill-opacity:1;stroke:#5e5e5e;stroke-width:4.08172;stroke-miterlimit:4;stroke-dasharray:none;stroke-opacity:1"><path
         d="m 0,0 c 0.07,0.01 -0.09,0.01 -0.48,0.01 -13.26,0 -24,-10.74 -24,-24 0,-0.389999 0,-0.5 0.01,-0.319999"
         style="fill:#5e5e5e;fill-opacity:1;stroke:#5e5e5e;stroke-width:4.08172;stroke-linecap:round;stroke-linejoin:round;stroke-miterlimit:4;stroke-dasharray:none;stroke-opacity:1"
         id="path17742" /></g><g
       id="g17744"
       style="fill:#5e5e5e;fill-opacity:1;stroke:#5e5e5e;stroke-width:4.08172;stroke-miterlimit:4;stroke-dasharray:none;stroke-opacity:1"
       transform="matrix(0.11409816,0,0,0.11409816,41.306205,35.636544)"><path
         d="M 72.32,774.08002 H 983.52002"
         style="fill:#5e5e5e;fill-opacity:1;stroke:#5e5e5e;stroke-width:4.08172;stroke-linecap:round;stroke-linejoin:round;stroke-miterlimit:4;stroke-dasharray:none;stroke-opacity:1"
         id="path17746" /></g><g
       id="g17748"
       transform="matrix(0.11409816,0,0,0.11409816,156.31601,121.18278)"
       style="fill:#5e5e5e;fill-opacity:1;stroke:#5e5e5e;stroke-width:4.08172;stroke-miterlimit:4;stroke-dasharray:none;stroke-opacity:1"><path
         d="m 0,0 c 0.01,-0.18 0.01,-0.07 0.01,0.32 0,13.26 -10.74,24 -24,24 -0.389999,0 -0.550001,0 -0.479999,-0.01"
         style="fill:#5e5e5e;fill-opacity:1;stroke:#5e5e5e;stroke-width:4.08172;stroke-linecap:round;stroke-linejoin:round;stroke-miterlimit:4;stroke-dasharray:none;stroke-opacity:1"
         id="path17750" /></g><g
       id="g17752"
       style="fill:#5e5e5e;fill-opacity:1;stroke:#5e5e5e;stroke-width:4.08172;stroke-miterlimit:4;stroke-dasharray:none;stroke-opacity:1"
       transform="matrix(0.11409816,0,0,0.11409816,41.306205,35.636544)"><path
         d="M 1007.84,749.76001 V 65.760002"
         style="fill:#5e5e5e;fill-opacity:1;stroke:#5e5e5e;stroke-width:4.08172;stroke-linecap:round;stroke-linejoin:round;stroke-miterlimit:4;stroke-dasharray:none;stroke-opacity:1"
         id="path17754" /></g><g
       id="g17756"
       style="fill:#5e5e5e;fill-opacity:1;stroke:#5e5e5e;stroke-width:4.08172;stroke-miterlimit:4;stroke-dasharray:none;stroke-opacity:1"
       transform="matrix(0.11409816,0,0,0.11409816,41.306205,35.636544)"><path
         d="m 984,41.599998 c 13.25,0 24,10.75 24,24 0,0 0,0 0,0"
         style="fill:#5e5e5e;fill-opacity:1;stroke:#5e5e5e;stroke-width:4.08172;stroke-linecap:round;stroke-linejoin:round;stroke-miterlimit:4;stroke-dasharray:none;stroke-opacity:1"
         id="path17758" /></g><g
       id="g17760"
       style="fill:#5e5e5e;fill-opacity:1;stroke:#5e5e5e;stroke-width:4.08172;stroke-miterlimit:4;stroke-dasharray:none;stroke-opacity:1"
       transform="matrix(0.11409816,0,0,0.11409816,41.306205,35.636544)"><path
         d="M 983.84003,41.759998 H 653.91998"
         style="fill:#5e5e5e;fill-opacity:1;stroke:#5e5e5e;stroke-width:4.08172;stroke-linecap:round;stroke-linejoin:round;stroke-miterlimit:4;stroke-dasharray:none;stroke-opacity:1"
         id="path17762" /></g><g
       id="g17764"
       style="fill:#5e5e5e;fill-opacity:1;stroke:#5e5e5e;stroke-width:4.08172;stroke-miterlimit:4;stroke-dasharray:none;stroke-opacity:1"
       transform="matrix(0.11409816,0,0,0.11409816,41.306205,35.636544)"><path
         d="M 125.92,407.84 V 671.52002"
         style="fill:#5e5e5e;fill-opacity:1;stroke:#5e5e5e;stroke-width:4.08172;stroke-linecap:round;stroke-linejoin:round;stroke-miterlimit:4;stroke-dasharray:none;stroke-opacity:1"
         id="path17766" /></g><g
       id="g17768"
       transform="matrix(0.11409816,0,0,0.11409816,58.411801,115.06712)"
       style="fill:#5e5e5e;fill-opacity:1;stroke:#5e5e5e;stroke-width:4.08172;stroke-miterlimit:4;stroke-dasharray:none;stroke-opacity:1"><path
         d="m 0,0 c 0,0 0,0 0,0 -13.26,0 -24,-10.74 -24,-24 0,-0.389999 0.01,-0.66 0.02,-0.799999"
         style="fill:#5e5e5e;fill-opacity:1;stroke:#5e5e5e;stroke-width:4.08172;stroke-linecap:round;stroke-linejoin:round;stroke-miterlimit:4;stroke-dasharray:none;stroke-opacity:1"
         id="path17770" /></g><g
       id="g17772"
       style="fill:#5e5e5e;fill-opacity:1;stroke:#5e5e5e;stroke-width:4.08172;stroke-miterlimit:4;stroke-dasharray:none;stroke-opacity:1"
       transform="matrix(0.11409816,0,0,0.11409816,41.306205,35.636544)"><path
         d="M 149.92,696.15997 H 353.60001"
         style="fill:#5e5e5e;fill-opacity:1;stroke:#5e5e5e;stroke-width:4.08172;stroke-linecap:round;stroke-linejoin:round;stroke-miterlimit:4;stroke-dasharray:none;stroke-opacity:1"
         id="path17774" /></g><g
       id="g17776"
       style="fill:#5e5e5e;fill-opacity:1;stroke:#5e5e5e;stroke-width:4.08172;stroke-miterlimit:4;stroke-dasharray:none;stroke-opacity:1"
       transform="matrix(0.11409816,0,0,0.11409816,41.306205,35.636544)"><path
         d="m 377.92001,672.15997 c 0,13.25 -10.75,24 -24,24 -0.39001,0 -0.45001,0 -0.16,0"
         style="fill:#5e5e5e;fill-opacity:1;stroke:#5e5e5e;stroke-width:4.08172;stroke-linecap:round;stroke-linejoin:round;stroke-miterlimit:4;stroke-dasharray:none;stroke-opacity:1"
         id="path17778" /></g><g
       id="g17780"
       style="fill:#5e5e5e;fill-opacity:1;stroke:#5e5e5e;stroke-width:4.08172;stroke-miterlimit:4;stroke-dasharray:none;stroke-opacity:1"
       transform="matrix(0.11409816,0,0,0.11409816,41.306205,35.636544)"><path
         d="M 377.92001,672.15997 V 408.16"
         style="fill:#5e5e5e;fill-opacity:1;stroke:#5e5e5e;stroke-width:4.08172;stroke-linecap:round;stroke-linejoin:round;stroke-miterlimit:4;stroke-dasharray:none;stroke-opacity:1"
         id="path17782" /></g><g
       id="g17784"
       style="fill:#5e5e5e;fill-opacity:1;stroke:#5e5e5e;stroke-width:4.08172;stroke-miterlimit:4;stroke-dasharray:none;stroke-opacity:1"
       transform="matrix(0.11409816,0,0,0.11409816,41.306205,35.636544)"><path
         d="M 377.92001,408.16 346.56,403.84"
         style="fill:#5e5e5e;fill-opacity:1;stroke:#5e5e5e;stroke-width:4.08172;stroke-linecap:round;stroke-linejoin:round;stroke-miterlimit:4;stroke-dasharray:none;stroke-opacity:1"
         id="path17786" /></g><g
       id="g17788"
       style="fill:#5e5e5e;fill-opacity:1;stroke:#5e5e5e;stroke-width:4.08172;stroke-miterlimit:4;stroke-dasharray:none;stroke-opacity:1"
       transform="matrix(0.11409816,0,0,0.11409816,41.306205,35.636544)"><path
         d="m 346.56,403.84 -31.51999,-3.04001"
         style="fill:#5e5e5e;fill-opacity:1;stroke:#5e5e5e;stroke-width:4.08172;stroke-linecap:round;stroke-linejoin:round;stroke-miterlimit:4;stroke-dasharray:none;stroke-opacity:1"
         id="path17790" /></g><g
       id="g17792"
       style="fill:#5e5e5e;fill-opacity:1;stroke:#5e5e5e;stroke-width:4.08172;stroke-miterlimit:4;stroke-dasharray:none;stroke-opacity:1"
       transform="matrix(0.11409816,0,0,0.11409816,41.306205,35.636544)"><path
         d="M 315.04001,400.79999 283.51999,398.88"
         style="fill:#5e5e5e;fill-opacity:1;stroke:#5e5e5e;stroke-width:4.08172;stroke-linecap:round;stroke-linejoin:round;stroke-miterlimit:4;stroke-dasharray:none;stroke-opacity:1"
         id="path17794" /></g><g
       id="g17796"
       style="fill:#5e5e5e;fill-opacity:1;stroke:#5e5e5e;stroke-width:4.08172;stroke-miterlimit:4;stroke-dasharray:none;stroke-opacity:1"
       transform="matrix(0.11409816,0,0,0.11409816,41.306205,35.636544)"><path
         d="M 283.51999,398.88 251.84,398.23999"
         style="fill:#5e5e5e;fill-opacity:1;stroke:#5e5e5e;stroke-width:4.08172;stroke-linecap:round;stroke-linejoin:round;stroke-miterlimit:4;stroke-dasharray:none;stroke-opacity:1"
         id="path17798" /></g><g
       id="g17800"
       style="fill:#5e5e5e;fill-opacity:1;stroke:#5e5e5e;stroke-width:4.08172;stroke-miterlimit:4;stroke-dasharray:none;stroke-opacity:1"
       transform="matrix(0.11409816,0,0,0.11409816,41.306205,35.636544)"><path
         d="M 251.84,398.23999 220.32001,398.88"
         style="fill:#5e5e5e;fill-opacity:1;stroke:#5e5e5e;stroke-width:4.08172;stroke-linecap:round;stroke-linejoin:round;stroke-miterlimit:4;stroke-dasharray:none;stroke-opacity:1"
         id="path17802" /></g><g
       id="g17804"
       style="fill:#5e5e5e;fill-opacity:1;stroke:#5e5e5e;stroke-width:4.08172;stroke-miterlimit:4;stroke-dasharray:none;stroke-opacity:1"
       transform="matrix(0.11409816,0,0,0.11409816,41.306205,35.636544)"><path
         d="M 220.32001,398.88 188.64,400.64001"
         style="fill:#5e5e5e;fill-opacity:1;stroke:#5e5e5e;stroke-width:4.08172;stroke-linecap:round;stroke-linejoin:round;stroke-miterlimit:4;stroke-dasharray:none;stroke-opacity:1"
         id="path17806" /></g><g
       id="g17808"
       style="fill:#5e5e5e;fill-opacity:1;stroke:#5e5e5e;stroke-width:4.08172;stroke-miterlimit:4;stroke-dasharray:none;stroke-opacity:1"
       transform="matrix(0.11409816,0,0,0.11409816,41.306205,35.636544)"><path
         d="m 188.64,400.64001 -31.36,3.03998"
         style="fill:#5e5e5e;fill-opacity:1;stroke:#5e5e5e;stroke-width:4.08172;stroke-linecap:round;stroke-linejoin:round;stroke-miterlimit:4;stroke-dasharray:none;stroke-opacity:1"
         id="path17810" /></g><g
       id="g17812"
       style="fill:#5e5e5e;fill-opacity:1;stroke:#5e5e5e;stroke-width:4.08172;stroke-miterlimit:4;stroke-dasharray:none;stroke-opacity:1"
       transform="matrix(0.11409816,0,0,0.11409816,41.306205,35.636544)"><path
         d="M 157.28,403.67999 125.92,407.84"
         style="fill:#5e5e5e;fill-opacity:1;stroke:#5e5e5e;stroke-width:4.08172;stroke-linecap:round;stroke-linejoin:round;stroke-miterlimit:4;stroke-dasharray:none;stroke-opacity:1"
         id="path17814" /></g><g
       id="g17816"
       style="fill:#5e5e5e;fill-opacity:1;stroke:#5e5e5e;stroke-width:4.08172;stroke-miterlimit:4;stroke-dasharray:none;stroke-opacity:1"
       transform="matrix(0.11409816,0,0,0.11409816,41.306205,35.636544)"><path
         d="m 401.92001,696.15997 c 0,0 0,0 0,0 -13.25,0 -24,-10.75 -24,-24"
         style="fill:#5e5e5e;fill-opacity:1;stroke:#5e5e5e;stroke-width:4.08172;stroke-linecap:round;stroke-linejoin:round;stroke-miterlimit:4;stroke-dasharray:none;stroke-opacity:1"
         id="path17818" /></g><g
       id="g17820"
       style="fill:#5e5e5e;fill-opacity:1;stroke:#5e5e5e;stroke-width:4.08172;stroke-miterlimit:4;stroke-dasharray:none;stroke-opacity:1"
       transform="matrix(0.11409816,0,0,0.11409816,41.306205,35.636544)"><path
         d="M 401.92001,696.15997 H 606.08002"
         style="fill:#5e5e5e;fill-opacity:1;stroke:#5e5e5e;stroke-width:4.08172;stroke-linecap:round;stroke-linejoin:round;stroke-miterlimit:4;stroke-dasharray:none;stroke-opacity:1"
         id="path17822" /></g><g
       id="g17824"
       style="fill:#5e5e5e;fill-opacity:1;stroke:#5e5e5e;stroke-width:4.08172;stroke-miterlimit:4;stroke-dasharray:none;stroke-opacity:1"
       transform="matrix(0.11409816,0,0,0.11409816,41.306205,35.636544)"><path
         d="m 629.91998,672.15997 c -0.04,13.14002 -10.57995,23.82001 -23.67999,23.99005"
         style="fill:#5e5e5e;fill-opacity:1;stroke:#5e5e5e;stroke-width:4.08172;stroke-linecap:round;stroke-linejoin:round;stroke-miterlimit:4;stroke-dasharray:none;stroke-opacity:1"
         id="path17826" /></g><g
       id="g17828"
       style="fill:#5e5e5e;fill-opacity:1;stroke:#5e5e5e;stroke-width:4.08172;stroke-miterlimit:4;stroke-dasharray:none;stroke-opacity:1"
       transform="matrix(0.11409816,0,0,0.11409816,41.306205,35.636544)"><path
         d="m 377.92001,407.84 32.31998,-4.32001"
         style="fill:#5e5e5e;fill-opacity:1;stroke:#5e5e5e;stroke-width:4.08172;stroke-linecap:round;stroke-linejoin:round;stroke-miterlimit:4;stroke-dasharray:none;stroke-opacity:1"
         id="path17830" /></g><g
       id="g17832"
       style="fill:#5e5e5e;fill-opacity:1;stroke:#5e5e5e;stroke-width:4.08172;stroke-miterlimit:4;stroke-dasharray:none;stroke-opacity:1"
       transform="matrix(0.11409816,0,0,0.11409816,41.306205,35.636544)"><path
         d="M 410.23999,403.51999 442.72,400.48001"
         style="fill:#5e5e5e;fill-opacity:1;stroke:#5e5e5e;stroke-width:4.08172;stroke-linecap:round;stroke-linejoin:round;stroke-miterlimit:4;stroke-dasharray:none;stroke-opacity:1"
         id="path17834" /></g><g
       id="g17836"
       style="fill:#5e5e5e;fill-opacity:1;stroke:#5e5e5e;stroke-width:4.08172;stroke-miterlimit:4;stroke-dasharray:none;stroke-opacity:1"
       transform="matrix(0.11409816,0,0,0.11409816,41.306205,35.636544)"><path
         d="M 442.72,400.48001 475.35999,398.72"
         style="fill:#5e5e5e;fill-opacity:1;stroke:#5e5e5e;stroke-width:4.08172;stroke-linecap:round;stroke-linejoin:round;stroke-miterlimit:4;stroke-dasharray:none;stroke-opacity:1"
         id="path17838" /></g><g
       id="g17840"
       style="fill:#5e5e5e;fill-opacity:1;stroke:#5e5e5e;stroke-width:4.08172;stroke-miterlimit:4;stroke-dasharray:none;stroke-opacity:1"
       transform="matrix(0.11409816,0,0,0.11409816,41.306205,35.636544)"><path
         d="M 475.35999,398.72 508.16,398.23999"
         style="fill:#5e5e5e;fill-opacity:1;stroke:#5e5e5e;stroke-width:4.08172;stroke-linecap:round;stroke-linejoin:round;stroke-miterlimit:4;stroke-dasharray:none;stroke-opacity:1"
         id="path17842" /></g><g
       id="g17844"
       style="fill:#5e5e5e;fill-opacity:1;stroke:#5e5e5e;stroke-width:4.08172;stroke-miterlimit:4;stroke-dasharray:none;stroke-opacity:1"
       transform="matrix(0.11409816,0,0,0.11409816,41.306205,35.636544)"><path
         d="m 508.16,398.23999 32.63999,0.96002"
         style="fill:#5e5e5e;fill-opacity:1;stroke:#5e5e5e;stroke-width:4.08172;stroke-linecap:round;stroke-linejoin:round;stroke-miterlimit:4;stroke-dasharray:none;stroke-opacity:1"
         id="path17846" /></g><g
       id="g17848"
       style="fill:#5e5e5e;fill-opacity:1;stroke:#5e5e5e;stroke-width:4.08172;stroke-miterlimit:4;stroke-dasharray:none;stroke-opacity:1"
       transform="matrix(0.11409816,0,0,0.11409816,41.306205,35.636544)"><path
         d="M 540.79999,399.20001 573.28003,401.28"
         style="fill:#5e5e5e;fill-opacity:1;stroke:#5e5e5e;stroke-width:4.08172;stroke-linecap:round;stroke-linejoin:round;stroke-miterlimit:4;stroke-dasharray:none;stroke-opacity:1"
         id="path17850" /></g><g
       id="g17852"
       style="fill:#5e5e5e;fill-opacity:1;stroke:#5e5e5e;stroke-width:4.08172;stroke-miterlimit:4;stroke-dasharray:none;stroke-opacity:1"
       transform="matrix(0.11409816,0,0,0.11409816,41.306205,35.636544)"><path
         d="m 573.28003,401.28 32.63995,3.51999"
         style="fill:#5e5e5e;fill-opacity:1;stroke:#5e5e5e;stroke-width:4.08172;stroke-linecap:round;stroke-linejoin:round;stroke-miterlimit:4;stroke-dasharray:none;stroke-opacity:1"
         id="path17854" /></g><g
       id="g17856"
       style="fill:#5e5e5e;fill-opacity:1;stroke:#5e5e5e;stroke-width:4.08172;stroke-miterlimit:4;stroke-dasharray:none;stroke-opacity:1"
       transform="matrix(0.11409816,0,0,0.11409816,41.306205,35.636544)"><path
         d="M 605.91998,404.79999 638.23999,409.44"
         style="fill:#5e5e5e;fill-opacity:1;stroke:#5e5e5e;stroke-width:4.08172;stroke-linecap:round;stroke-linejoin:round;stroke-miterlimit:4;stroke-dasharray:none;stroke-opacity:1"
         id="path17858" /></g><g
       id="g17860"
       style="fill:#5e5e5e;fill-opacity:1;stroke:#5e5e5e;stroke-width:4.08172;stroke-miterlimit:4;stroke-dasharray:none;stroke-opacity:1"
       transform="matrix(0.11409816,0,0,0.11409816,41.306205,35.636544)"><path
         d="M 638.23999,672.15997 V 409.44"
         style="fill:#5e5e5e;fill-opacity:1;stroke:#5e5e5e;stroke-width:4.08172;stroke-linecap:round;stroke-linejoin:round;stroke-miterlimit:4;stroke-dasharray:none;stroke-opacity:1"
         id="path17862" /></g><g
       id="g17864"
       style="fill:#5e5e5e;fill-opacity:1;stroke:#5e5e5e;stroke-width:4.08172;stroke-miterlimit:4;stroke-dasharray:none;stroke-opacity:1"
       transform="matrix(0.11409816,0,0,0.11409816,41.306205,35.636544)"><path
         d="m 906.23999,696.15997 h -244"
         style="fill:#5e5e5e;fill-opacity:1;stroke:#5e5e5e;stroke-width:4.08172;stroke-linecap:round;stroke-linejoin:round;stroke-miterlimit:4;stroke-dasharray:none;stroke-opacity:1"
         id="path17866" /></g><g
       id="g17868"
       style="fill:#5e5e5e;fill-opacity:1;stroke:#5e5e5e;stroke-width:4.08172;stroke-miterlimit:4;stroke-dasharray:none;stroke-opacity:1"
       transform="matrix(0.11409816,0,0,0.11409816,41.306205,35.636544)"><path
         d="m 662.23999,696.15997 c 0,0 0,0 0,0 -13.25,0 -24,-10.75 -24,-24"
         style="fill:#5e5e5e;fill-opacity:1;stroke:#5e5e5e;stroke-width:4.08172;stroke-linecap:round;stroke-linejoin:round;stroke-miterlimit:4;stroke-dasharray:none;stroke-opacity:1"
         id="path17870" /></g><g
       id="g17872"
       style="fill:#5e5e5e;fill-opacity:1;stroke:#5e5e5e;stroke-width:4.08172;stroke-miterlimit:4;stroke-dasharray:none;stroke-opacity:1"
       transform="matrix(0.11409816,0,0,0.11409816,41.306205,35.636544)"><path
         d="M 930.40002,146.08 V 672.15997"
         style="fill:#5e5e5e;fill-opacity:1;stroke:#5e5e5e;stroke-width:4.08172;stroke-linecap:round;stroke-linejoin:round;stroke-miterlimit:4;stroke-dasharray:none;stroke-opacity:1"
         id="path17874" /></g><g
       id="g17876"
       style="fill:#5e5e5e;fill-opacity:1;stroke:#5e5e5e;stroke-width:4.08172;stroke-miterlimit:4;stroke-dasharray:none;stroke-opacity:1"
       transform="matrix(0.11409816,0,0,0.11409816,41.306205,35.636544)"><path
         d="M 930.56,672.15997 C 930.52,685.34003 919.78003,696 906.56,696 c -0.39002,0 -0.45001,0 -0.15998,0"
         style="fill:#5e5e5e;fill-opacity:1;stroke:#5e5e5e;stroke-width:4.08172;stroke-linecap:round;stroke-linejoin:round;stroke-miterlimit:4;stroke-dasharray:none;stroke-opacity:1"
         id="path17878" /></g><g
       id="g17880"
       style="fill:#5e5e5e;fill-opacity:1;stroke:#5e5e5e;stroke-width:4.08172;stroke-miterlimit:4;stroke-dasharray:none;stroke-opacity:1"
       transform="matrix(0.11409816,0,0,0.11409816,41.306205,35.636544)"><path
         d="m 631.20001,65.760002 c 0,0 0,0 0,0 0,-13.220001 10.72998,-23.960003 24,-24.000004"
         style="fill:#5e5e5e;fill-opacity:1;stroke:#5e5e5e;stroke-width:4.08172;stroke-linecap:round;stroke-linejoin:round;stroke-miterlimit:4;stroke-dasharray:none;stroke-opacity:1"
         id="path17882" /></g><g
       id="g17884"
       style="fill:#5e5e5e;fill-opacity:1;stroke:#5e5e5e;stroke-width:4.08172;stroke-miterlimit:4;stroke-dasharray:none;stroke-opacity:1"
       transform="matrix(0.11409816,0,0,0.11409816,41.306205,35.636544)"><path
         d="M 631.20001,65.760002 V 95.68"
         style="fill:#5e5e5e;fill-opacity:1;stroke:#5e5e5e;stroke-width:4.08172;stroke-linecap:round;stroke-linejoin:round;stroke-miterlimit:4;stroke-dasharray:none;stroke-opacity:1"
         id="path17886" /></g><g
       id="g17888"
       style="fill:#5e5e5e;fill-opacity:1;stroke:#5e5e5e;stroke-width:4.08172;stroke-miterlimit:4;stroke-dasharray:none;stroke-opacity:1"
       transform="matrix(0.11409816,0,0,0.11409816,41.306205,35.636544)"><path
         d="m 655.20001,119.68 c 0,0 0,0 0,0 -13.25,0 -24,-10.75 -24,-24"
         style="fill:#5e5e5e;fill-opacity:1;stroke:#5e5e5e;stroke-width:4.08172;stroke-linecap:round;stroke-linejoin:round;stroke-miterlimit:4;stroke-dasharray:none;stroke-opacity:1"
         id="path17890" /></g><g
       id="g17892"
       style="fill:#5e5e5e;fill-opacity:1;stroke:#5e5e5e;stroke-width:4.08172;stroke-miterlimit:4;stroke-dasharray:none;stroke-opacity:1"
       transform="matrix(0.11409816,0,0,0.11409816,41.306205,35.636544)"><path
         d="M 631.67999,119.68 H 906.56"
         style="fill:#5e5e5e;fill-opacity:1;stroke:#5e5e5e;stroke-width:4.08172;stroke-linecap:round;stroke-linejoin:round;stroke-miterlimit:4;stroke-dasharray:none;stroke-opacity:1"
         id="path17894" /></g><g
       id="g17896"
       style="fill:#5e5e5e;fill-opacity:1;stroke:#5e5e5e;stroke-width:4.08172;stroke-miterlimit:4;stroke-dasharray:none;stroke-opacity:1"
       transform="matrix(0.11409816,0,0,0.11409816,41.306205,35.636544)"><path
         d="m 906.56,119.68 c 13.25,0 24,10.74999 24,23.99999 0,0.80001 -0.04,1.60001 -0.12,2.39002"
         style="fill:#5e5e5e;fill-opacity:1;stroke:#5e5e5e;stroke-width:4.08172;stroke-linecap:round;stroke-linejoin:round;stroke-miterlimit:4;stroke-dasharray:none;stroke-opacity:1"
         id="path17898" /></g><g
       id="g17900"
       style="fill:#5e5e5e;fill-opacity:1;stroke:#5e5e5e;stroke-width:4.08172;stroke-miterlimit:4;stroke-dasharray:none;stroke-opacity:1"
       transform="matrix(0.11409816,0,0,0.11409816,41.306205,35.636544)"><path
         d="m 631.67999,119.68 -4.47998,32.16"
         style="fill:#5e5e5e;fill-opacity:1;stroke:#5e5e5e;stroke-width:4.08172;stroke-linecap:round;stroke-linejoin:round;stroke-miterlimit:4;stroke-dasharray:none;stroke-opacity:1"
         id="path17902" /></g><g
       id="g17904"
       style="fill:#5e5e5e;fill-opacity:1;stroke:#5e5e5e;stroke-width:4.08172;stroke-miterlimit:4;stroke-dasharray:none;stroke-opacity:1"
       transform="matrix(0.11409816,0,0,0.11409816,41.306205,35.636544)"><path
         d="M 627.20001,151.84 624.15997,184"
         style="fill:#5e5e5e;fill-opacity:1;stroke:#5e5e5e;stroke-width:4.08172;stroke-linecap:round;stroke-linejoin:round;stroke-miterlimit:4;stroke-dasharray:none;stroke-opacity:1"
         id="path17906" /></g><g
       id="g17908"
       style="fill:#5e5e5e;fill-opacity:1;stroke:#5e5e5e;stroke-width:4.08172;stroke-miterlimit:4;stroke-dasharray:none;stroke-opacity:1"
       transform="matrix(0.11409816,0,0,0.11409816,41.306205,35.636544)"><path
         d="m 624.15997,184 -1.91998,32.32001"
         style="fill:#5e5e5e;fill-opacity:1;stroke:#5e5e5e;stroke-width:4.08172;stroke-linecap:round;stroke-linejoin:round;stroke-miterlimit:4;stroke-dasharray:none;stroke-opacity:1"
         id="path17910" /></g><g
       id="g17912"
       style="fill:#5e5e5e;fill-opacity:1;stroke:#5e5e5e;stroke-width:4.08172;stroke-miterlimit:4;stroke-dasharray:none;stroke-opacity:1"
       transform="matrix(0.11409816,0,0,0.11409816,41.306205,35.636544)"><path
         d="M 622.23999,216.32001 621.76001,248.64"
         style="fill:#5e5e5e;fill-opacity:1;stroke:#5e5e5e;stroke-width:4.08172;stroke-linecap:round;stroke-linejoin:round;stroke-miterlimit:4;stroke-dasharray:none;stroke-opacity:1"
         id="path17914" /></g><g
       id="g17916"
       style="fill:#5e5e5e;fill-opacity:1;stroke:#5e5e5e;stroke-width:4.08172;stroke-miterlimit:4;stroke-dasharray:none;stroke-opacity:1"
       transform="matrix(0.11409816,0,0,0.11409816,41.306205,35.636544)"><path
         d="m 621.76001,248.64 0.64001,32.48"
         style="fill:#5e5e5e;fill-opacity:1;stroke:#5e5e5e;stroke-width:4.08172;stroke-linecap:round;stroke-linejoin:round;stroke-miterlimit:4;stroke-dasharray:none;stroke-opacity:1"
         id="path17918" /></g><g
       id="g17920"
       style="fill:#5e5e5e;fill-opacity:1;stroke:#5e5e5e;stroke-width:4.08172;stroke-miterlimit:4;stroke-dasharray:none;stroke-opacity:1"
       transform="matrix(0.11409816,0,0,0.11409816,41.306205,35.636544)"><path
         d="m 622.40002,281.12 2.07996,32.32"
         style="fill:#5e5e5e;fill-opacity:1;stroke:#5e5e5e;stroke-width:4.08172;stroke-linecap:round;stroke-linejoin:round;stroke-miterlimit:4;stroke-dasharray:none;stroke-opacity:1"
         id="path17922" /></g><g
       id="g17924"
       style="fill:#5e5e5e;fill-opacity:1;stroke:#5e5e5e;stroke-width:4.08172;stroke-miterlimit:4;stroke-dasharray:none;stroke-opacity:1"
       transform="matrix(0.11409816,0,0,0.11409816,41.306205,35.636544)"><path
         d="m 624.47998,313.44 3.20001,32.16001"
         style="fill:#5e5e5e;fill-opacity:1;stroke:#5e5e5e;stroke-width:4.08172;stroke-linecap:round;stroke-linejoin:round;stroke-miterlimit:4;stroke-dasharray:none;stroke-opacity:1"
         id="path17926" /></g><g
       id="g17928"
       style="fill:#5e5e5e;fill-opacity:1;stroke:#5e5e5e;stroke-width:4.08172;stroke-miterlimit:4;stroke-dasharray:none;stroke-opacity:1"
       transform="matrix(0.11409816,0,0,0.11409816,41.306205,35.636544)"><path
         d="m 627.67999,345.60001 4.64002,32"
         style="fill:#5e5e5e;fill-opacity:1;stroke:#5e5e5e;stroke-width:4.08172;stroke-linecap:round;stroke-linejoin:round;stroke-miterlimit:4;stroke-dasharray:none;stroke-opacity:1"
         id="path17930" /></g><g
       id="g17932"
       style="fill:#5e5e5e;fill-opacity:1;stroke:#5e5e5e;stroke-width:4.08172;stroke-miterlimit:4;stroke-dasharray:none;stroke-opacity:1"
       transform="matrix(0.11409816,0,0,0.11409816,41.306205,35.636544)"><path
         d="M 632.32001,377.60001 638.08002,409.44"
         style="fill:#5e5e5e;fill-opacity:1;stroke:#5e5e5e;stroke-width:4.08172;stroke-linecap:round;stroke-linejoin:round;stroke-miterlimit:4;stroke-dasharray:none;stroke-opacity:1"
         id="path17934" /></g><g
       id="g17936"
       style="fill:#5e5e5e;fill-opacity:1;stroke:#5e5e5e;stroke-width:4.08172;stroke-miterlimit:4;stroke-dasharray:none;stroke-opacity:1"
       transform="matrix(0.11409816,0,0,0.11409816,41.306205,35.636544)"><path
         d="M 638.23999,409.44 H 930.40002"
         style="fill:#5e5e5e;fill-opacity:1;stroke:#5e5e5e;stroke-width:4.08172;stroke-linecap:round;stroke-linejoin:round;stroke-miterlimit:4;stroke-dasharray:none;stroke-opacity:1"
         id="path17938" /></g><path
       style="font-variation-settings:normal;opacity:1;vector-effect:none;fill:#ffffff;fill-opacity:1;stroke:none;stroke-width:0.00961908;stroke-linecap:butt;stroke-linejoin:miter;stroke-miterlimit:4;stroke-dasharray:none;stroke-dashoffset:0;stroke-opacity:1;-inkscape-stroke:none;stop-color:#000000;stop-opacity:1"
       d="M 10.566255,73.5317 9.4153847,72.377823 V 57.314864 42.251905 l 1.2504803,-0.167228 c 8.499492,-1.136642 17.296159,-1.130179 25.622597,0.01882 l 1.225961,0.169176 0.02493,15.103084 0.02493,15.103086 -1.148043,1.103365 -1.148042,1.103365 H 23.492663 11.717126 Z"
       id="path39792"
       transform="translate(46.550032,40.150169)" /><path
       style="font-variation-settings:normal;opacity:1;vector-effect:none;fill:#ffffff;fill-opacity:1;stroke:none;stroke-width:0.00961908;stroke-linecap:butt;stroke-linejoin:miter;stroke-miterlimit:4;stroke-dasharray:none;stroke-dashoffset:0;stroke-opacity:1;-inkscape-stroke:none;stop-color:#000000;stop-opacity:1"
       d="M 1.6412553,82.358623 0.49038462,81.204746 V 62.864235 44.523724 l 1.10489998,-1.101766 1.1049,-1.101765 H 4.6617883 6.623392 l 1.1001714,1.103365 1.1001715,1.103365 0.026113,14.172116 0.026113,14.172115 0.2335992,0.516876 c 0.3087479,0.683155 1.0960439,1.402363 1.7752529,1.621724 0.472322,0.152543 1.508289,0.166208 12.600284,0.166208 10.134821,0 12.160049,-0.02239 12.546561,-0.138714 0.550625,-0.165714 1.205997,-0.648313 1.572141,-1.157685 l 0.266084,-0.370172 0.315917,0.416458 c 0.373237,0.492022 1.108987,1.010818 1.634039,1.1522 0.249886,0.06729 4.453959,0.09224 12.618315,0.07489 l 12.243576,-0.02602 0.455976,-0.210784 c 0.95979,-0.44368 1.665734,-1.459134 1.689529,-2.430276 0.01069,-0.436308 -0.01329,-0.501037 -0.19521,-0.527002 -0.159006,-0.02269 -0.220367,0.03452 -0.262985,0.245193 -0.03644,0.180138 -0.441222,0.654851 -1.175139,1.378158 L 64.07435,74.685573 H 52.264008 40.453665 L 39.302794,73.5317 38.151923,72.377823 V 57.299969 c 0,-12.67608 0.02133,-15.077853 0.133906,-15.077853 0.07365,0 0.780188,-0.08752 1.570089,-0.194482 4.441556,-0.601455 8.523797,-0.828938 13.582638,-0.756894 4.752312,0.06768 7.712133,0.290688 12.045885,0.907609 0.926972,0.131956 1.709683,0.23992 1.739358,0.23992 0.02967,0 0.06567,6.8519 0.07998,15.226443 l 0.02603,15.226442 0.209623,0.453351 c 0.287436,0.621638 0.857967,1.2271 1.451461,1.540326 L 69.4875,75.126923 H 84.15 c 14.217098,0 14.67731,-0.0057 15.150119,-0.188055 0.640629,-0.247062 1.347021,-0.919477 1.635001,-1.556364 l 0.23123,-0.51135 0.0254,-21.895673 0.0254,-21.895673 h 3.28473 3.28472 v 26.952805 26.952804 l -0.27508,0.263542 -0.27507,0.263541 H 55.014254 2.792126 Z"
       id="path39831"
       transform="translate(46.550032,40.150169)" /><path
       style="font-variation-settings:normal;opacity:1;vector-effect:none;fill:#ffffff;fill-opacity:1;stroke:none;stroke-width:0.00961908;stroke-linecap:butt;stroke-linejoin:miter;stroke-miterlimit:4;stroke-dasharray:none;stroke-dashoffset:0;stroke-opacity:1;-inkscape-stroke:none;stop-color:#000000;stop-opacity:1"
       d="M 1.6903552,82.309642 0.49038462,81.106783 V 62.864359 44.621934 l 1.15387698,-1.150871 1.1538769,-1.15087 h 1.8635883 1.8635883 l 1.1262848,1.12946 1.1262848,1.129461 0.028561,14.181777 0.028561,14.181776 0.2444997,0.482497 c 0.2970065,0.586115 0.8688334,1.174614 1.4351736,1.477017 l 0.420896,0.224742 h 12.553846 12.553846 l 0.526414,-0.291563 c 0.289528,-0.160359 0.709491,-0.500848 0.933254,-0.756642 l 0.406839,-0.465079 0.194632,0.296915 c 0.107047,0.163303 0.399506,0.448884 0.649908,0.634626 0.915839,0.679345 -0.128882,0.630782 13.569834,0.630782 H 64.73729 l 0.473157,-0.239768 c 0.959444,-0.486187 1.745962,-1.728065 1.660267,-2.621493 -0.02415,-0.251808 -0.0816,-0.333385 -0.251807,-0.357559 -0.165327,-0.02348 -0.246443,0.03687 -0.324116,0.241171 -0.05698,0.149871 -0.595259,0.770815 -1.196174,1.379878 l -1.092574,1.107386 H 52.278954 40.551865 l -1.199972,-1.202858 -1.19997,-1.202859 0.01388,-7.550507 c 0.0076,-4.152779 0.04073,-10.904412 0.07356,-15.00363 l 0.05968,-7.453123 0.93173,-0.117924 c 5.433672,-0.687711 6.752071,-0.76628 12.848077,-0.765669 6.366147,5.89e-4 7.712449,0.08286 13.1019,0.800182 l 1.97017,0.262225 0.06484,5.794485 c 0.03566,3.186968 0.06488,10.044201 0.06493,15.238297 l 9.1e-5,9.443811 0.210305,0.41292 c 0.340483,0.668517 0.657728,1.024401 1.288897,1.445879 l 0.594292,0.396853 14.817196,-0.02837 14.817194,-0.02837 0.45598,-0.210784 c 0.579865,-0.268056 1.183875,-0.870756 1.502205,-1.498951 L 101.2154,72.92671 V 51.458295 c 0,-11.807629 0.0281,-21.673183 0.0624,-21.923452 l 0.0624,-0.455035 h 3.22321 3.22321 V 55.982684 82.88556 l -0.32342,0.31347 -0.32342,0.31347 H 55.015014 2.8903258 Z"
       id="path39870"
       transform="translate(46.550032,40.150169)" /><path
       style="font-variation-settings:normal;opacity:1;vector-effect:none;fill:#ffffff;fill-opacity:1;stroke:none;stroke-width:0.00961908;stroke-linecap:butt;stroke-linejoin:miter;stroke-miterlimit:4;stroke-dasharray:none;stroke-dashoffset:0;stroke-opacity:1;-inkscape-stroke:none;stop-color:#000000;stop-opacity:1"
       d="M 69.020102,73.5317 67.869231,72.377823 V 57.447085 42.516346 h 16.378846 16.378843 v 14.941688 14.941689 l -1.082906,1.069369 c -0.595599,0.588154 -1.180383,1.098071 -1.299519,1.133151 -0.119135,0.03508 -6.484415,0.06818 -14.145066,0.07356 l -13.928456,0.0098 z"
       id="path39909"
       transform="translate(46.550032,40.150169)" /><path
       style="font-variation-settings:normal;opacity:1;vector-effect:none;fill:#ffffff;fill-opacity:1;stroke:none;stroke-width:0.0384763;stroke-linecap:butt;stroke-linejoin:miter;stroke-miterlimit:4;stroke-dasharray:none;stroke-dashoffset:0;stroke-opacity:1;-inkscape-stroke:none;stop-color:#000000;stop-opacity:1"
       d="m 67.869231,41.638162 c 0,-0.07843 -0.170822,-1.043348 -0.379604,-2.144252 -1.267027,-6.681006 -1.678642,-19.624827 -0.82551,-25.959295 0.21795,-1.618269 0.401724,-3.16298 0.408386,-3.432692 0.0095,-0.3838933 3.403893,-0.4903845 15.631023,-0.4903845 h 15.618911 l 1.054166,1.1003125 1.054167,1.100313 V 26.796467 41.780769 H 84.15 c -8.954423,0 -16.280769,-0.06417 -16.280769,-0.142607 z"
       id="path39948"
       transform="translate(46.550032,40.150169)" /><path
       style="font-variation-settings:normal;opacity:1;vector-effect:none;fill:#ffffff;fill-opacity:1;stroke:none;stroke-width:0.0384763;stroke-linecap:butt;stroke-linejoin:miter;stroke-miterlimit:4;stroke-dasharray:none;stroke-dashoffset:0;stroke-opacity:1;-inkscape-stroke:none;stop-color:#000000;stop-opacity:1"
       d="M 107.88462,55.768496 V 28.834616 H 104.55 101.21539 V 19.643858 10.453101 L 100.18171,9.6400122 C 99.177092,8.8497797 98.728299,8.8269231 84.216638,8.8269231 H 69.285241 L 68.184928,7.7727566 C 67.259596,6.8862319 67.084616,6.3988013 67.084616,4.7076923 c 0,-1.6911091 0.17498,-2.1785394 1.100312,-3.0650642 l 1.100313,-1.05416656 h 18.98399 18.983989 l 1.10031,1.05416656 1.10032,1.0541665 V 41.989516 c 0,38.794496 -0.01,39.30173 -0.78462,40.002792 -0.78389,0.709414 -0.78461,0.685216 -0.78461,-26.223812 z"
       id="path39987"
       transform="translate(46.550032,40.150169)" /></g></svg>
