<?xml version="1.0" encoding="UTF-8" standalone="no"?>
<!-- Created with Inkscape (http://www.inkscape.org/) -->

<svg
   version="1.1"
   id="svg4483"
   xml:space="preserve"
   width="110.60897"
   height="42.430935"
   viewBox="0 0 110.60897 42.430935"
   sodipodi:docname="2D_cabide03.svg"
   inkscape:version="1.1 (c68e22c387, 2021-05-23)"
   xmlns:inkscape="http://www.inkscape.org/namespaces/inkscape"
   xmlns:sodipodi="http://sodipodi.sourceforge.net/DTD/sodipodi-0.dtd"
   xmlns="http://www.w3.org/2000/svg"
   xmlns:svg="http://www.w3.org/2000/svg"><defs
     id="defs4487"><clipPath
       clipPathUnits="userSpaceOnUse"
       id="clipPath4497"><path
         d="m 192.48,225.92 -0.96,0.16 -0.8,0.16 -1.92,0.32 -0.8,0.16 -0.96001,0.16 -0.79999,0.15999 -1.91999,0.32001 -0.80001,0.16 -0.96,0.15999 -0.80001,0.16001 -1.91999,0.32 -0.80001,0.16001 -0.95999,0.15999 -0.8,0.16 -1.92,0.32001 -0.8,0.15998 -0.95999,0.16001 -0.80001,0.16 -1.92,0.31999 -0.8,0.16001 -0.96001,0.16 -0.79998,0.16 -1.92002,0.32 0.16001,0.16 v 0.8 h 0.16 v 0.96 h 0.16 v 0.8 h 0.15999 v 0.96 H 167.2 v 0.96 h 0.16 v 0.8 h 0.16 v 0.96001 h 0.15999 V 237.92 H 167.84 v 0.8 H 168 v 0.95999 h 0.16 V 240.64 h 0.16001 v 0.8 H 168.48 v 0.95999 h 0.16 V 243.36 h 0.16 v 0.8 h 0.16001 v 0.95999 h 0.15998 V 246.08 H 169.28 v 0.8 h 0.16 v 0.96 h 0.16001 v 0.96 h 0.15998 v 0.80001 H 169.92 V 250.56 h 0.16 v 0.96 h 0.16 v 0.80001 h 0.15999 V 253.28 H 170.56 v 0.96 h 0.16 v 0.79999 h 0.16 V 256 h 0.15999 v 0.95999 H 171.2 v 0.80002 h 0.16 V 258.72 h 0.16 v 0.95999 h 0.15999 v 0.80002 H 171.84 V 261.44 H 172 v 0.95999 h 0.16 v 0.80002 h 0.16001 V 264.16 H 172.48 v 0.96 h 0.16 v 0.80001 h 0.16 V 266.88 h 0.16001 v 0.96 h 0.15998 v 0.80001 H 173.28 v 0.96 h 0.16 V 270.56 h 0.16001 v 0.79999 h 0.15998 v 0.96002 H 173.92 V 273.28 h 0.16 v 0.79999 h 0.16 v 0.96002 h 0.15999 V 276 H 174.56 v 0.79999 h 0.16 v 0.96002 h 0.16 V 278.72 h 0.15999 v 0.79999 H 175.2 v 0.96002 h 0.16 V 281.44 h 0.16 v 0.79999 h 0.15999 v 0.96002 H 175.84 V 284 H 176 v 0.95999 h 0.16 v 0.96002 h 0.16001 V 286.72 H 176.48 v 0.95999 h 0.16 v 0.96002 h 0.16 V 289.44 h 0.16001 v 0.95999 h 0.15998 v 0.96 H 177.28 V 292.16 h 0.16 v 0.96 h 0.16001 v 0.95999 h 0.15998 V 294.88 H 177.92 v 0.96 h 0.16 v 0.95999 h 0.16 v 0.80002 h 0.15999 V 298.56 H 178.56 v 0.95999 h 0.16 v 0.80002 h 0.16 V 301.28 h 0.15999 v 0.95999 H 179.2 v 0.80002 h 0.16 V 304 h 0.16 v 0.95999 h 0.15999 v 0.80002 H 179.84 V 306.72 H 180 v 0.95999 h 0.16 v 0.80002 h 0.16001 V 309.44 H 180.48 v 0.95999 h 0.16 v 0.80002 h 0.16 V 312.16 h 0.16001 v 0.96 h 0.15998 v 0.80001 H 181.28 V 314.88 h 0.16 v 0.96 h 0.16001 v 0.80001 h 0.15998 v 0.96 H 181.92 V 318.56 h 0.16 v 0.79999 h 0.16 v 0.96002 h 0.15999 V 321.28 H 182.56 v 0.79999 h 0.16 v 0.96002 h 0.16 V 324 h 0.15999 v 0.79999 H 183.2 v 0.96002 h 0.16 V 326.72 h 0.16 v 0.79999 h 0.15999 v 0.96002 H 183.84 V 329.44 H 184 v 0.79999 h 0.16 v 0.96002 h 0.16001 V 332.16 H 184.48 v 0.79999 h 0.16 v 0.96002 h 0.16 V 334.72 h 0.16001 v 0.95999 h 0.15998 v 0.96002 H 185.28 V 337.44 h 0.16 v 0.95999 h 0.16001 v 0.96 h 0.15998 V 340.16 H 185.92 v 0.96 h 0.16 v 0.95999 h 0.16 V 342.88 h 0.15999 v 0.96 H 186.56 v 0.95999 h 0.16 v 0.80002 h 0.16 V 346.56 h 0.15999 v 0.95999 H 187.2 v 0.80002 h 0.16 V 349.28 h 0.16 v 0.95999 h 0.15999 v 0.80002 H 187.84 V 352 H 188 v 0.95999 h 0.16 v 0.80002 h 0.16001 V 354.72 H 188.48 v 0.95999 h 0.16 v 0.80002 h 0.16 V 357.44 h 0.16001 v 0.95999 h 0.15998 v 0.80002 H 189.28 V 360.16 h 0.16 v 0.96 h 0.16001 v 0.80001 h 0.15998 V 362.88 H 189.92 v 0.96 h 0.16 v 0.80001 h 0.16 v 0.96 h 0.15999 V 366.56 H 190.56 v 0.79999 h 0.16 v 0.96002 h 0.16 V 369.28 h 0.15999 v 0.79999 H 191.2 v 0.96002 h 0.16 V 372 h 0.16 v 0.79999 h 0.15999 v 0.96002 H 191.84 V 374.72 H 192 v 0.79999 h 0.16 v 0.96002 h 0.16001 V 377.44 H 192.48 v 0.79999 h 0.16 v 0.96002 h 0.16 V 380.16 h 0.16001 v 0.79999 h 0.15998 v 0.96002 H 193.28 V 382.88 h 0.16 v 0.79999 h 0.16001 v 0.96002 h 0.15998 V 385.44 H 193.92 v 0.95999 h 0.16 v 0.96 h 0.16 V 388.16 h 0.15999 v 0.96 H 194.56 v 0.95999 h 0.16 V 390.88 h 0.16 v 0.96 h 0.15999 v 0.95999 H 195.2 v 0.80002 h 0.16 V 394.56 h 0.16 v 0.95999 h 0.15999 v 0.80002 H 195.84 V 397.28 H 196 v 0.95999 h 0.16 v 0.80002 h 0.16001 V 400 H 196.48 v 0.95999 h 0.16 v 0.80002 h 0.16 V 402.72 h 0.16001 v 0.95999 h 0.15998 v 0.80002 H 197.28 V 405.44 h 0.16 v 0.95999 h 0.16001 v 0.80002 h 0.15998 V 408.16 H 197.92 v 0.96 h 0.16 v 0.80001 h 0.16 V 410.88 h 0.15999 v 0.96 H 198.56 v 0.80001 h 0.16 v 0.96 h 0.16 V 414.56 h 0.15999 v 0.79999 H 199.2 v 0.96002 h 0.16 V 417.28 h 0.16 v 0.79999 h 0.15999 v 0.96002 H 199.84 V 420 H 200 v 0.79999 h 0.16 v 0.96002 h 0.16001 V 422.72 H 200.48 v 0.79999 h 0.16 v 0.96002 h 0.16 V 425.44 h 0.16001 v 0.79999 h 0.15998 v 0.96002 H 201.28 V 428.16 h 0.16 v 0.79999 h 0.16001 v 0.96002 h 0.15998 V 430.88 H 201.92 v 0.79999 h 0.16 v 0.96002 h 0.16 v 0.96 h 0.15999 v 0.79998 H 202.56 v 0.96 h 0.16 V 436.16 h 0.16 v 0.96 h 0.15999 v 0.95999 H 203.2 V 438.88 h 0.16 v 0.96 h 0.16 v 0.95999 h 0.15999 v 0.80002 H 203.84 V 442.56 H 204 v 0.95999 h 0.16 v 0.80002 h 0.16001 V 445.28 H 204.48 v 0.95999 h 0.16 v 0.80002 h 0.16 V 448 h 0.16001 v 0.95999 h 0.15998 v 0.80002 H 205.28 V 450.72 h 0.16 v 0.95999 h 0.16001 v 0.80002 h 0.15998 V 453.44 H 205.92 v 0.95999 h 0.16 v 0.80002 h 0.16 V 456.16 h 0.15999 v 0.96 H 206.56 v 0.80001 h 0.16 V 458.88 h 0.16 v 0.96 h 0.15999 v 0.80001 H 207.2 v 0.96 h 0.16 V 462.56 h 0.16 v 0.79999 h 0.15999 v 0.96002 H 207.84 V 465.28 H 208 v 0.79999 h 0.16 v 0.96002 h 0.16001 V 468 H 208.48 v 0.79999 h 0.16 v 0.96002 h 0.16 V 470.72 h 0.16001 v 0.79999 h 0.15998 v 0.96002 H 209.28 V 473.44 h 0.16 v 0.79999 h 0.16001 v 0.96002 h 0.15998 V 476.16 H 209.92 v 0.79999 h 0.16 v 0.96002 h 0.16 V 478.88 h 0.15999 v 0.79999 H 210.56 v 0.96002 h 0.16 v 0.96 h 0.16 v 0.79998 h 0.15999 v 0.96 H 211.2 v 0.96002 h 0.16 V 485.12 h 0.16 v 0.95999 h 0.15999 V 486.88 H 211.84 v 0.96 H 212 v 0.95999 h 0.16 v 0.80002 h 0.16001 V 490.56 H 212.48 v 0.95999 h 0.16 v 0.80002 h 0.16 V 493.28 h 0.16001 v 0.95999 h 0.15998 v 0.80002 H 213.28 V 496 h 0.16 v 0.95999 h 0.16001 v 0.80002 h 0.15998 V 498.72 H 213.92 v 0.95999 h 0.16 v 0.80002 h 0.16 V 501.44 h 0.15999 v 0.95999 H 214.56 v 0.80002 h 0.16 V 504.16 h 0.16 v 0.96 h 0.15999 v 0.80001 H 215.2 V 506.88 h 0.16 v 0.96 h 0.16 v 0.80001 h 0.15999 v 0.96 H 215.84 V 510.56 H 216 v 0.79999 h 0.16 v 0.96002 h 0.16001 v 0.96002 H 216.48 v 0.79999 h 0.16 v 0.95996 h 0.16 V 516 h 0.16001 v 0.79999 h 0.15998 v 0.96002 H 217.28 v 0.95996 h 0.16 v 0.80005 h 0.16001 v 0.95996 h 0.15998 V 521.44 H 217.92 v 0.79999 h 0.16 v 0.96002 h 0.16 v 0.95996 h 0.15999 v 0.80005 H 218.56 v 0.95996 h 0.16 V 526.88 h 0.16 v 0.79999 h 0.15999 v 0.96002 H 219.2 v 0.95997 h 0.16 v 0.80004 h 0.16 v 0.95996 h 0.15999 v 0.96003 H 219.84 V 533.12 H 220 v 0.96002 h 0.16 v 0.95996 h 0.16001 v 0.80005 H 220.48 v 0.95996 h 0.16 v 0.79999 h 0.16 V 538.56 h 0.16001 v 0.96002 h 0.15998 v 0.79999 H 221.28 v 0.96002 h 0.16 v 0.95996 h 0.16001 v 0.79999 h 0.15998 V 544 H 221.92 v 0.96002 h 0.16 v 0.79999 h 0.16 v 0.95996 h 0.15999 v 0.96002 H 222.56 v 0.79999 h 0.16 V 549.44 h 0.16 v 0.96002 h 0.15999 v 0.79999 H 223.2 v 0.95996 h 0.16 V 553.12 h 0.16 v 0.79998 h 0.15999 V 554.88 H 223.84 v 0.96003 H 224 v 0.79998 h 0.16 v 0.95997 h 0.16001 V 558.56 H 224.48 v 0.79998 h 0.16 v 0.96003 h 0.16 v 0.96002 h 0.16001 v 0.79999 h 0.15998 v 0.95996 H 225.28 V 564 h 0.16 v 0.79999 h 0.16001 v 0.96002 h 0.15998 v 0.95996 H 225.92 v 0.80005 h 0.16 v 0.95996 h 0.16 V 569.44 h 0.15999 v 0.79999 H 226.56 v 0.96002 h 0.16 v 0.95996 h 0.16 v 0.80005 h 0.15999 v 0.95996 H 227.2 V 574.88 h 0.16 v 0.79999 h 0.16 v 0.96002 h 0.15999 v 0.95997 H 227.84 v 0.80004 H 228 v 0.95996 h 0.16 v 0.96003 h 0.16001 V 581.12 H 228.48 v 0.96002 h 0.16 v 0.95996 h 0.16 v 0.80005 h 0.16001 v 0.95996 h 0.15998 v 0.96002 H 229.28 V 586.56 h 0.16 v 0.96002 h 0.16001 v 0.79999 l 3.83999,-0.64002 0.8,-0.15997 2.87999,-0.48004 0.80001,-0.15998 2.88,-0.47998 0.80001,-0.16003 2.87999,-0.47998 0.8,-0.16003 2.88,-0.47998 0.80001,-0.15998 2.87999,-0.48004 0.8,-0.15997 2.88,-0.47998 h 0.80001 V 582.88 H 256.16 v -0.96002 H 256 v -0.95996 h -0.16 v -0.80005 h -0.16001 v -0.95996 H 255.52 v -0.96002 h -0.16 V 577.44 h -0.16 v -0.96002 h -0.16001 v -0.95996 H 254.88 v -0.80005 h -0.16 v -0.95996 h -0.16 v -0.96002 h -0.16001 V 572 H 254.24 v -0.96002 h -0.16 v -0.95996 h -0.16 v -0.79999 h -0.16001 v -0.96002 h -0.15998 v -0.96003 H 253.44 V 566.56 h -0.16 v -0.96002 h -0.16001 v -0.95997 h -0.15998 v -0.79998 H 252.8 V 562.88 h -0.16 v -0.96002 h -0.16 V 561.12 h -0.15999 v -0.96003 H 252.16 v -0.95996 H 252 v -0.79999 h -0.16 V 557.44 h -0.16001 v -0.96002 H 251.52 v -0.95996 h -0.16 v -0.80005 h -0.16 v -0.95996 h -0.16001 v -0.96002 H 250.88 V 552 h -0.16 v -0.96002 h -0.16 v -0.95996 h -0.16001 v -0.79999 H 250.24 v -0.96002 h -0.16 v -0.96003 h -0.16 V 546.56 h -0.16001 v -0.96002 h -0.15998 v -0.95997 H 249.44 v -0.79998 h -0.16 V 542.88 h -0.16001 v -0.96002 h -0.15998 V 541.12 H 248.8 v -0.96003 h -0.16 v -0.95996 h -0.16 v -0.79999 h -0.15999 V 537.44 H 248.16 v -0.96002 H 248 v -0.79999 h -0.16 v -0.96002 h -0.16001 v -0.95996 H 247.52 v -0.79999 h -0.16 V 532 h -0.16 v -0.96002 h -0.16001 v -0.79999 H 246.88 v -0.95996 h -0.16 v -0.96002 h -0.16 v -0.96003 h -0.16001 V 526.56 H 246.24 v -0.96002 h -0.16 v -0.95997 h -0.16 v -0.79998 h -0.16001 V 522.88 h -0.15998 v -0.96002 H 245.44 V 521.12 h -0.16 v -0.96003 h -0.16001 v -0.95996 h -0.15998 v -0.79999 H 244.8 V 517.44 h -0.16 v -0.96002 h -0.16 v -0.79999 h -0.15999 v -0.96002 H 244.16 v -0.95996 H 244 v -0.79999 h -0.16 V 512 h -0.16001 v -0.95999 H 243.52 v -0.80002 h -0.16 V 509.28 h -0.16 v -0.95999 h -0.16001 v -0.80002 H 242.88 V 506.56 h -0.16 v -0.95999 h -0.16 v -0.80002 h -0.16001 V 503.84 H 242.24 v -0.96 h -0.16 v -0.80001 h -0.16 V 501.12 h -0.16001 v -0.96 h -0.15998 v -0.95999 H 241.44 v -0.80002 h -0.16 V 497.44 h -0.16001 v -0.95999 h -0.15998 v -0.80002 H 240.8 V 494.72 h -0.16 v -0.95999 h -0.16 v -0.80002 h -0.15999 V 492 H 240.16 v -0.95999 H 240 v -0.80002 h -0.16 V 489.28 h -0.16001 v -0.95999 H 239.52 v -0.80002 h -0.16 V 486.56 h -0.16 v -0.95999 h -0.16001 v -0.80002 H 238.88 V 483.84 h -0.16 v -0.96 h -0.16 v -0.80001 h -0.16001 V 481.12 H 238.24 v -0.96 h -0.16 v -0.80001 h -0.16 v -0.96 h -0.16001 V 477.44 h -0.15998 v -0.79999 H 237.44 v -0.96002 h -0.16 V 474.72 h -0.16001 v -0.79999 h -0.15998 v -0.96002 H 236.8 V 472 h -0.16 v -0.95999 h -0.16 v -0.80002 h -0.15999 V 469.28 H 236.16 v -0.95999 H 236 v -0.80002 h -0.16 V 466.56 h -0.16001 v -0.95999 H 235.52 v -0.80002 h -0.16 V 463.84 h -0.16 v -0.96 h -0.16001 v -0.80001 H 234.88 V 461.12 h -0.16 v -0.96 h -0.16 v -0.80001 h -0.16001 v -0.96 H 234.24 V 457.44 h -0.16 v -0.79999 h -0.16 v -0.96002 h -0.16001 V 454.72 h -0.15998 v -0.79999 H 233.44 v -0.96002 h -0.16 V 452 h -0.16001 v -0.79999 h -0.15998 v -0.96002 H 232.8 V 449.28 h -0.16 v -0.79999 h -0.16 v -0.96002 h -0.15999 V 446.56 H 232.16 v -0.95999 H 232 v -0.80002 h -0.16 V 443.84 h -0.16001 v -0.96 H 231.52 v -0.80001 h -0.16 V 441.12 h -0.16 v -0.96 h -0.16001 v -0.80001 H 230.88 v -0.96 h -0.16 V 437.44 h -0.16 v -0.79999 h -0.16001 v -0.96002 H 230.24 V 434.72 h -0.16 v -0.79999 h -0.16 v -0.96002 h -0.16001 V 432 h -0.15998 v -0.79999 H 229.44 v -0.96002 h -0.16 V 429.28 h -0.16001 v -0.79999 h -0.15998 v -0.96002 H 228.8 V 426.56 h -0.16 v -0.79999 h -0.16 v -0.96002 h -0.15999 V 423.84 H 228.16 v -0.79999 H 228 v -0.96002 h -0.16 V 421.12 h -0.16001 v -0.79999 H 227.52 v -0.96002 h -0.16 v -0.96 H 227.2 V 417.44 h -0.16001 v -0.79999 H 226.88 v -0.96002 h -0.16 V 414.72 h -0.16 v -0.79999 h -0.16001 v -0.96002 H 226.24 V 412 h -0.16 v -0.79999 h -0.16 v -0.96002 h -0.16001 V 409.28 h -0.15998 v -0.79999 H 225.44 v -0.96002 h -0.16 V 406.56 h -0.16001 v -0.79999 h -0.15998 v -0.96002 H 224.8 V 403.84 h -0.16 v -0.79999 h -0.16 v -0.96002 h -0.15999 V 401.12 H 224.16 v -0.79999 H 224 v -0.96002 h -0.16 v -0.96 h -0.16001 v -0.79998 H 223.52 v -0.96 h -0.16 v -0.96002 H 223.2 V 394.88 h -0.16001 v -0.95999 H 222.88 v -0.96002 h -0.16 V 392.16 h -0.16 v -0.95999 h -0.16001 v -0.96002 H 222.24 V 389.28 h -0.16 v -0.79999 h -0.16 v -0.96002 h -0.16001 V 386.56 h -0.15998 v -0.79999 H 221.44 v -0.96002 h -0.16 V 383.84 h -0.16001 v -0.79999 h -0.15998 v -0.96002 H 220.8 V 381.12 h -0.16 v -0.79999 h -0.16 v -0.96002 h -0.15999 v -0.96 H 220.16 v -0.79998 H 220 v -0.96 h -0.16 v -0.96002 h -0.16001 V 374.88 H 219.52 v -0.95999 h -0.16 v -0.96002 H 219.2 V 372.16 h -0.16001 v -0.95999 H 218.88 v -0.96002 h -0.16 V 369.44 h -0.16 v -0.95999 h -0.16001 v -0.96002 H 218.24 V 366.72 h -0.16 v -0.95999 h -0.16 v -0.96002 h -0.16001 V 364 h -0.15998 v -0.95999 H 217.44 v -0.96002 h -0.16 V 361.12 h -0.16001 v -0.79999 h -0.15998 v -0.96002 H 216.8 v -0.96 h -0.16 v -0.79998 h -0.16 v -0.96 h -0.15999 v -0.96002 H 216.16 V 354.88 H 216 v -0.95999 h -0.16 v -0.96002 h -0.16001 V 352.16 H 215.52 v -0.95999 h -0.16 v -0.96002 H 215.2 V 349.44 h -0.16001 v -0.95999 H 214.88 v -0.96002 h -0.16 V 346.72 h -0.16 v -0.95999 h -0.16001 v -0.96002 H 214.24 V 344 h -0.16 v -0.95999 h -0.16 v -0.96002 h -0.16001 V 341.28 h -0.15998 v -0.95999 H 213.44 v -0.96002 h -0.16 V 338.56 h -0.16001 v -0.95999 h -0.15998 v -0.96 H 212.8 v -0.96002 h -0.16 V 334.88 h -0.16 v -0.95999 h -0.15999 v -0.96002 H 212.16 V 332.16 H 212 v -0.95999 h -0.16 v -0.96002 h -0.16001 V 329.44 H 211.52 v -0.95999 h -0.16 v -0.96002 H 211.2 V 326.72 h -0.16001 v -0.95999 H 210.88 v -0.96002 h -0.16 V 324 h -0.16 v -0.95999 h -0.16001 v -0.96002 H 210.24 V 321.28 h -0.16 v -0.95999 h -0.16 v -0.96002 h -0.16001 V 318.56 h -0.15998 v -0.95999 H 209.44 v -0.96 h -0.16 V 315.84 h -0.16001 v -0.96 h -0.15998 v -0.95999 H 208.8 V 313.12 h -0.16 v -0.96 h -0.16 v -0.95999 h -0.15999 v -0.80002 H 208.16 V 309.44 H 208 v -0.95999 h -0.16 v -0.96002 h -0.16001 V 306.72 H 207.52 v -0.95999 h -0.16 v -0.96002 H 207.2 V 304 h -0.16001 v -0.95999 H 206.88 v -0.96002 h -0.16 V 301.28 h -0.16 v -0.95999 h -0.16001 v -0.96002 H 206.24 V 298.56 h -0.16 v -0.95999 h -0.16 v -0.96 h -0.16001 V 295.84 h -0.15998 v -0.96 H 205.44 v -0.95999 h -0.16 V 293.12 h -0.16001 v -0.96 h -0.15998 v -0.95999 H 204.8 v -0.80002 h -0.16 V 289.44 h -0.16 v -0.95999 h -0.15999 v -0.80002 H 204.16 V 286.72 H 204 v -0.95999 h -0.16 v -0.80002 h -0.16001 V 284 H 203.52 v -0.95999 h -0.16 v -0.80002 H 203.2 V 281.28 h -0.16001 v -0.95999 H 202.88 v -0.96002 h -0.16 V 278.56 h -0.16 v -0.95999 h -0.16001 v -0.96 H 202.24 V 275.84 h -0.16 v -0.96 h -0.16 v -0.95999 h -0.16001 V 273.12 h -0.15998 v -0.96 H 201.44 v -0.95999 h -0.16 v -0.80002 h -0.16001 V 269.44 h -0.15998 v -0.95999 H 200.8 v -0.80002 h -0.16 V 266.72 h -0.16 v -0.95999 h -0.15999 v -0.80002 H 200.16 V 264 H 200 v -0.95999 h -0.16 v -0.80002 h -0.16001 V 261.28 H 199.52 v -0.95999 h -0.16 v -0.80002 H 199.2 V 258.56 h -0.16001 v -0.95999 H 198.88 v -0.80002 h -0.16 V 255.84 h -0.16 v -0.96 h -0.16001 v -0.8 H 198.24 v -0.96001 h -0.16 V 252.16 h -0.16 v -0.96 h -0.16001 v -0.80001 h -0.15998 V 249.44 H 197.44 v -0.96 h -0.16 v -0.80001 h -0.16001 V 246.72 h -0.15998 v -0.96001 H 196.8 v -0.79998 h -0.16 V 244 h -0.16 v -0.96001 h -0.15999 V 242.24 H 196.16 v -0.96 H 196 v -0.95999 h -0.16 V 239.52 h -0.16001 v -0.96 H 195.52 v -0.95999 h -0.16 V 236.8 h -0.16 v -0.96 h -0.16001 v -0.96 H 194.88 v -0.8 h -0.16 v -0.96001 h -0.16 V 232.16 h -0.16001 v -0.8 H 194.24 v -0.96001 h -0.16 V 229.44 h -0.16 v -0.8 h -0.16001 v -0.96001 h -0.15998 V 226.72 H 193.44 v -0.8 z m 112.00001,0 -0.96002,0.16 -0.79999,0.16 -1.92001,0.32 -0.79999,0.16 -0.95999,0.16 -0.80002,0.15999 -1.91998,0.32001 -0.80002,0.16 -0.95999,0.15999 -0.79999,0.16001 -1.92001,0.32 -0.79999,0.16001 -0.96002,0.15999 -0.79999,0.16 -1.92001,0.32001 -0.79999,0.15998 -0.95999,0.16001 -0.80002,0.16 -1.91999,0.31999 -0.80001,0.16001 -0.95999,0.16 -0.79999,0.16 -1.92002,0.32 0.16001,0.16 v 0.8 h 0.16 v 0.96 h 0.16 v 0.96 h 0.16001 v 0.8 h 0.16 v 0.96 h 0.15998 v 0.96 h 0.16 v 0.80001 h 0.16 V 237.92 H 279.84 v 0.96 H 280 v 0.79999 h 0.16 V 240.64 h 0.16001 v 0.96001 h 0.16 v 0.79998 h 0.16 V 243.36 h 0.15998 v 0.96001 h 0.16 v 0.79998 H 281.12 V 246.08 h 0.16 v 0.95999 h 0.16 V 247.84 h 0.16001 v 0.96 h 0.16 v 0.95999 h 0.16 V 250.56 h 0.15998 v 0.96 h 0.16 v 0.96 h 0.16 v 0.8 H 282.56 v 0.96 h 0.16 v 0.96 h 0.16 v 0.8 h 0.16001 v 0.95999 h 0.16 v 0.96002 h 0.15998 V 258.72 h 0.16 v 0.95999 h 0.16 v 0.96002 H 283.84 V 261.44 H 284 v 0.95999 h 0.16 v 0.96 h 0.16001 V 264.16 h 0.16 v 0.96 h 0.16 v 0.95999 h 0.15998 v 0.96002 h 0.16 V 267.84 H 285.12 v 0.95999 h 0.16 v 0.96002 h 0.16 V 270.56 h 0.16001 v 0.95999 h 0.16 v 0.96002 h 0.16 V 273.28 h 0.15998 v 0.95999 h 0.16 v 0.96002 h 0.16 V 276 H 286.56 v 0.95999 h 0.16 v 0.96002 h 0.16 V 278.72 h 0.16001 v 0.95999 h 0.16 v 0.96002 h 0.15998 V 281.44 h 0.16 v 0.95999 h 0.16 v 0.96 H 287.84 V 284.16 H 288 v 0.96 h 0.16 v 0.95999 h 0.16001 V 286.88 h 0.16 v 0.96 h 0.16 v 0.95999 h 0.15998 v 0.80002 h 0.16 V 290.56 H 289.12 v 0.95999 h 0.16 v 0.80002 h 0.16 V 293.28 h 0.16001 v 0.95999 h 0.16 v 0.80002 h 0.16 V 296 h 0.15998 v 0.95999 h 0.16 v 0.80002 h 0.16 V 298.72 H 290.56 v 0.95999 h 0.16 v 0.80002 h 0.16 V 301.44 h 0.16001 v 0.95999 h 0.16 v 0.96 h 0.15998 V 304.16 h 0.16 v 0.96 h 0.16 v 0.95999 H 291.84 V 306.88 H 292 v 0.96 h 0.16 v 0.95999 h 0.16001 v 0.80002 h 0.16 V 310.56 h 0.16 v 0.95999 h 0.15998 v 0.80002 h 0.16 V 313.28 H 293.12 v 0.95999 h 0.16 v 0.80002 h 0.16 V 316 h 0.16001 v 0.95999 h 0.16 v 0.80002 h 0.16 V 318.72 h 0.15998 v 0.95999 h 0.16 v 0.80002 h 0.16 V 321.44 H 294.56 v 0.95999 h 0.16 v 0.80002 h 0.16 V 324.16 h 0.16001 v 0.96 h 0.16 v 0.80001 h 0.15998 V 326.88 h 0.16 v 0.96 h 0.16 v 0.80001 H 295.84 v 0.96 H 296 V 330.56 h 0.16 v 0.79999 h 0.16001 v 0.96002 h 0.16 V 333.28 h 0.16 v 0.79999 h 0.15998 v 0.96002 h 0.16 V 336 H 297.12 v 0.79999 h 0.16 v 0.96002 h 0.16 V 338.72 h 0.16001 v 0.95999 h 0.16 v 0.80002 h 0.16 V 341.44 h 0.15998 v 0.95999 h 0.16 v 0.80002 h 0.16 V 344.16 H 298.56 v 0.96 h 0.16 v 0.80001 h 0.16 V 346.88 h 0.16001 v 0.96 h 0.16 v 0.80001 h 0.15998 v 0.96 h 0.16 V 350.56 h 0.16 v 0.79999 H 299.84 v 0.96002 H 300 V 353.28 h 0.16 v 0.79999 h 0.16001 v 0.96002 h 0.16 V 356 h 0.16 v 0.79999 h 0.15998 v 0.96002 h 0.16 V 358.72 H 301.12 v 0.79999 h 0.16 v 0.96002 h 0.16 V 361.44 h 0.16001 v 0.79999 h 0.16 v 0.96002 h 0.16 V 364.16 h 0.15998 v 0.79999 h 0.16 v 0.96002 h 0.16 V 366.88 H 302.56 v 0.79999 h 0.16 v 0.96002 h 0.16 v 0.96 h 0.16001 v 0.79998 h 0.16 v 0.96 h 0.15998 v 0.96002 h 0.16 V 373.12 h 0.16 v 0.95999 H 303.84 v 0.96002 H 304 V 376 h 0.16 v 0.79999 h 0.16001 v 0.96002 h 0.16 V 378.72 h 0.16 v 0.79999 h 0.15998 v 0.96002 h 0.16 V 381.44 H 305.12 v 0.79999 h 0.16 v 0.96002 h 0.16 V 384.16 h 0.16001 v 0.79999 h 0.16 v 0.96002 h 0.16 V 386.88 h 0.15998 v 0.79999 h 0.16 v 0.96002 h 0.16 v 0.96 H 306.56 v 0.79998 h 0.16 v 0.96 h 0.16 v 0.96002 h 0.16001 V 393.12 h 0.16 v 0.95999 h 0.15998 v 0.96002 h 0.16 V 395.84 h 0.16 v 0.95999 H 307.84 v 0.96002 H 308 V 398.56 h 0.16 v 0.95999 h 0.16001 v 0.96002 h 0.16 V 401.28 h 0.16 v 0.95999 h 0.15998 v 0.96002 h 0.16 V 404 H 309.12 v 0.95999 h 0.16 v 0.96002 h 0.16 V 406.72 h 0.16001 v 0.95999 h 0.16 v 0.96002 h 0.16 v 0.96 h 0.15998 v 0.79998 h 0.16 v 0.96 h 0.16 v 0.96002 H 310.56 V 413.12 h 0.16 v 0.95999 h 0.16 v 0.96002 h 0.16001 V 415.84 h 0.16 v 0.95999 h 0.15998 v 0.96002 h 0.16 V 418.56 h 0.16 v 0.95999 H 311.84 v 0.96002 H 312 V 421.28 h 0.16 v 0.95999 h 0.16001 v 0.96002 h 0.16 V 424 h 0.16 v 0.95999 h 0.15998 v 0.96002 h 0.16 V 426.72 H 313.12 v 0.95999 h 0.16 v 0.96002 h 0.16 V 429.44 h 0.16001 v 0.95999 h 0.16 v 0.96 h 0.16 V 432.16 h 0.15998 v 0.96 h 0.16 v 0.95999 h 0.16 V 434.88 H 314.56 v 0.96 h 0.16 v 0.95999 h 0.16 v 0.80002 h 0.16001 V 438.56 h 0.16 v 0.95999 h 0.15998 v 0.80002 h 0.16 V 441.28 h 0.16 v 0.95999 H 315.84 v 0.80002 H 316 V 444 h 0.16 v 0.95999 h 0.16001 v 0.96002 h 0.16 V 446.72 h 0.16 v 0.95999 h 0.15998 v 0.96002 h 0.16 V 449.44 H 317.12 v 0.95999 h 0.16 v 0.96 h 0.16 V 452.16 h 0.16001 v 0.96 h 0.16 v 0.95999 h 0.16 V 454.88 h 0.15998 v 0.96 h 0.16 v 0.95999 h 0.16 v 0.80002 H 318.56 V 458.56 h 0.16 v 0.95999 h 0.16 v 0.80002 h 0.16001 V 461.28 h 0.16 v 0.95999 h 0.15998 v 0.80002 h 0.16 V 464 h 0.16 v 0.95999 H 319.84 v 0.80002 H 320 V 466.72 h 0.16 v 0.95999 h 0.16001 v 0.80002 h 0.16 V 469.44 h 0.16 v 0.95999 h 0.15998 v 0.80002 h 0.16 V 472.16 H 321.12 v 0.96 h 0.16 v 0.80001 h 0.16 V 474.88 h 0.16001 v 0.96 h 0.16 v 0.80001 h 0.16 v 0.96 h 0.15998 V 478.56 h 0.16 v 0.79999 h 0.16 v 0.96002 H 322.56 V 481.28 h 0.16 v 0.95999 h 0.16 v 0.80002 h 0.16001 V 484 h 0.16 v 0.95999 h 0.15998 v 0.80002 h 0.16 V 486.72 h 0.16 v 0.95999 H 323.84 v 0.80002 H 324 V 489.44 h 0.16 v 0.95999 h 0.16001 v 0.80002 h 0.16 V 492.16 h 0.16 v 0.96 h 0.15998 v 0.80001 h 0.16 V 494.88 H 325.12 v 0.96 h 0.16 v 0.80001 h 0.16 v 0.96 h 0.16001 V 498.56 h 0.16 v 0.79999 h 0.16 v 0.96002 h 0.15998 V 501.28 h 0.16 v 0.79999 h 0.16 v 0.96002 H 326.56 V 504 h 0.16 v 0.79999 h 0.16 v 0.96002 h 0.16001 V 506.72 h 0.16 v 0.79999 h 0.15998 v 0.96002 h 0.16 V 509.44 h 0.16 v 0.79999 H 327.84 v 0.96002 H 328 v 0.95996 h 0.16 v 0.80005 h 0.16001 v 0.95996 h 0.16 V 514.88 h 0.16 v 0.79999 h 0.15998 v 0.96002 h 0.16 v 0.95997 H 329.12 V 518.56 h 0.16 v 0.79998 h 0.16 v 0.96003 h 0.16001 v 0.96002 h 0.16 v 0.79999 h 0.16 v 0.95996 h 0.15998 V 524 h 0.16 v 0.79999 h 0.16 v 0.96002 H 330.56 v 0.95996 h 0.16 v 0.80005 h 0.16 v 0.95996 h 0.16001 V 529.44 h 0.16 v 0.79999 h 0.15998 v 0.96002 h 0.16 v 0.95996 h 0.16 v 0.80005 H 331.84 v 0.95996 H 332 V 534.88 h 0.16 v 0.79999 h 0.16001 v 0.96002 h 0.16 v 0.95997 h 0.16 v 0.80004 h 0.15998 v 0.95996 h 0.16 v 0.96003 H 333.12 V 541.12 h 0.16 v 0.96002 h 0.16 v 0.95996 h 0.16001 v 0.80005 h 0.16 v 0.95996 h 0.16 v 0.96002 h 0.15998 V 546.56 h 0.16 v 0.96002 h 0.16 v 0.95996 H 334.56 v 0.80005 h 0.16 v 0.95996 h 0.16 v 0.96002 h 0.16001 V 552 h 0.16 v 0.96002 h 0.15998 v 0.95996 h 0.16 V 554.88 h 0.16 v 0.79999 H 335.84 v 0.96002 H 336 v 0.95997 h 0.16 v 0.80004 h 0.16001 v 0.95996 h 0.16 v 0.96003 h 0.16 V 561.12 h 0.15998 v 0.96002 h 0.16 v 0.95996 H 337.12 v 0.80005 h 0.16 v 0.95996 h 0.16 v 0.96002 h 0.16001 V 566.56 h 0.16 v 0.96002 h 0.16 v 0.95996 h 0.15998 v 0.80005 h 0.16 v 0.95996 h 0.16 v 0.96002 H 338.56 V 572 h 0.16 v 0.96002 h 0.16 v 0.95996 h 0.16001 v 0.79999 h 0.16 v 0.96002 h 0.15998 v 0.96002 h 0.16 V 577.44 h 0.16 v 0.96002 H 339.84 v 0.95996 H 340 v 0.79999 h 0.16 V 581.12 h 0.16001 v 0.96002 h 0.16 V 582.88 h 0.16 v 0.96003 h 0.15998 v 0.95996 h 0.16 v 0.79999 H 341.12 V 586.56 h 0.16 v 0.96002 h 0.16 v 0.79999 l 3.84,-0.64002 0.79999,-0.15997 3.84002,-0.64002 0.79999,-0.16003 3.84,-0.63995 0.79999,-0.16004 3.84002,-0.63995 L 360,585.12 l 3.84,-0.64002 0.80001,-0.15997 2.87998,-0.47998 h 0.80002 V 582.88 H 368.16 v -0.96002 H 368 v -0.95996 h -0.16 v -0.80005 h -0.16001 v -0.95996 h -0.16 v -0.96002 h -0.16 V 577.44 h -0.15998 v -0.96002 h -0.16 v -0.95996 H 366.88 v -0.80005 h -0.16 v -0.95996 h -0.16 v -0.96002 h -0.16001 V 572 h -0.16 v -0.96002 h -0.16 v -0.95996 h -0.15998 v -0.79999 h -0.16 v -0.96002 h -0.16 v -0.96003 H 365.44 V 566.56 h -0.16 v -0.96002 h -0.16 v -0.95997 h -0.16001 v -0.79998 h -0.16 V 562.88 h -0.15998 v -0.96002 h -0.16 V 561.12 h -0.16 v -0.96003 H 364.16 v -0.95996 H 364 v -0.79999 h -0.16 V 557.44 h -0.16001 v -0.96002 h -0.16 v -0.95996 h -0.16 v -0.80005 h -0.15998 v -0.95996 h -0.16 v -0.96002 H 362.88 V 552 h -0.16 v -0.96002 h -0.16 v -0.95996 h -0.16001 v -0.79999 h -0.16 v -0.96002 h -0.16 v -0.96003 h -0.15998 V 546.56 h -0.16 v -0.96002 h -0.16 v -0.95997 H 361.44 v -0.79998 h -0.16 V 542.88 h -0.16 v -0.96002 h -0.16001 V 541.12 h -0.16 v -0.96003 h -0.15998 v -0.95996 h -0.16 v -0.79999 h -0.16 V 537.44 H 360.16 v -0.96002 H 360 v -0.79999 h -0.16 v -0.96002 h -0.16001 v -0.95996 h -0.16 v -0.79999 h -0.16 V 532 h -0.15998 v -0.96002 h -0.16 v -0.79999 H 358.88 v -0.95996 h -0.16 v -0.96002 h -0.16 v -0.96003 h -0.16001 V 526.56 h -0.16 v -0.96002 h -0.16 v -0.95997 h -0.15998 v -0.79998 h -0.16 V 522.88 h -0.16 v -0.96002 H 357.44 V 521.12 h -0.16 v -0.96003 h -0.16 v -0.95996 h -0.16001 v -0.79999 h -0.16 V 517.44 h -0.15998 v -0.96002 h -0.16 v -0.79999 h -0.16 v -0.96002 H 356.16 v -0.95996 H 356 v -0.79999 h -0.16 V 512 h -0.16001 v -0.95999 h -0.16 v -0.80002 h -0.16 V 509.28 h -0.15998 v -0.95999 h -0.16 v -0.80002 H 354.88 V 506.56 h -0.16 v -0.95999 h -0.16 v -0.80002 h -0.16001 V 503.84 h -0.16 v -0.96 h -0.16 v -0.80001 h -0.15998 V 501.12 h -0.16 v -0.96 h -0.16 v -0.95999 H 353.44 v -0.80002 h -0.16 V 497.44 h -0.16 v -0.95999 h -0.16001 v -0.80002 h -0.16 V 494.72 h -0.15998 v -0.95999 h -0.16 v -0.80002 h -0.16 V 492 H 352.16 v -0.95999 H 352 v -0.80002 h -0.16 V 489.28 h -0.16001 v -0.95999 h -0.16 v -0.80002 h -0.16 V 486.56 h -0.15998 v -0.95999 h -0.16 v -0.80002 H 350.88 V 483.84 h -0.16 v -0.96 h -0.16 v -0.80001 h -0.16001 V 481.12 h -0.16 v -0.96 h -0.16 v -0.80001 h -0.15998 v -0.96 h -0.16 V 477.44 h -0.16 v -0.79999 H 349.44 v -0.96002 h -0.16 V 474.72 h -0.16 v -0.79999 h -0.16001 v -0.96002 h -0.16 V 472 h -0.15998 v -0.95999 h -0.16 v -0.80002 h -0.16 V 469.28 H 348.16 v -0.95999 H 348 v -0.80002 h -0.16 V 466.56 h -0.16001 v -0.95999 h -0.16 v -0.80002 h -0.16 V 463.84 h -0.15998 v -0.96 h -0.16 v -0.80001 H 346.88 V 461.12 h -0.16 v -0.96 h -0.16 v -0.80001 h -0.16001 v -0.96 h -0.16 V 457.44 h -0.16 v -0.79999 h -0.15998 v -0.96002 h -0.16 V 454.72 h -0.16 v -0.79999 H 345.44 v -0.96002 h -0.16 V 452 h -0.16 v -0.79999 h -0.16001 v -0.96002 h -0.16 V 449.28 h -0.15998 v -0.79999 h -0.16 v -0.96002 h -0.16 V 446.56 H 344.16 v -0.95999 H 344 v -0.80002 h -0.16 V 443.84 h -0.16001 v -0.96 h -0.16 v -0.80001 h -0.16 V 441.12 h -0.15998 v -0.96 h -0.16 v -0.80001 H 342.88 v -0.96 h -0.16 V 437.44 h -0.16 v -0.79999 h -0.16001 v -0.96002 h -0.16 V 434.72 h -0.16 v -0.79999 h -0.15998 v -0.96002 h -0.16 V 432 h -0.16 v -0.79999 H 341.44 v -0.96002 h -0.16 V 429.28 h -0.16 v -0.79999 h -0.16001 v -0.96002 h -0.16 V 426.56 h -0.15998 v -0.79999 h -0.16 v -0.96002 h -0.16 V 423.84 H 340.16 v -0.79999 H 340 v -0.96002 h -0.16 V 421.12 h -0.16001 v -0.79999 h -0.16 v -0.96002 h -0.16 v -0.96 h -0.15998 V 417.44 h -0.16 v -0.79999 H 338.88 v -0.96002 h -0.16 V 414.72 h -0.16 v -0.79999 h -0.16001 v -0.96002 h -0.16 V 412 h -0.16 v -0.79999 h -0.15998 v -0.96002 h -0.16 V 409.28 h -0.16 v -0.79999 H 337.44 v -0.96002 h -0.16 V 406.56 h -0.16 v -0.79999 h -0.16001 v -0.96002 h -0.16 V 403.84 h -0.15998 v -0.79999 h -0.16 v -0.96002 h -0.16 V 401.12 H 336.16 v -0.79999 H 336 v -0.96002 h -0.16 v -0.96 h -0.16001 v -0.79998 h -0.16 v -0.96 h -0.16 v -0.96002 h -0.15998 V 394.88 h -0.16 v -0.95999 H 334.88 v -0.96002 h -0.16 V 392.16 h -0.16 v -0.95999 h -0.16001 v -0.96002 h -0.16 V 389.28 h -0.16 v -0.79999 h -0.15998 v -0.96002 h -0.16 V 386.56 h -0.16 v -0.79999 H 333.44 v -0.96002 h -0.16 V 383.84 h -0.16 v -0.79999 h -0.16001 v -0.96002 h -0.16 V 381.12 h -0.15998 v -0.79999 h -0.16 v -0.96002 h -0.16 v -0.96 H 332.16 v -0.79998 H 332 v -0.96 h -0.16 v -0.96002 h -0.16001 V 374.88 h -0.16 v -0.95999 h -0.16 v -0.96002 h -0.15998 V 372.16 h -0.16 v -0.95999 H 330.88 v -0.96002 h -0.16 V 369.44 h -0.16 v -0.95999 h -0.16001 v -0.96002 h -0.16 V 366.72 h -0.16 v -0.95999 h -0.15998 v -0.96002 h -0.16 V 364 h -0.16 v -0.95999 H 329.44 v -0.96002 h -0.16 V 361.12 h -0.16 v -0.79999 h -0.16001 v -0.96002 h -0.16 v -0.96 h -0.15998 v -0.79998 h -0.16 v -0.96 h -0.16 v -0.96002 H 328.16 V 354.88 H 328 v -0.95999 h -0.16 v -0.96002 h -0.16001 V 352.16 h -0.16 v -0.95999 h -0.16 v -0.96002 h -0.15998 V 349.44 h -0.16 v -0.95999 H 326.88 v -0.96002 h -0.16 V 346.72 h -0.16 v -0.95999 h -0.16001 v -0.96002 h -0.16 V 344 h -0.16 v -0.95999 h -0.15998 v -0.96002 h -0.16 V 341.28 h -0.16 v -0.95999 H 325.44 v -0.96002 h -0.16 V 338.56 h -0.16 v -0.95999 h -0.16001 v -0.96 h -0.16 v -0.96002 h -0.15998 V 334.88 h -0.16 v -0.95999 h -0.16 v -0.96002 H 324.16 V 332.16 H 324 v -0.95999 h -0.16 v -0.96002 h -0.16001 V 329.44 h -0.16 v -0.95999 h -0.16 v -0.96002 h -0.15998 V 326.72 h -0.16 v -0.95999 H 322.88 v -0.96002 h -0.16 V 324 h -0.16 v -0.95999 h -0.16001 v -0.96002 h -0.16 V 321.28 h -0.16 v -0.95999 h -0.15998 v -0.96002 h -0.16 V 318.56 h -0.16 v -0.95999 H 321.44 v -0.96 h -0.16 V 315.84 h -0.16 v -0.96 h -0.16001 v -0.95999 h -0.16 V 313.12 h -0.15998 v -0.96 h -0.16 v -0.95999 h -0.16 v -0.80002 H 320.16 V 309.44 H 320 v -0.95999 h -0.16 v -0.96002 h -0.16001 V 306.72 h -0.16 v -0.95999 h -0.16 v -0.96002 h -0.15998 V 304 h -0.16 v -0.95999 H 318.88 v -0.96002 h -0.16 V 301.28 h -0.16 v -0.95999 h -0.16001 v -0.96002 h -0.16 V 298.56 h -0.16 v -0.95999 h -0.15998 v -0.96 h -0.16 V 295.84 h -0.16 v -0.96 H 317.44 v -0.95999 h -0.16 V 293.12 h -0.16 v -0.96 h -0.16001 v -0.95999 h -0.16 v -0.80002 h -0.15998 V 289.44 h -0.16 v -0.95999 h -0.16 v -0.80002 H 316.16 V 286.72 H 316 v -0.95999 h -0.16 v -0.80002 h -0.16001 V 284 h -0.16 v -0.95999 h -0.16 v -0.80002 h -0.15998 V 281.28 h -0.16 v -0.95999 H 314.88 v -0.96002 h -0.16 V 278.56 h -0.16 v -0.95999 h -0.16001 v -0.96 h -0.16 V 275.84 h -0.16 v -0.96 h -0.15998 v -0.95999 h -0.16 V 273.12 h -0.16 v -0.96 H 313.44 v -0.95999 h -0.16 v -0.80002 h -0.16 V 269.44 h -0.16001 v -0.95999 h -0.16 v -0.80002 h -0.15998 V 266.72 h -0.16 v -0.95999 h -0.16 v -0.80002 H 312.16 V 264 H 312 v -0.95999 h -0.16 v -0.80002 h -0.16001 V 261.28 h -0.16 v -0.95999 h -0.16 v -0.80002 h -0.15998 V 258.56 h -0.16 v -0.95999 H 310.88 v -0.80002 h -0.16 V 255.84 h -0.16 v -0.96 h -0.16001 v -0.8 h -0.16 v -0.96001 h -0.16 V 252.16 h -0.15998 v -0.96 h -0.16 v -0.80001 h -0.16 V 249.44 H 309.44 v -0.96 h -0.16 v -0.80001 h -0.16 V 246.72 h -0.16001 v -0.96001 h -0.16 v -0.79998 h -0.15998 V 244 h -0.16 v -0.96001 h -0.16 V 242.24 H 308.16 v -0.96 H 308 v -0.95999 h -0.16 V 239.52 h -0.16001 v -0.96 h -0.16 v -0.95999 h -0.16 V 236.8 h -0.15998 v -0.96 h -0.16 v -0.96 H 306.88 v -0.8 h -0.16 v -0.96001 h -0.16 V 232.16 h -0.16001 v -0.8 h -0.16 v -0.96001 h -0.16 V 229.44 h -0.15998 v -0.8 h -0.16 v -0.96001 h -0.16 V 226.72 H 305.44 v -0.8 z m 271.19998,0 -0.96002,0.16 -0.79999,0.16 -1.91998,0.32 -0.79999,0.16 -0.96002,0.16 -0.79999,0.15999 -1.91998,0.32001 -0.80005,0.16 -0.95996,0.15999 -0.79999,0.16001 -1.92004,0.32 -0.79999,0.16001 -0.95996,0.15999 -0.80005,0.16 -1.91998,0.32001 -0.79999,0.15998 -0.96002,0.16001 -0.79999,0.16 -1.91998,0.31999 -0.79999,0.16001 -0.96002,0.16 -0.79999,0.16 -1.92004,0.32 0.16003,0.16 v 0.8 h 0.15997 v 0.96 h 0.16004 v 0.96 h 0.15997 v 0.8 h 0.16003 v 0.96 H 550.56 v 0.96 h 0.15997 v 0.80001 H 550.88 V 237.92 h 0.15998 v 0.96 h 0.16003 v 0.79999 h 0.15997 V 240.64 h 0.16004 v 0.96001 h 0.15997 v 0.79998 h 0.16004 V 243.36 H 552 v 0.96001 h 0.15997 v 0.79998 h 0.16004 V 246.08 h 0.15997 v 0.95999 h 0.16003 V 247.84 h 0.15998 v 0.96 h 0.16003 v 0.95999 H 553.12 V 250.56 h 0.16003 v 0.96 H 553.44 v 0.96 h 0.15998 v 0.8 h 0.16003 v 0.96 h 0.15997 v 0.96 h 0.16004 v 0.8 h 0.15997 v 0.95999 h 0.16003 v 0.96002 H 554.56 V 258.72 h 0.15997 v 0.95999 H 554.88 v 0.96002 h 0.15998 V 261.44 h 0.16003 v 0.95999 h 0.15997 v 0.96 h 0.16004 V 264.16 h 0.15997 v 0.96 h 0.16004 v 0.95999 H 556 v 0.96002 h 0.15997 V 267.84 h 0.16004 v 0.95999 h 0.15997 v 0.96002 h 0.16003 V 270.56 h 0.15998 v 0.95999 h 0.16003 v 0.96002 H 557.12 V 273.28 h 0.16003 v 0.95999 H 557.44 v 0.96002 h 0.15998 V 276 h 0.16003 v 0.95999 h 0.15997 v 0.96002 h 0.16004 V 278.72 h 0.15997 v 0.95999 h 0.16003 v 0.96002 H 558.56 V 281.44 h 0.15997 v 0.95999 H 558.88 v 0.96 h 0.15998 V 284.16 h 0.16003 v 0.96 h 0.15997 v 0.95999 h 0.16004 V 286.88 h 0.15997 v 0.96 h 0.16004 v 0.95999 H 560 v 0.80002 h 0.15997 V 290.56 h 0.16004 v 0.95999 h 0.15997 v 0.80002 h 0.16003 V 293.28 h 0.15998 v 0.95999 h 0.16003 v 0.80002 H 561.12 V 296 h 0.16003 v 0.95999 H 561.44 v 0.80002 h 0.15998 V 298.72 h 0.16003 v 0.95999 h 0.15997 v 0.80002 h 0.16004 V 301.44 h 0.15997 v 0.95999 h 0.16003 v 0.96 H 562.56 V 304.16 h 0.15997 v 0.96 H 562.88 v 0.95999 h 0.15998 V 306.88 h 0.16003 v 0.96 h 0.15997 v 0.95999 h 0.16004 v 0.80002 h 0.15997 V 310.56 h 0.16004 v 0.95999 H 564 v 0.80002 h 0.15997 V 313.28 h 0.16004 v 0.95999 h 0.15997 v 0.80002 h 0.16003 V 316 h 0.15998 v 0.95999 h 0.16003 v 0.80002 H 565.12 V 318.72 h 0.16003 v 0.95999 H 565.44 v 0.80002 h 0.15998 V 321.44 h 0.16003 v 0.95999 h 0.15997 v 0.80002 h 0.16004 V 324.16 h 0.15997 v 0.96 h 0.16003 v 0.80001 H 566.56 V 326.88 h 0.15997 v 0.96 H 566.88 v 0.80001 h 0.15998 v 0.96 h 0.16003 V 330.56 h 0.15997 v 0.79999 h 0.16004 v 0.96002 h 0.15997 V 333.28 h 0.16004 v 0.79999 H 568 v 0.96002 h 0.15997 V 336 h 0.16004 v 0.79999 h 0.15997 v 0.96002 h 0.16003 V 338.72 h 0.15998 v 0.95999 h 0.16003 v 0.80002 H 569.12 V 341.44 h 0.16003 v 0.95999 H 569.44 v 0.80002 h 0.15998 V 344.16 h 0.16003 v 0.96 h 0.15997 v 0.80001 h 0.16004 V 346.88 h 0.15997 v 0.96 h 0.16003 v 0.80001 H 570.56 v 0.96 h 0.15997 V 350.56 H 570.88 v 0.79999 h 0.15998 v 0.96002 h 0.16003 V 353.28 h 0.15997 v 0.79999 h 0.16004 v 0.96002 h 0.15997 V 356 h 0.16004 v 0.79999 H 572 v 0.96002 h 0.15997 V 358.72 h 0.16004 v 0.79999 h 0.15997 v 0.96002 h 0.16003 V 361.44 h 0.15998 v 0.79999 h 0.16003 v 0.96002 H 573.12 V 364.16 h 0.16003 v 0.79999 H 573.44 v 0.96002 h 0.15998 V 366.88 h 0.16003 v 0.79999 h 0.15997 v 0.96002 h 0.16004 v 0.96 h 0.15997 v 0.79998 h 0.16003 v 0.96 H 574.56 v 0.96002 h 0.15997 V 373.12 H 574.88 v 0.95999 h 0.15998 v 0.96002 h 0.16003 V 376 h 0.15997 v 0.79999 h 0.16004 v 0.96002 h 0.15997 V 378.72 h 0.16004 v 0.79999 H 576 v 0.96002 h 0.15997 V 381.44 h 0.16004 v 0.79999 h 0.15997 v 0.96002 h 0.16003 V 384.16 h 0.15998 v 0.79999 h 0.16003 v 0.96002 H 577.12 V 386.88 h 0.16003 v 0.79999 H 577.44 v 0.96002 h 0.15998 v 0.96 h 0.16003 v 0.79998 h 0.15997 v 0.96 h 0.16004 v 0.96002 h 0.15997 V 393.12 h 0.16003 v 0.95999 H 578.56 v 0.96002 h 0.15997 V 395.84 H 578.88 v 0.95999 h 0.15998 v 0.96002 h 0.16003 V 398.56 h 0.15997 v 0.95999 h 0.16004 v 0.96002 h 0.15997 V 401.28 h 0.16004 v 0.95999 H 580 v 0.96002 h 0.15997 V 404 h 0.16004 v 0.95999 h 0.15997 v 0.96002 h 0.16003 V 406.72 h 0.15998 v 0.95999 h 0.16003 v 0.96002 H 581.12 v 0.96 h 0.16003 v 0.79998 H 581.44 v 0.96 h 0.15998 v 0.96002 h 0.16003 V 413.12 h 0.15997 v 0.95999 h 0.16004 v 0.96002 h 0.15997 V 415.84 h 0.16003 v 0.95999 H 582.56 v 0.96002 h 0.15997 V 418.56 H 582.88 v 0.95999 h 0.15998 v 0.96002 h 0.16003 V 421.28 h 0.15997 v 0.95999 h 0.16004 v 0.96002 h 0.15997 V 424 h 0.16004 v 0.95999 H 584 v 0.96002 h 0.15997 V 426.72 h 0.16004 v 0.95999 h 0.15997 v 0.96002 h 0.16003 V 429.44 h 0.15998 v 0.95999 h 0.16003 v 0.96 H 585.12 V 432.16 h 0.16003 v 0.96 H 585.44 v 0.95999 h 0.15998 V 434.88 h 0.16003 v 0.96 h 0.15997 v 0.95999 h 0.16004 v 0.80002 h 0.15997 V 438.56 h 0.16003 v 0.95999 H 586.56 v 0.80002 h 0.15997 V 441.28 H 586.88 v 0.95999 h 0.15998 v 0.80002 h 0.16003 V 444 h 0.15997 v 0.95999 h 0.16004 v 0.96002 h 0.15997 V 446.72 h 0.16004 v 0.95999 H 588 v 0.96002 h 0.15997 V 449.44 h 0.16004 v 0.95999 h 0.15997 v 0.96 h 0.16003 V 452.16 h 0.15998 v 0.96 h 0.16003 v 0.95999 H 589.12 V 454.88 h 0.16003 v 0.96 H 589.44 v 0.95999 h 0.15998 v 0.80002 h 0.16003 V 458.56 h 0.15997 v 0.95999 h 0.16004 v 0.80002 h 0.15997 V 461.28 h 0.16003 v 0.95999 H 590.56 v 0.80002 h 0.15997 V 464 H 590.88 v 0.95999 h 0.15998 v 0.80002 h 0.16003 V 466.72 h 0.15997 v 0.95999 h 0.16004 v 0.80002 h 0.15997 V 469.44 h 0.16004 v 0.95999 H 592 v 0.80002 h 0.15997 V 472.16 h 0.16004 v 0.96 h 0.15997 v 0.80001 h 0.16003 V 474.88 h 0.15998 v 0.96 h 0.16003 v 0.80001 H 593.12 v 0.96 h 0.16003 V 478.56 H 593.44 v 0.79999 h 0.15998 v 0.96002 h 0.16003 V 481.28 h 0.15997 v 0.95999 h 0.16004 v 0.80002 h 0.15997 V 484 h 0.16003 v 0.95999 H 594.56 v 0.80002 h 0.15997 V 486.72 H 594.88 v 0.95999 h 0.15998 v 0.80002 h 0.16003 V 489.44 h 0.15997 v 0.95999 h 0.16004 v 0.80002 h 0.15997 V 492.16 h 0.16004 v 0.96 H 596 v 0.80001 h 0.15997 V 494.88 h 0.16004 v 0.96 h 0.15997 v 0.80001 h 0.16003 v 0.96 h 0.15998 V 498.56 h 0.16003 v 0.79999 H 597.12 v 0.96002 h 0.16003 V 501.28 H 597.44 v 0.79999 h 0.15998 v 0.96002 h 0.16003 V 504 h 0.15997 v 0.79999 h 0.16004 v 0.96002 h 0.15997 V 506.72 h 0.16003 v 0.79999 H 598.56 v 0.96002 h 0.15997 V 509.44 H 598.88 v 0.79999 h 0.15998 v 0.96002 h 0.16003 v 0.95996 h 0.15997 v 0.80005 h 0.16004 v 0.95996 h 0.15997 V 514.88 h 0.16004 v 0.79999 H 600 v 0.96002 h 0.15997 v 0.95997 h 0.16004 V 518.56 h 0.15997 v 0.79998 h 0.16003 v 0.96003 h 0.15998 v 0.96002 h 0.16003 v 0.79999 H 601.12 v 0.95996 h 0.16003 V 524 H 601.44 v 0.79999 h 0.15998 v 0.96002 h 0.16003 v 0.95996 h 0.15997 v 0.80005 h 0.16004 v 0.95996 h 0.15997 V 529.44 h 0.16003 v 0.79999 H 602.56 v 0.96002 h 0.15997 v 0.95996 H 602.88 v 0.80005 h 0.15998 v 0.95996 h 0.16003 V 534.88 h 0.15997 v 0.79999 h 0.16004 v 0.96002 h 0.15997 v 0.95997 h 0.16004 v 0.80004 H 604 v 0.95996 h 0.15997 v 0.96003 h 0.16004 V 541.12 h 0.15997 v 0.96002 h 0.16003 v 0.95996 h 0.15998 v 0.80005 h 0.16003 v 0.95996 H 605.12 v 0.96002 h 0.16003 V 546.56 H 605.44 v 0.96002 h 0.15998 v 0.95996 h 0.16003 v 0.80005 h 0.15997 v 0.95996 h 0.16004 v 0.96002 h 0.15997 V 552 h 0.16003 v 0.96002 H 606.56 v 0.95996 h 0.15997 V 554.88 H 606.88 v 0.79999 h 0.15998 v 0.96002 h 0.16003 v 0.95997 h 0.15997 v 0.80004 h 0.16004 v 0.95996 h 0.15997 v 0.96003 h 0.16004 V 561.12 H 608 v 0.96002 h 0.15997 v 0.95996 h 0.16004 v 0.80005 h 0.15997 v 0.95996 h 0.16003 v 0.96002 h 0.15998 V 566.56 h 0.16003 v 0.96002 H 609.12 v 0.95996 h 0.16003 v 0.80005 H 609.44 v 0.95996 h 0.15998 v 0.96002 h 0.16003 V 572 h 0.15997 v 0.96002 h 0.16004 v 0.95996 h 0.15997 v 0.79999 h 0.16003 v 0.96002 H 610.56 v 0.96002 h 0.15997 V 577.44 H 610.88 v 0.96002 h 0.15998 v 0.95996 h 0.16003 v 0.79999 h 0.15997 V 581.12 h 0.16004 v 0.96002 h 0.15997 V 582.88 h 0.16004 v 0.96003 H 612 v 0.95996 h 0.15997 v 0.79999 h 0.16004 V 586.56 h 0.15997 v 0.96002 h 0.16003 v 0.79999 l 3.83997,-0.64002 0.80005,-0.15997 3.83997,-0.64002 0.79998,-0.16003 3.84003,-0.63995 0.79999,-0.16004 3.84002,-0.63995 0.79999,-0.16003 3.83997,-0.64002 0.80005,-0.15997 2.87994,-0.47998 h 0.80005 V 582.88 h -0.16004 v -0.96002 h -0.15997 v -0.95996 h -0.16003 v -0.80005 H 638.88 v -0.95996 h -0.16003 v -0.96002 H 638.56 V 577.44 h -0.15998 v -0.96002 h -0.16003 v -0.95996 h -0.15997 v -0.80005 h -0.16004 v -0.95996 h -0.15997 v -0.96002 h -0.16003 V 572 H 637.44 v -0.96002 h -0.15997 v -0.95996 H 637.12 v -0.79999 h -0.15998 v -0.96002 h -0.16003 v -0.96003 h -0.15998 V 566.56 h -0.16003 v -0.96002 h -0.15997 v -0.95997 h -0.16004 v -0.79998 H 636 V 562.88 h -0.15997 v -0.96002 h -0.16004 V 561.12 h -0.15997 v -0.96003 h -0.16004 v -0.95996 h -0.15997 v -0.79999 h -0.16003 V 557.44 H 634.88 v -0.96002 h -0.16003 v -0.95996 H 634.56 v -0.80005 h -0.15998 v -0.95996 h -0.16003 v -0.96002 h -0.15997 V 552 h -0.16004 v -0.96002 h -0.15997 v -0.95996 h -0.16003 v -0.79999 H 633.44 v -0.96002 h -0.15997 v -0.96003 H 633.12 V 546.56 h -0.15998 v -0.96002 h -0.16003 v -0.95997 h -0.15998 v -0.79998 h -0.16003 V 542.88 h -0.15997 v -0.96002 h -0.16004 V 541.12 H 632 v -0.96003 h -0.15997 v -0.95996 h -0.16004 v -0.79999 h -0.15997 V 537.44 h -0.16004 v -0.96002 h -0.15997 v -0.79999 h -0.16003 v -0.96002 H 630.88 v -0.95996 h -0.16003 v -0.79999 H 630.56 V 532 h -0.15998 v -0.96002 h -0.16003 v -0.79999 h -0.15997 v -0.95996 h -0.16004 v -0.96002 h -0.15997 v -0.96003 h -0.16003 V 526.56 H 629.44 v -0.96002 h -0.15997 v -0.95997 H 629.12 v -0.79998 h -0.15998 V 522.88 h -0.16003 v -0.96002 h -0.15998 V 521.12 h -0.16003 v -0.96003 h -0.15997 v -0.95996 h -0.16004 v -0.79999 H 628 V 517.44 h -0.15997 v -0.96002 h -0.16004 v -0.79999 h -0.15997 v -0.96002 h -0.16004 v -0.95996 h -0.15997 v -0.79999 h -0.16003 V 512 H 626.88 v -0.95999 h -0.16003 v -0.80002 H 626.56 V 509.28 h -0.15998 v -0.95999 h -0.16003 v -0.80002 h -0.15997 V 506.56 h -0.16004 v -0.95999 h -0.15997 v -0.80002 h -0.16003 V 503.84 H 625.44 v -0.96 h -0.15997 v -0.80001 H 625.12 V 501.12 h -0.15998 v -0.96 h -0.16003 v -0.95999 h -0.15998 v -0.80002 h -0.16003 V 497.44 h -0.15997 v -0.95999 h -0.16004 v -0.80002 H 624 V 494.72 h -0.15997 v -0.95999 h -0.16004 v -0.80002 h -0.15997 V 492 h -0.16004 v -0.95999 h -0.15997 v -0.80002 h -0.16003 V 489.28 H 622.88 v -0.95999 h -0.16003 v -0.80002 H 622.56 V 486.56 h -0.15998 v -0.95999 h -0.16003 v -0.80002 h -0.15997 V 483.84 h -0.16004 v -0.96 h -0.15997 v -0.80001 h -0.16003 V 481.12 H 621.44 v -0.96 h -0.15997 v -0.80001 H 621.12 v -0.96 h -0.15998 V 477.44 h -0.16003 v -0.79999 h -0.15998 v -0.96002 h -0.16003 V 474.72 h -0.15997 v -0.79999 h -0.16004 v -0.96002 H 620 V 472 h -0.15997 v -0.95999 h -0.16004 v -0.80002 h -0.15997 V 469.28 h -0.16004 v -0.95999 h -0.15997 v -0.80002 h -0.16003 V 466.56 H 618.88 v -0.95999 h -0.16003 v -0.80002 H 618.56 V 463.84 h -0.15998 v -0.96 h -0.16003 v -0.80001 h -0.15997 V 461.12 h -0.16004 v -0.96 h -0.15997 v -0.80001 h -0.16003 v -0.96 H 617.44 V 457.44 h -0.15997 v -0.79999 H 617.12 v -0.96002 h -0.15998 V 454.72 h -0.16003 v -0.79999 h -0.15998 v -0.96002 h -0.16003 V 452 h -0.15997 v -0.79999 h -0.16004 v -0.96002 H 616 V 449.28 h -0.15997 v -0.79999 h -0.16004 v -0.96002 h -0.15997 V 446.56 h -0.16004 v -0.95999 h -0.15997 v -0.80002 h -0.16003 V 443.84 H 614.88 v -0.96 h -0.16003 v -0.80001 H 614.56 V 441.12 h -0.15998 v -0.96 h -0.16003 v -0.80001 h -0.15997 v -0.96 h -0.16004 V 437.44 h -0.15997 v -0.79999 h -0.16003 v -0.96002 H 613.44 V 434.72 h -0.15997 v -0.79999 H 613.12 v -0.96002 h -0.15998 V 432 h -0.16003 v -0.79999 h -0.15998 v -0.96002 h -0.16003 V 429.28 h -0.15997 v -0.79999 h -0.16004 v -0.96002 H 612 V 426.56 h -0.15997 v -0.79999 h -0.16004 v -0.96002 h -0.15997 V 423.84 h -0.16004 v -0.79999 h -0.15997 v -0.96002 h -0.16003 V 421.12 H 610.88 v -0.79999 h -0.16003 v -0.96002 H 610.56 v -0.96 h -0.15998 V 417.44 h -0.16003 v -0.79999 h -0.15997 v -0.96002 h -0.16004 V 414.72 h -0.15997 v -0.79999 h -0.16003 v -0.96002 H 609.44 V 412 h -0.15997 v -0.79999 H 609.12 v -0.96002 h -0.15998 V 409.28 h -0.16003 v -0.79999 h -0.15998 v -0.96002 h -0.16003 V 406.56 h -0.15997 v -0.79999 h -0.16004 v -0.96002 H 608 V 403.84 h -0.15997 v -0.79999 h -0.16004 v -0.96002 h -0.15997 V 401.12 h -0.16004 v -0.79999 h -0.15997 v -0.96002 h -0.16003 v -0.96 H 606.88 v -0.79998 h -0.16003 v -0.96 H 606.56 v -0.96002 h -0.15998 V 394.88 h -0.16003 v -0.95999 h -0.15997 v -0.96002 h -0.16004 V 392.16 h -0.15997 v -0.95999 h -0.16003 v -0.96002 H 605.44 V 389.28 h -0.15997 v -0.79999 H 605.12 v -0.96002 h -0.15998 V 386.56 h -0.16003 v -0.79999 h -0.15998 v -0.96002 h -0.16003 V 383.84 h -0.15997 v -0.79999 h -0.16004 v -0.96002 H 604 V 381.12 h -0.15997 v -0.79999 h -0.16004 v -0.96002 h -0.15997 v -0.96 h -0.16004 v -0.79998 h -0.15997 v -0.96 h -0.16003 v -0.96002 H 602.88 V 374.88 h -0.16003 v -0.95999 H 602.56 v -0.96002 h -0.15998 V 372.16 h -0.16003 v -0.95999 h -0.15997 v -0.96002 h -0.16004 V 369.44 h -0.15997 v -0.95999 h -0.16003 v -0.96002 H 601.44 V 366.72 h -0.15997 v -0.95999 H 601.12 v -0.96002 h -0.15998 V 364 h -0.16003 v -0.95999 h -0.15998 v -0.96002 h -0.16003 V 361.12 h -0.15997 v -0.79999 h -0.16004 v -0.96002 H 600 v -0.96 h -0.15997 v -0.79998 h -0.16004 v -0.96 h -0.15997 v -0.96002 h -0.16004 V 354.88 h -0.15997 v -0.95999 h -0.16003 v -0.96002 H 598.88 V 352.16 h -0.16003 v -0.95999 H 598.56 v -0.96002 h -0.15998 V 349.44 h -0.16003 v -0.95999 h -0.15997 v -0.96002 h -0.16004 V 346.72 h -0.15997 v -0.95999 h -0.16003 v -0.96002 H 597.44 V 344 h -0.15997 v -0.95999 H 597.12 v -0.96002 h -0.15998 V 341.28 h -0.16003 v -0.95999 h -0.15998 v -0.96002 h -0.16003 V 338.56 h -0.15997 v -0.95999 h -0.16004 v -0.96 H 596 v -0.96002 h -0.15997 V 334.88 h -0.16004 v -0.95999 h -0.15997 v -0.96002 h -0.16004 V 332.16 h -0.15997 v -0.95999 h -0.16003 v -0.96002 H 594.88 V 329.44 h -0.16003 v -0.95999 H 594.56 v -0.96002 h -0.15998 V 326.72 h -0.16003 v -0.95999 h -0.15997 v -0.96002 h -0.16004 V 324 h -0.15997 v -0.95999 h -0.16003 v -0.96002 H 593.44 V 321.28 h -0.15997 v -0.95999 H 593.12 v -0.96002 h -0.15998 V 318.56 h -0.16003 v -0.95999 h -0.15998 v -0.96 h -0.16003 V 315.84 h -0.15997 v -0.96 h -0.16004 v -0.95999 H 592 V 313.12 h -0.15997 v -0.96 h -0.16004 v -0.95999 h -0.15997 v -0.80002 h -0.16004 V 309.44 h -0.15997 v -0.95999 h -0.16003 v -0.96002 H 590.88 V 306.72 h -0.16003 v -0.95999 H 590.56 v -0.96002 h -0.15998 V 304 h -0.16003 v -0.95999 h -0.15997 v -0.96002 h -0.16004 V 301.28 h -0.15997 v -0.95999 h -0.16003 v -0.96002 H 589.44 V 298.56 h -0.15997 v -0.95999 H 589.12 v -0.96 h -0.15998 V 295.84 h -0.16003 v -0.96 h -0.15998 v -0.95999 h -0.16003 V 293.12 h -0.15997 v -0.96 h -0.16004 v -0.95999 H 588 v -0.80002 h -0.15997 V 289.44 h -0.16004 v -0.95999 h -0.15997 v -0.80002 h -0.16004 V 286.72 h -0.15997 v -0.95999 h -0.16003 v -0.80002 H 586.88 V 284 h -0.16003 v -0.95999 H 586.56 v -0.80002 h -0.15998 V 281.28 h -0.16003 v -0.95999 h -0.15997 v -0.96002 h -0.16004 V 278.56 h -0.15997 v -0.95999 h -0.16003 v -0.96 H 585.44 V 275.84 h -0.15997 v -0.96 H 585.12 v -0.95999 h -0.15998 V 273.12 h -0.16003 v -0.96 h -0.15998 v -0.95999 h -0.16003 v -0.80002 h -0.15997 V 269.44 h -0.16004 v -0.95999 H 584 v -0.80002 h -0.15997 V 266.72 h -0.16004 v -0.95999 h -0.15997 v -0.80002 h -0.16004 V 264 h -0.15997 v -0.95999 h -0.16003 v -0.80002 H 582.88 V 261.28 h -0.16003 v -0.95999 H 582.56 v -0.80002 h -0.15998 V 258.56 h -0.16003 v -0.95999 h -0.15997 v -0.80002 h -0.16004 V 255.84 h -0.15997 v -0.96 h -0.16003 v -0.8 H 581.44 v -0.96001 h -0.15997 V 252.16 H 581.12 v -0.96 h -0.15998 v -0.80001 h -0.16003 V 249.44 h -0.15998 v -0.96 h -0.16003 v -0.80001 h -0.15997 V 246.72 h -0.16004 v -0.96001 H 580 v -0.79998 h -0.15997 V 244 h -0.16004 v -0.96001 h -0.15997 V 242.24 h -0.16004 v -0.96 h -0.15997 v -0.95999 h -0.16003 V 239.52 H 578.88 v -0.96 h -0.16003 v -0.95999 H 578.56 V 236.8 h -0.15998 v -0.96 h -0.16003 v -0.96 h -0.15997 v -0.8 h -0.16004 v -0.96001 h -0.15997 V 232.16 h -0.16003 v -0.8 H 577.44 v -0.96001 h -0.15997 V 229.44 H 577.12 v -0.8 h -0.15998 v -0.96001 h -0.16003 V 226.72 h -0.15998 v -0.8 z m 97.12,0 -0.95996,0.16 -0.80005,0.16 -1.91998,0.32 -0.79999,0.16 -0.96003,0.16 -0.79998,0.15999 -1.91999,0.32001 -0.79998,0.16 -0.96003,0.15999 -0.79998,0.16001 -1.92005,0.32 -0.79999,0.16001 -0.95996,0.15999 -0.80004,0.16 -1.91999,0.32001 -0.79999,0.15998 -0.96002,0.16001 -0.79998,0.16 -1.91999,0.31999 -0.79999,0.16001 -0.96002,0.16 -0.79999,0.16 -1.92004,0.32 0.16003,0.16 v 0.8 h 0.15998 v 0.96 h 0.16003 v 0.8 h 0.15997 v 0.96 h 0.16004 v 0.96 h 0.15997 v 0.8 h 0.16004 v 0.96001 H 648 V 237.92 h 0.15997 v 0.8 h 0.16004 v 0.95999 h 0.15997 V 240.64 h 0.16003 v 0.8 h 0.15998 v 0.95999 h 0.16003 V 243.36 H 649.12 v 0.8 h 0.16003 v 0.95999 H 649.44 V 246.08 h 0.15998 v 0.8 h 0.16003 v 0.96 h 0.15997 v 0.96 h 0.16004 v 0.80001 h 0.15997 V 250.56 h 0.16003 v 0.96 H 650.56 v 0.80001 h 0.15997 V 253.28 H 650.88 v 0.96 h 0.15998 v 0.79999 h 0.16003 V 256 h 0.15997 v 0.95999 h 0.16004 v 0.80002 h 0.15997 V 258.72 h 0.16004 v 0.95999 H 652 v 0.80002 h 0.15997 V 261.44 h 0.16004 v 0.95999 h 0.15997 v 0.80002 h 0.16003 V 264.16 h 0.15998 v 0.96 h 0.16003 v 0.80001 H 653.12 V 266.88 h 0.16003 v 0.96 H 653.44 v 0.80001 h 0.15998 v 0.96 h 0.16003 V 270.56 h 0.15997 v 0.79999 h 0.16004 v 0.96002 h 0.15997 V 273.28 h 0.16003 v 0.79999 H 654.56 v 0.96002 h 0.15997 V 276 H 654.88 v 0.79999 h 0.15998 v 0.96002 h 0.16003 V 278.72 h 0.15997 v 0.79999 h 0.16004 v 0.96002 h 0.15997 V 281.44 h 0.16004 v 0.79999 H 656 v 0.96002 h 0.15997 V 284 h 0.16004 v 0.95999 h 0.15997 v 0.96002 h 0.16003 V 286.72 h 0.15998 v 0.95999 h 0.16003 v 0.96002 H 657.12 V 289.44 h 0.16003 v 0.95999 H 657.44 v 0.96 h 0.15998 V 292.16 h 0.16003 v 0.96 h 0.15997 v 0.95999 h 0.16004 V 294.88 h 0.15997 v 0.96 h 0.16003 v 0.95999 H 658.56 v 0.80002 h 0.15997 V 298.56 H 658.88 v 0.95999 h 0.15998 v 0.80002 h 0.16003 V 301.28 h 0.15997 v 0.95999 h 0.16004 v 0.80002 h 0.15997 V 304 h 0.16004 v 0.95999 H 660 v 0.80002 h 0.15997 V 306.72 h 0.16004 v 0.95999 h 0.15997 v 0.80002 h 0.16003 V 309.44 h 0.15998 v 0.95999 h 0.16003 v 0.80002 H 661.12 V 312.16 h 0.16003 v 0.96 H 661.44 v 0.80001 h 0.15998 V 314.88 h 0.16003 v 0.96 h 0.15997 v 0.80001 h 0.16004 v 0.96 h 0.15997 V 318.56 h 0.16003 v 0.79999 H 662.56 v 0.96002 h 0.15997 V 321.28 H 662.88 v 0.79999 h 0.15998 v 0.96002 h 0.16003 V 324 h 0.15997 v 0.79999 h 0.16004 v 0.96002 h 0.15997 V 326.72 h 0.16004 v 0.79999 H 664 v 0.96002 h 0.15997 V 329.44 h 0.16004 v 0.79999 h 0.15997 v 0.96002 h 0.16003 V 332.16 h 0.15998 v 0.79999 h 0.16003 v 0.96002 H 665.12 V 334.72 h 0.16003 v 0.95999 H 665.44 v 0.96002 h 0.15998 V 337.44 h 0.16003 v 0.95999 h 0.15997 v 0.96 h 0.16004 V 340.16 h 0.15997 v 0.96 h 0.16003 v 0.95999 H 666.56 V 342.88 h 0.15997 v 0.96 H 666.88 v 0.95999 h 0.15998 v 0.80002 h 0.16003 V 346.56 h 0.15997 v 0.95999 h 0.16004 v 0.80002 h 0.15997 V 349.28 h 0.16004 v 0.95999 H 668 v 0.80002 h 0.15997 V 352 h 0.16004 v 0.95999 h 0.15997 v 0.80002 h 0.16003 V 354.72 h 0.15998 v 0.95999 h 0.16003 v 0.80002 H 669.12 V 357.44 h 0.16003 v 0.95999 H 669.44 v 0.80002 h 0.15998 V 360.16 h 0.16003 v 0.96 h 0.15997 v 0.80001 h 0.16004 V 362.88 h 0.15997 v 0.96 h 0.16003 v 0.80001 H 670.56 v 0.96 h 0.15997 V 366.56 H 670.88 v 0.79999 h 0.15998 v 0.96002 h 0.16003 V 369.28 h 0.15997 v 0.79999 h 0.16004 v 0.96002 h 0.15997 V 372 h 0.16004 v 0.79999 H 672 v 0.96002 h 0.15997 V 374.72 h 0.16004 v 0.79999 h 0.15997 v 0.96002 h 0.16003 V 377.44 h 0.15998 v 0.79999 h 0.16003 v 0.96002 H 673.12 V 380.16 h 0.16003 v 0.79999 H 673.44 v 0.96002 h 0.15998 V 382.88 h 0.16003 v 0.79999 h 0.15997 v 0.96002 h 0.16004 V 385.44 h 0.15997 v 0.95999 h 0.16003 v 0.96 H 674.56 V 388.16 h 0.15997 v 0.96 H 674.88 v 0.95999 h 0.15998 V 390.88 h 0.16003 v 0.96 h 0.15997 v 0.95999 h 0.16004 v 0.80002 h 0.15997 V 394.56 h 0.16004 v 0.95999 H 676 v 0.80002 h 0.15997 V 397.28 h 0.16004 v 0.95999 h 0.15997 v 0.80002 h 0.16003 V 400 h 0.15998 v 0.95999 h 0.16003 v 0.80002 H 677.12 V 402.72 h 0.16003 v 0.95999 H 677.44 v 0.80002 h 0.15998 V 405.44 h 0.16003 v 0.95999 h 0.15997 v 0.80002 h 0.16004 V 408.16 h 0.15997 v 0.96 h 0.16003 v 0.80001 H 678.56 V 410.88 h 0.15997 v 0.96 H 678.88 v 0.80001 h 0.15998 v 0.96 h 0.16003 V 414.56 h 0.15997 v 0.79999 h 0.16004 v 0.96002 h 0.15997 V 417.28 h 0.16004 v 0.79999 H 680 v 0.96002 h 0.15997 V 420 h 0.16004 v 0.79999 h 0.15997 v 0.96002 h 0.16003 V 422.72 h 0.15998 v 0.79999 h 0.16003 v 0.96002 H 681.12 V 425.44 h 0.16003 v 0.79999 H 681.44 v 0.96002 h 0.15998 V 428.16 h 0.16003 v 0.79999 h 0.15997 v 0.96002 h 0.16004 V 430.88 h 0.15997 v 0.79999 h 0.16003 v 0.96002 H 682.56 v 0.96 h 0.15997 v 0.79998 H 682.88 v 0.96 h 0.15998 V 436.16 h 0.16003 v 0.96 h 0.15997 v 0.95999 h 0.16004 V 438.88 h 0.15997 v 0.96 h 0.16004 v 0.95999 H 684 v 0.80002 h 0.15997 V 442.56 h 0.16004 v 0.95999 h 0.15997 v 0.80002 h 0.16003 V 445.28 h 0.15998 v 0.95999 h 0.16003 v 0.80002 H 685.12 V 448 h 0.16003 v 0.95999 H 685.44 v 0.80002 h 0.15998 V 450.72 h 0.16003 v 0.95999 h 0.15997 v 0.80002 h 0.16004 V 453.44 h 0.15997 v 0.95999 h 0.16003 v 0.80002 H 686.56 V 456.16 h 0.15997 v 0.96 H 686.88 v 0.80001 h 0.15998 V 458.88 h 0.16003 v 0.96 h 0.15997 v 0.80001 h 0.16004 v 0.96 h 0.15997 V 462.56 h 0.16004 v 0.79999 H 688 v 0.96002 h 0.15997 V 465.28 h 0.16004 v 0.79999 h 0.15997 v 0.96002 h 0.16003 V 468 h 0.15998 v 0.79999 h 0.16003 v 0.96002 H 689.12 V 470.72 h 0.16003 v 0.79999 H 689.44 v 0.96002 h 0.15998 V 473.44 h 0.16003 v 0.79999 h 0.15997 v 0.96002 h 0.16004 V 476.16 h 0.15997 v 0.79999 h 0.16003 v 0.96002 H 690.56 V 478.88 h 0.15997 v 0.79999 H 690.88 v 0.96002 h 0.15998 v 0.96 h 0.16003 v 0.79998 h 0.15997 v 0.96 h 0.16004 v 0.96002 h 0.15997 V 485.12 h 0.16004 v 0.95999 H 692 V 486.88 h 0.15997 v 0.96 h 0.16004 v 0.95999 h 0.15997 v 0.80002 h 0.16003 V 490.56 h 0.15998 v 0.95999 h 0.16003 v 0.80002 H 693.12 V 493.28 h 0.16003 v 0.95999 H 693.44 v 0.80002 h 0.15998 V 496 h 0.16003 v 0.95999 h 0.15997 v 0.80002 h 0.16004 V 498.72 h 0.15997 v 0.95999 h 0.16003 v 0.80002 H 694.56 V 501.44 h 0.15997 v 0.95999 H 694.88 v 0.80002 h 0.15998 V 504.16 h 0.16003 v 0.96 h 0.15997 v 0.80001 h 0.16004 V 506.88 h 0.15997 v 0.96 h 0.16004 v 0.80001 H 696 v 0.96 h 0.15997 V 510.56 h 0.16004 v 0.79999 h 0.15997 v 0.96002 h 0.16003 v 0.96002 h 0.15998 v 0.79999 h 0.16003 v 0.95996 H 697.12 V 516 h 0.16003 v 0.79999 H 697.44 v 0.96002 h 0.15998 v 0.95996 h 0.16003 v 0.80005 h 0.15997 v 0.95996 h 0.16004 V 521.44 h 0.15997 v 0.79999 h 0.16003 v 0.96002 H 698.56 v 0.95996 h 0.15997 v 0.80005 H 698.88 v 0.95996 h 0.15998 V 526.88 h 0.16003 v 0.79999 h 0.15997 v 0.96002 h 0.16004 v 0.95997 h 0.15997 v 0.80004 h 0.16004 v 0.95996 H 700 v 0.96003 h 0.15997 V 533.12 h 0.16004 v 0.96002 h 0.15997 v 0.95996 h 0.16003 v 0.80005 h 0.15998 v 0.95996 h 0.16003 v 0.79999 H 701.12 V 538.56 h 0.16003 v 0.96002 H 701.44 v 0.79999 h 0.15998 v 0.96002 h 0.16003 v 0.95996 h 0.15997 v 0.79999 h 0.16004 V 544 h 0.15997 v 0.96002 h 0.16003 v 0.79999 H 702.56 v 0.95996 h 0.15997 v 0.96002 H 702.88 v 0.79999 h 0.15998 V 549.44 h 0.16003 v 0.96002 h 0.15997 v 0.79999 h 0.16004 v 0.95996 h 0.15997 V 553.12 h 0.16004 v 0.79998 H 704 V 554.88 h 0.15997 v 0.96003 h 0.16004 v 0.79998 h 0.15997 v 0.95997 h 0.16003 V 558.56 h 0.15998 v 0.79998 h 0.16003 v 0.96003 H 705.12 v 0.96002 h 0.16003 v 0.79999 H 705.44 v 0.95996 h 0.15998 V 564 h 0.16003 v 0.79999 h 0.15997 v 0.96002 h 0.16004 v 0.95996 h 0.15997 v 0.80005 h 0.16003 v 0.95996 H 706.56 V 569.44 h 0.15997 v 0.79999 H 706.88 v 0.96002 h 0.15998 v 0.95996 h 0.16003 v 0.80005 h 0.15997 v 0.95996 h 0.16004 V 574.88 h 0.15997 v 0.79999 h 0.16004 v 0.96002 H 708 v 0.95997 h 0.15997 v 0.80004 h 0.16004 v 0.95996 h 0.15997 v 0.96003 h 0.16003 V 581.12 h 0.15998 v 0.96002 h 0.16003 v 0.95996 H 709.12 v 0.80005 h 0.16003 v 0.95996 H 709.44 v 0.96002 h 0.15998 V 586.56 h 0.16003 v 0.96002 h 0.15997 v 0.79999 l 3.84003,-0.64002 0.79999,-0.15997 2.88,-0.48004 0.79999,-0.15998 2.88001,-0.47998 0.79998,-0.16003 2.88001,-0.47998 0.79999,-0.16003 2.88,-0.47998 0.80005,-0.15998 2.87994,-0.48004 0.80005,-0.15997 2.88001,-0.47998 h 0.79998 V 582.88 h -0.16003 v -0.96002 h -0.15997 v -0.95996 h -0.16004 v -0.80005 H 736 v -0.95996 h -0.15997 v -0.96002 h -0.16004 V 577.44 h -0.15997 v -0.96002 h -0.16004 v -0.95996 h -0.15997 v -0.80005 h -0.16003 v -0.95996 H 734.88 v -0.96002 h -0.16003 V 572 H 734.56 v -0.96002 h -0.15998 v -0.95996 h -0.16003 v -0.79999 h -0.15997 v -0.96002 h -0.16004 v -0.96003 h -0.15997 V 566.56 h -0.16003 v -0.96002 H 733.44 v -0.95997 h -0.15997 v -0.79998 H 733.12 V 562.88 h -0.15998 v -0.96002 h -0.16003 V 561.12 h -0.15998 v -0.96003 h -0.16003 v -0.95996 h -0.15997 v -0.79999 h -0.16004 V 557.44 H 732 v -0.96002 h -0.15997 v -0.95996 h -0.16004 v -0.80005 h -0.15997 v -0.95996 h -0.16004 v -0.96002 h -0.15997 V 552 h -0.16003 v -0.96002 H 730.88 v -0.95996 h -0.16003 v -0.79999 H 730.56 v -0.96002 h -0.15998 v -0.96003 h -0.16003 V 546.56 h -0.15997 v -0.96002 h -0.16004 v -0.95997 h -0.15997 v -0.79998 h -0.16003 V 542.88 H 729.44 v -0.96002 h -0.15997 V 541.12 H 729.12 v -0.96003 h -0.15998 v -0.95996 h -0.16003 v -0.79999 h -0.15998 V 537.44 h -0.16003 v -0.96002 h -0.15997 v -0.79999 h -0.16004 v -0.96002 H 728 v -0.95996 h -0.15997 v -0.79999 h -0.16004 V 532 h -0.15997 v -0.96002 h -0.16004 v -0.79999 h -0.15997 v -0.95996 h -0.16003 v -0.96002 H 726.88 v -0.96003 h -0.16003 V 526.56 H 726.56 v -0.96002 h -0.15998 v -0.95997 h -0.16003 v -0.79998 h -0.15997 V 522.88 h -0.16004 v -0.96002 h -0.15997 V 521.12 h -0.16003 v -0.96003 H 725.44 v -0.95996 h -0.15997 v -0.79999 H 725.12 V 517.44 h -0.15998 v -0.96002 h -0.16003 v -0.79999 h -0.15998 v -0.96002 h -0.16003 v -0.95996 h -0.15997 v -0.79999 h -0.16004 V 512 H 724 v -0.95999 h -0.15997 v -0.80002 h -0.16004 V 509.28 h -0.15997 v -0.95999 h -0.16004 v -0.80002 h -0.15997 V 506.56 h -0.16003 v -0.95999 H 722.88 v -0.80002 h -0.16003 V 503.84 H 722.56 v -0.96 h -0.15998 v -0.80001 h -0.16003 V 501.12 h -0.15997 v -0.96 h -0.16004 v -0.95999 h -0.15997 v -0.80002 h -0.16003 V 497.44 H 721.44 v -0.95999 h -0.15997 v -0.80002 H 721.12 V 494.72 h -0.15998 v -0.95999 h -0.16003 v -0.80002 h -0.15998 V 492 h -0.16003 v -0.95999 h -0.15997 v -0.80002 h -0.16004 V 489.28 H 720 v -0.95999 h -0.15997 v -0.80002 h -0.16004 V 486.56 h -0.15997 v -0.95999 h -0.16004 v -0.80002 h -0.15997 V 483.84 h -0.16003 v -0.96 H 718.88 v -0.80001 h -0.16003 V 481.12 H 718.56 v -0.96 h -0.15998 v -0.80001 h -0.16003 v -0.96 h -0.15997 V 477.44 h -0.16004 v -0.79999 h -0.15997 v -0.96002 h -0.16003 V 474.72 H 717.44 v -0.79999 h -0.15997 v -0.96002 H 717.12 V 472 h -0.15998 v -0.95999 h -0.16003 v -0.80002 h -0.15998 V 469.28 h -0.16003 v -0.95999 h -0.15997 v -0.80002 h -0.16004 V 466.56 H 716 v -0.95999 h -0.15997 v -0.80002 h -0.16004 V 463.84 h -0.15997 v -0.96 h -0.16004 v -0.80001 h -0.15997 V 461.12 h -0.16003 v -0.96 H 714.88 v -0.80001 h -0.16003 v -0.96 H 714.56 V 457.44 h -0.15998 v -0.79999 h -0.16003 v -0.96002 h -0.15997 V 454.72 h -0.16004 v -0.79999 h -0.15997 v -0.96002 h -0.16003 V 452 H 713.44 v -0.79999 h -0.15997 v -0.96002 H 713.12 V 449.28 h -0.15998 v -0.79999 h -0.16003 v -0.96002 h -0.15998 V 446.56 h -0.16003 v -0.95999 h -0.15997 v -0.80002 h -0.16004 V 443.84 H 712 v -0.96 h -0.15997 v -0.80001 h -0.16004 V 441.12 h -0.15997 v -0.96 h -0.16004 v -0.80001 h -0.15997 v -0.96 h -0.16003 V 437.44 H 710.88 v -0.79999 h -0.16003 v -0.96002 H 710.56 V 434.72 h -0.15998 v -0.79999 h -0.16003 v -0.96002 h -0.15997 V 432 h -0.16004 v -0.79999 h -0.15997 v -0.96002 h -0.16003 V 429.28 H 709.44 v -0.79999 h -0.15997 v -0.96002 H 709.12 V 426.56 h -0.15998 v -0.79999 h -0.16003 v -0.96002 h -0.15998 V 423.84 h -0.16003 v -0.79999 h -0.15997 v -0.96002 h -0.16004 V 421.12 H 708 v -0.79999 h -0.15997 v -0.96002 h -0.16004 v -0.96 h -0.15997 V 417.44 h -0.16004 v -0.79999 h -0.15997 v -0.96002 h -0.16003 V 414.72 H 706.88 v -0.79999 h -0.16003 v -0.96002 H 706.56 V 412 h -0.15998 v -0.79999 h -0.16003 v -0.96002 h -0.15997 V 409.28 h -0.16004 v -0.79999 h -0.15997 v -0.96002 h -0.16003 V 406.56 H 705.44 v -0.79999 h -0.15997 v -0.96002 H 705.12 V 403.84 h -0.15998 v -0.79999 h -0.16003 v -0.96002 h -0.15998 V 401.12 h -0.16003 v -0.79999 h -0.15997 v -0.96002 h -0.16004 v -0.96 H 704 v -0.79998 h -0.15997 v -0.96 h -0.16004 v -0.96002 h -0.15997 V 394.88 h -0.16004 v -0.95999 h -0.15997 v -0.96002 h -0.16003 V 392.16 H 702.88 v -0.95999 h -0.16003 v -0.96002 H 702.56 V 389.28 h -0.15998 v -0.79999 h -0.16003 v -0.96002 h -0.15997 V 386.56 h -0.16004 v -0.79999 h -0.15997 v -0.96002 h -0.16003 V 383.84 H 701.44 v -0.79999 h -0.15997 v -0.96002 H 701.12 V 381.12 h -0.15998 v -0.79999 h -0.16003 v -0.96002 h -0.15998 v -0.96 h -0.16003 v -0.79998 h -0.15997 v -0.96 h -0.16004 v -0.96002 H 700 V 374.88 h -0.15997 v -0.95999 h -0.16004 v -0.96002 h -0.15997 V 372.16 h -0.16004 v -0.95999 h -0.15997 v -0.96002 h -0.16003 V 369.44 H 698.88 v -0.95999 h -0.16003 v -0.96002 H 698.56 V 366.72 h -0.15998 v -0.95999 h -0.16003 v -0.96002 h -0.15997 V 364 h -0.16004 v -0.95999 h -0.15997 v -0.96002 h -0.16003 V 361.12 H 697.44 v -0.79999 h -0.15997 v -0.96002 H 697.12 v -0.96 h -0.15998 v -0.79998 h -0.16003 v -0.96 h -0.15998 v -0.96002 h -0.16003 V 354.88 h -0.15997 v -0.95999 h -0.16004 v -0.96002 H 696 V 352.16 h -0.15997 v -0.95999 h -0.16004 v -0.96002 h -0.15997 V 349.44 h -0.16004 v -0.95999 h -0.15997 v -0.96002 h -0.16003 V 346.72 H 694.88 v -0.95999 h -0.16003 v -0.96002 H 694.56 V 344 h -0.15998 v -0.95999 h -0.16003 v -0.96002 h -0.15997 V 341.28 h -0.16004 v -0.95999 h -0.15997 v -0.96002 h -0.16003 V 338.56 H 693.44 v -0.95999 h -0.15997 v -0.96 H 693.12 v -0.96002 h -0.15998 V 334.88 h -0.16003 v -0.95999 h -0.15998 v -0.96002 h -0.16003 V 332.16 h -0.15997 v -0.95999 h -0.16004 v -0.96002 H 692 V 329.44 h -0.15997 v -0.95999 h -0.16004 v -0.96002 h -0.15997 V 326.72 h -0.16004 v -0.95999 h -0.15997 v -0.96002 h -0.16003 V 324 H 690.88 v -0.95999 h -0.16003 v -0.96002 H 690.56 V 321.28 h -0.15998 v -0.95999 h -0.16003 v -0.96002 h -0.15997 V 318.56 h -0.16004 v -0.95999 h -0.15997 v -0.96 h -0.16003 V 315.84 H 689.44 v -0.96 h -0.15997 v -0.95999 H 689.12 V 313.12 h -0.15998 v -0.96 h -0.16003 v -0.95999 h -0.15998 v -0.80002 h -0.16003 V 309.44 h -0.15997 v -0.95999 h -0.16004 v -0.96002 H 688 V 306.72 h -0.15997 v -0.95999 h -0.16004 v -0.96002 h -0.15997 V 304 h -0.16004 v -0.95999 h -0.15997 v -0.96002 h -0.16003 V 301.28 H 686.88 v -0.95999 h -0.16003 v -0.96002 H 686.56 V 298.56 h -0.15998 v -0.95999 h -0.16003 v -0.96 h -0.15997 V 295.84 h -0.16004 v -0.96 h -0.15997 v -0.95999 h -0.16003 V 293.12 H 685.44 v -0.96 h -0.15997 v -0.95999 H 685.12 v -0.80002 h -0.15998 V 289.44 h -0.16003 v -0.95999 h -0.15998 v -0.80002 h -0.16003 V 286.72 h -0.15997 v -0.95999 h -0.16004 v -0.80002 H 684 V 284 h -0.15997 v -0.95999 h -0.16004 v -0.80002 h -0.15997 V 281.28 h -0.16004 v -0.95999 h -0.15997 v -0.96002 h -0.16003 V 278.56 H 682.88 v -0.95999 h -0.16003 v -0.96 H 682.56 V 275.84 h -0.15998 v -0.96 h -0.16003 v -0.95999 h -0.15997 V 273.12 h -0.16004 v -0.96 h -0.15997 v -0.95999 h -0.16003 v -0.80002 H 681.44 V 269.44 h -0.15997 v -0.95999 H 681.12 v -0.80002 h -0.15998 V 266.72 h -0.16003 v -0.95999 h -0.15998 v -0.80002 h -0.16003 V 264 h -0.15997 v -0.95999 h -0.16004 v -0.80002 H 680 V 261.28 h -0.15997 v -0.95999 h -0.16004 v -0.80002 h -0.15997 V 258.56 h -0.16004 v -0.95999 h -0.15997 v -0.80002 h -0.16003 V 255.84 H 678.88 v -0.96 h -0.16003 v -0.8 H 678.56 v -0.96001 h -0.15998 V 252.16 h -0.16003 v -0.96 h -0.15997 v -0.80001 h -0.16004 V 249.44 h -0.15997 v -0.96 h -0.16003 v -0.80001 H 677.44 V 246.72 h -0.15997 v -0.96001 H 677.12 v -0.79998 h -0.15998 V 244 h -0.16003 v -0.96001 h -0.15998 V 242.24 h -0.16003 v -0.96 h -0.15997 v -0.95999 h -0.16004 V 239.52 H 676 v -0.96 h -0.15997 v -0.95999 h -0.16004 V 236.8 h -0.15997 v -0.96 h -0.16004 v -0.96 h -0.15997 v -0.8 h -0.16003 v -0.96001 H 674.88 V 232.16 h -0.16003 v -0.8 H 674.56 v -0.96001 h -0.15998 V 229.44 h -0.16003 v -0.8 h -0.15997 v -0.96001 h -0.16004 V 226.72 h -0.15997 v -0.8 z m 271.20001,0 -0.96002,0.16 -0.79999,0.16 -1.91998,0.32 -0.79999,0.16 -0.96002,0.16 -0.79999,0.15999 -1.91998,0.32001 -0.80005,0.16 -0.95996,0.15999 -0.79999,0.16001 -1.92005,0.32 -0.79998,0.16001 -0.96002,0.15999 -0.79999,0.16 -1.91999,0.32001 -0.79998,0.15998 -0.96002,0.16001 -0.79999,0.16 -1.91999,0.31999 -0.80004,0.16001 -0.95997,0.16 -0.79998,0.16 -1.92005,0.32 0.16004,0.16 v 0.8 h 0.15997 v 0.96 h 0.16003 v 0.8 H 918.56 v 0.96 h 0.15997 v 0.96 H 918.88 v 0.8 h 0.15998 v 0.96001 h 0.16003 V 237.92 h 0.15997 v 0.8 h 0.16004 v 0.95999 h 0.15997 V 240.64 h 0.16004 v 0.8 H 920 v 0.95999 h 0.15997 V 243.36 h 0.16004 v 0.8 h 0.15997 v 0.95999 h 0.16003 V 246.08 h 0.15998 v 0.8 h 0.16003 v 0.96 H 921.12 v 0.96 h 0.16003 v 0.80001 H 921.44 V 250.56 h 0.15998 v 0.96 h 0.16003 v 0.80001 h 0.15997 V 253.28 h 0.16004 v 0.96 h 0.15997 v 0.79999 h 0.16003 V 256 H 922.56 v 0.95999 h 0.15997 v 0.80002 H 922.88 V 258.72 h 0.15998 v 0.95999 h 0.16003 v 0.80002 h 0.15997 V 261.44 h 0.16004 v 0.95999 h 0.15997 v 0.80002 h 0.16004 V 264.16 H 924 v 0.96 h 0.15997 v 0.80001 h 0.16004 V 266.88 h 0.15997 v 0.96 h 0.16003 v 0.80001 h 0.15998 v 0.96 h 0.16003 V 270.56 H 925.12 v 0.79999 h 0.16003 v 0.96002 H 925.44 V 273.28 h 0.15998 v 0.79999 h 0.16003 v 0.96002 h 0.15997 V 276 h 0.16004 v 0.79999 h 0.15997 v 0.96002 h 0.16003 V 278.72 H 926.56 v 0.79999 h 0.15997 v 0.96002 H 926.88 V 281.44 h 0.15998 v 0.79999 h 0.16003 v 0.96002 h 0.15997 V 284 h 0.16004 v 0.95999 h 0.15997 v 0.96002 h 0.16004 V 286.72 H 928 v 0.95999 h 0.15997 v 0.96002 h 0.16004 V 289.44 h 0.15997 v 0.95999 h 0.16003 v 0.96 h 0.15998 V 292.16 h 0.16003 v 0.96 H 929.12 v 0.95999 h 0.16003 V 294.88 H 929.44 v 0.96 h 0.15998 v 0.95999 h 0.16003 v 0.80002 h 0.15997 V 298.56 h 0.16004 v 0.95999 h 0.15997 v 0.80002 h 0.16003 V 301.28 H 930.56 v 0.95999 h 0.15997 v 0.80002 H 930.88 V 304 h 0.15998 v 0.95999 h 0.16003 v 0.80002 h 0.15997 V 306.72 h 0.16004 v 0.95999 h 0.15997 v 0.80002 h 0.16004 V 309.44 H 932 v 0.95999 h 0.15997 v 0.80002 h 0.16004 V 312.16 h 0.15997 v 0.96 h 0.16003 v 0.80001 h 0.15998 V 314.88 h 0.16003 v 0.96 H 933.12 v 0.80001 h 0.16003 v 0.96 H 933.44 V 318.56 h 0.15998 v 0.79999 h 0.16003 v 0.96002 h 0.15997 V 321.28 h 0.16004 v 0.79999 h 0.15997 v 0.96002 h 0.16003 V 324 H 934.56 v 0.79999 h 0.15997 v 0.96002 H 934.88 V 326.72 h 0.15998 v 0.79999 h 0.16003 v 0.96002 h 0.15997 V 329.44 h 0.16004 v 0.79999 h 0.15997 v 0.96002 h 0.16004 V 332.16 H 936 v 0.79999 h 0.15997 v 0.96002 h 0.16004 V 334.72 h 0.15997 v 0.95999 h 0.16003 v 0.96002 h 0.15998 V 337.44 h 0.16003 v 0.95999 H 937.12 v 0.96 h 0.16003 V 340.16 H 937.44 v 0.96 h 0.15998 v 0.95999 h 0.16003 V 342.88 h 0.15997 v 0.96 h 0.16004 v 0.95999 h 0.15997 v 0.80002 h 0.16003 V 346.56 H 938.56 v 0.95999 h 0.15997 v 0.80002 H 938.88 V 349.28 h 0.15998 v 0.95999 h 0.16003 v 0.80002 h 0.15997 V 352 h 0.16004 v 0.95999 h 0.15997 v 0.80002 h 0.16004 V 354.72 H 940 v 0.95999 h 0.15997 v 0.80002 h 0.16004 V 357.44 h 0.15997 v 0.95999 h 0.16003 v 0.80002 h 0.15998 V 360.16 h 0.16003 v 0.96 H 941.12 v 0.80001 h 0.16003 V 362.88 H 941.44 v 0.96 h 0.15998 v 0.80001 h 0.16003 v 0.96 h 0.15997 V 366.56 h 0.16004 v 0.79999 h 0.15997 v 0.96002 h 0.16003 V 369.28 H 942.56 v 0.79999 h 0.15997 v 0.96002 H 942.88 V 372 h 0.15998 v 0.79999 h 0.16003 v 0.96002 h 0.15997 V 374.72 h 0.16004 v 0.79999 h 0.15997 v 0.96002 h 0.16004 V 377.44 H 944 v 0.79999 h 0.15997 v 0.96002 h 0.16004 V 380.16 h 0.15997 v 0.79999 h 0.16003 v 0.96002 h 0.15998 V 382.88 h 0.16003 v 0.79999 H 945.12 v 0.96002 h 0.16003 V 385.44 H 945.44 v 0.95999 h 0.15998 v 0.96 h 0.16003 V 388.16 h 0.15997 v 0.96 h 0.16004 v 0.95999 h 0.15997 V 390.88 h 0.16003 v 0.96 H 946.56 v 0.95999 h 0.15997 v 0.80002 H 946.88 V 394.56 h 0.15998 v 0.95999 h 0.16003 v 0.80002 h 0.15997 V 397.28 h 0.16004 v 0.95999 h 0.15997 v 0.80002 h 0.16004 V 400 H 948 v 0.95999 h 0.15997 v 0.80002 h 0.16004 V 402.72 h 0.15997 v 0.95999 h 0.16003 v 0.80002 h 0.15998 V 405.44 h 0.16003 v 0.95999 H 949.12 v 0.80002 h 0.16003 V 408.16 H 949.44 v 0.96 h 0.15998 v 0.80001 h 0.16003 V 410.88 h 0.15997 v 0.96 h 0.16004 v 0.80001 h 0.15997 v 0.96 h 0.16003 V 414.56 H 950.56 v 0.79999 h 0.15997 v 0.96002 H 950.88 V 417.28 h 0.15998 v 0.79999 h 0.16003 v 0.96002 h 0.15997 V 420 h 0.16004 v 0.79999 h 0.15997 v 0.96002 h 0.16004 V 422.72 H 952 v 0.79999 h 0.15997 v 0.96002 h 0.16004 V 425.44 h 0.15997 v 0.79999 h 0.16003 v 0.96002 h 0.15998 V 428.16 h 0.16003 v 0.79999 H 953.12 v 0.96002 h 0.16003 V 430.88 H 953.44 v 0.79999 h 0.15998 v 0.96002 h 0.16003 v 0.96 h 0.15997 v 0.79998 h 0.16004 v 0.96 h 0.15997 V 436.16 h 0.16003 v 0.96 H 954.56 v 0.95999 h 0.15997 V 438.88 H 954.88 v 0.96 h 0.15998 v 0.95999 h 0.16003 v 0.80002 h 0.15997 V 442.56 h 0.16004 v 0.95999 h 0.15997 v 0.80002 h 0.16004 V 445.28 H 956 v 0.95999 h 0.15997 v 0.80002 h 0.16004 V 448 h 0.15997 v 0.95999 h 0.16003 v 0.80002 h 0.15998 V 450.72 h 0.16003 v 0.95999 H 957.12 v 0.80002 h 0.16003 V 453.44 H 957.44 v 0.95999 h 0.15998 v 0.80002 h 0.16003 V 456.16 h 0.15997 v 0.96 h 0.16004 v 0.80001 h 0.15997 V 458.88 h 0.16003 v 0.96 H 958.56 v 0.80001 h 0.15997 v 0.96 H 958.88 V 462.56 h 0.15998 v 0.79999 h 0.16003 v 0.96002 h 0.15997 V 465.28 h 0.16004 v 0.79999 h 0.15997 v 0.96002 h 0.16004 V 468 H 960 v 0.79999 h 0.15997 v 0.96002 h 0.16004 V 470.72 h 0.15997 v 0.79999 h 0.16003 v 0.96002 h 0.15998 V 473.44 h 0.16003 v 0.79999 H 961.12 v 0.96002 h 0.16003 V 476.16 H 961.44 v 0.79999 h 0.15998 v 0.96002 h 0.16003 V 478.88 h 0.15997 v 0.79999 h 0.16004 v 0.96002 h 0.15997 v 0.96 h 0.16003 v 0.79998 H 962.56 v 0.96 h 0.15997 v 0.96002 H 962.88 V 485.12 h 0.15998 v 0.95999 h 0.16003 V 486.88 h 0.15997 v 0.96 h 0.16004 v 0.95999 h 0.15997 v 0.80002 h 0.16004 V 490.56 H 964 v 0.95999 h 0.15997 v 0.80002 h 0.16004 V 493.28 h 0.15997 v 0.95999 h 0.16003 v 0.80002 h 0.15998 V 496 h 0.16003 v 0.95999 H 965.12 v 0.80002 h 0.16003 V 498.72 H 965.44 v 0.95999 h 0.15998 v 0.80002 h 0.16003 V 501.44 h 0.15997 v 0.95999 h 0.16004 v 0.80002 h 0.15997 V 504.16 h 0.16003 v 0.96 H 966.56 v 0.80001 h 0.15997 V 506.88 H 966.88 v 0.96 h 0.15998 v 0.80001 h 0.16003 v 0.96 h 0.15997 V 510.56 h 0.16004 v 0.79999 h 0.15997 v 0.96002 h 0.16004 v 0.96002 H 968 v 0.79999 h 0.15997 v 0.95996 h 0.16004 V 516 h 0.15997 v 0.79999 h 0.16003 v 0.96002 h 0.15998 v 0.95996 h 0.16003 v 0.80005 H 969.12 v 0.95996 h 0.16003 V 521.44 H 969.44 v 0.79999 h 0.15998 v 0.96002 h 0.16003 v 0.95996 h 0.15997 v 0.80005 h 0.16004 v 0.95996 h 0.15997 V 526.88 h 0.16003 v 0.79999 H 970.56 v 0.96002 h 0.15997 v 0.95997 H 970.88 v 0.80004 h 0.15998 v 0.95996 h 0.16003 v 0.96003 h 0.15997 V 533.12 h 0.16004 v 0.96002 h 0.15997 v 0.95996 h 0.16004 v 0.80005 H 972 v 0.95996 h 0.15997 v 0.79999 h 0.16004 V 538.56 h 0.15997 v 0.96002 h 0.16003 v 0.79999 h 0.15998 v 0.96002 h 0.16003 v 0.95996 H 973.12 v 0.79999 h 0.16003 V 544 H 973.44 v 0.96002 h 0.15998 v 0.79999 h 0.16003 v 0.95996 h 0.15997 v 0.96002 h 0.16004 v 0.79999 h 0.15997 V 549.44 h 0.16003 v 0.96002 H 974.56 v 0.79999 h 0.15997 v 0.95996 H 974.88 V 553.12 h 0.15998 v 0.79998 h 0.16003 V 554.88 h 0.15997 v 0.96003 h 0.16004 v 0.79998 h 0.15997 v 0.95997 h 0.16004 V 558.56 H 976 v 0.79998 h 0.15997 v 0.96003 h 0.16004 v 0.96002 h 0.15997 v 0.79999 h 0.16003 v 0.95996 h 0.15998 V 564 h 0.16003 v 0.79999 H 977.12 v 0.96002 h 0.16003 v 0.95996 H 977.44 v 0.80005 h 0.15998 v 0.95996 h 0.16003 V 569.44 h 0.15997 v 0.79999 h 0.16004 v 0.96002 h 0.15997 v 0.95996 h 0.16003 v 0.80005 H 978.56 v 0.95996 h 0.15997 V 574.88 H 978.88 v 0.79999 h 0.15998 v 0.96002 h 0.16003 v 0.95997 h 0.15997 v 0.80004 h 0.16004 v 0.95996 h 0.15997 v 0.96003 h 0.16004 V 581.12 H 980 v 0.96002 h 0.15997 v 0.95996 h 0.16004 v 0.80005 h 0.15997 v 0.95996 h 0.16003 v 0.96002 h 0.15998 V 586.56 h 0.16003 v 0.96002 H 981.12 v 0.79999 l 3.84002,-0.64002 0.79999,-0.15997 3.83997,-0.64002 0.80004,-0.16003 3.83997,-0.63995 0.79999,-0.16004 3.84002,-0.63995 0.79999,-0.16003 3.84001,-0.64002 0.8,-0.15997 2.88,-0.47998 h 0.8 V 582.88 h -0.16 v -0.96002 h -0.16 V 581.12 h -0.16 v -0.96003 h -0.16 v -0.95996 h -0.16 v -0.79999 h -0.16 V 577.44 h -0.16 v -0.96002 h -0.16 v -0.79999 h -0.16 v -0.96002 h -0.16 v -0.95996 h -0.16 v -0.79999 h -0.16 V 572 h -0.16 v -0.96002 h -0.16 v -0.79999 h -0.16 v -0.95996 h -0.16 v -0.96002 h -0.16 v -0.79999 h -0.16 V 566.56 h -0.16 v -0.96002 h -0.16 v -0.79999 h -0.16 v -0.95996 h -0.16 V 562.88 h -0.16 v -0.79998 h -0.16 V 561.12 H 1004 v -0.96003 h -0.16 v -0.79999 h -0.16 v -0.95996 h -0.16 V 557.44 h -0.16 v -0.79999 h -0.16 v -0.96002 h -0.16 v -0.96002 h -0.16 v -0.79999 h -0.16 v -0.95996 h -0.16 V 552 h -0.16 v -0.79999 h -0.16 v -0.96002 h -0.16 v -0.95996 h -0.16 v -0.80005 h -0.16 v -0.95996 h -0.16 V 546.56 h -0.16 v -0.79999 h -0.16 v -0.96002 h -0.16 v -0.95996 h -0.16 v -0.80005 h -0.16 v -0.95996 h -0.16 V 541.12 h -0.16 v -0.79999 h -0.16 v -0.96003 h -0.16 v -0.95996 H 1000 v -0.80004 h -0.15997 v -0.95997 h -0.16004 v -0.96002 h -0.15997 V 534.88 h -0.16004 v -0.96002 h -0.15997 v -0.95996 h -0.16003 v -0.80005 H 998.88 v -0.95996 h -0.16003 v -0.96002 H 998.56 V 529.44 h -0.15998 v -0.96002 h -0.16003 v -0.95996 h -0.15997 v -0.80005 h -0.16004 v -0.95996 h -0.15997 v -0.96002 h -0.16003 V 524 H 997.44 v -0.96002 h -0.15997 v -0.95996 H 997.12 v -0.79999 h -0.15998 v -0.96002 h -0.16003 v -0.96003 h -0.15998 V 518.56 h -0.16003 v -0.96002 h -0.15997 v -0.95997 h -0.16004 v -0.79998 H 996 V 514.88 h -0.15997 v -0.96002 h -0.16004 V 513.12 h -0.15997 v -0.96003 h -0.16004 v -0.95996 h -0.15997 v -0.80002 h -0.16003 V 509.44 H 994.88 v -0.95999 h -0.16003 v -0.80002 H 994.56 V 506.72 h -0.15998 v -0.95999 h -0.16003 v -0.80002 h -0.15997 V 504 h -0.16004 v -0.95999 h -0.15997 v -0.80002 h -0.16003 V 501.28 H 993.44 v -0.95999 h -0.15997 v -0.80002 H 993.12 V 498.56 h -0.15998 v -0.95999 h -0.16003 v -0.80002 h -0.15998 V 495.84 h -0.16003 v -0.96 h -0.15997 v -0.80001 h -0.16004 V 493.12 H 992 v -0.79999 h -0.15997 v -0.96002 h -0.16004 v -0.96 h -0.15997 v -0.79998 h -0.16004 v -0.96 h -0.15997 v -0.96002 h -0.16003 V 486.88 H 990.88 v -0.95999 h -0.16003 v -0.96002 H 990.56 V 484.16 h -0.15998 v -0.95999 h -0.16003 v -0.96002 h -0.15997 V 481.44 h -0.16004 v -0.95999 h -0.15997 v -0.96002 h -0.16003 V 478.72 H 989.44 v -0.95999 h -0.15997 v -0.96002 H 989.12 V 476 h -0.15998 v -0.95999 h -0.16003 v -0.96002 h -0.15998 V 473.28 h -0.16003 v -0.95999 h -0.15997 v -0.96002 h -0.16004 V 470.56 H 988 v -0.95999 h -0.15997 v -0.96 h -0.16004 V 467.84 h -0.15997 v -0.96 h -0.16004 v -0.95999 h -0.15997 V 465.12 h -0.16003 v -0.96 H 986.88 v -0.95999 h -0.16003 v -0.80002 H 986.56 V 461.44 h -0.15998 v -0.95999 h -0.16003 v -0.80002 h -0.15997 V 458.72 h -0.16004 v -0.95999 h -0.15997 v -0.80002 h -0.16003 V 456 H 985.44 v -0.95999 h -0.15997 v -0.80002 H 985.12 V 453.28 h -0.15998 v -0.95999 h -0.16003 v -0.80002 h -0.15998 V 450.56 h -0.16003 v -0.95999 h -0.15997 v -0.80002 h -0.16004 V 447.84 H 984 v -0.96 h -0.15997 v -0.80001 h -0.16004 V 445.12 h -0.15997 v -0.96 h -0.16004 v -0.80001 h -0.15997 v -0.96 h -0.16003 V 441.44 H 982.88 v -0.79999 h -0.16003 v -0.96002 H 982.56 V 438.72 h -0.15998 v -0.79999 h -0.16003 v -0.96002 h -0.15997 V 436 h -0.16004 v -0.79999 h -0.15997 v -0.96002 h -0.16003 V 433.28 H 981.44 v -0.79999 h -0.15997 v -0.96002 H 981.12 V 430.56 h -0.15998 v -0.79999 h -0.16003 v -0.96002 h -0.15998 V 427.84 h -0.16003 v -0.79999 h -0.15997 v -0.96002 h -0.16004 V 425.12 H 980 v -0.79999 h -0.15997 v -0.96002 h -0.16004 v -0.96 h -0.15997 v -0.79998 h -0.16004 v -0.96 h -0.15997 v -0.96002 h -0.16003 V 418.88 H 978.88 v -0.95999 h -0.16003 v -0.96002 H 978.56 V 416.16 h -0.15998 v -0.95999 h -0.16003 v -0.96002 h -0.15997 V 413.44 h -0.16004 v -0.95999 h -0.15997 v -0.96002 h -0.16003 V 410.72 H 977.44 v -0.95999 h -0.15997 v -0.96002 H 977.12 V 408 h -0.15998 v -0.95999 h -0.16003 v -0.96002 h -0.15998 V 405.28 h -0.16003 v -0.95999 h -0.15997 v -0.80002 h -0.16004 V 402.56 H 976 v -0.95999 h -0.15997 v -0.80002 h -0.16004 V 399.84 h -0.15997 v -0.96 h -0.16004 v -0.80001 h -0.15997 V 397.12 h -0.16003 v -0.96 H 974.88 v -0.80001 h -0.16003 v -0.96 H 974.56 V 393.44 h -0.15998 v -0.79999 h -0.16003 v -0.96002 h -0.15997 V 390.72 h -0.16004 v -0.79999 h -0.15997 v -0.96002 h -0.16003 V 388 H 973.44 v -0.79999 h -0.15997 v -0.96002 H 973.12 V 385.28 h -0.15998 v -0.79999 h -0.16003 v -0.96002 h -0.15998 V 382.56 h -0.16003 v -0.79999 h -0.15997 v -0.96002 h -0.16004 V 379.84 H 972 v -0.79999 h -0.15997 v -0.96002 h -0.16004 V 377.12 h -0.15997 v -0.79999 h -0.16004 v -0.96002 h -0.15997 v -0.96 h -0.16003 v -0.79998 H 970.88 v -0.96 h -0.16003 v -0.96002 H 970.56 V 370.88 h -0.15998 v -0.95999 h -0.16003 v -0.96002 h -0.15997 V 368.16 h -0.16004 v -0.95999 h -0.15997 v -0.96002 h -0.16003 V 365.44 H 969.44 v -0.95999 h -0.15997 v -0.96002 H 969.12 V 362.72 h -0.15998 v -0.95999 h -0.16003 v -0.96002 h -0.15998 V 360 h -0.16003 v -0.95999 h -0.15997 v -0.96002 h -0.16004 V 357.28 H 968 v -0.95999 h -0.15997 v -0.96002 h -0.16004 V 354.56 h -0.15997 v -0.95999 h -0.16004 v -0.96 h -0.15997 V 351.84 h -0.16003 v -0.96 H 966.88 v -0.95999 h -0.16003 V 349.12 H 966.56 v -0.96 h -0.15998 v -0.95999 h -0.16003 v -0.80002 h -0.15997 V 345.44 h -0.16004 v -0.95999 h -0.15997 v -0.80002 h -0.16003 V 342.72 H 965.44 v -0.95999 h -0.15997 v -0.80002 H 965.12 V 340 h -0.15998 v -0.95999 h -0.16003 v -0.80002 h -0.15998 V 337.28 h -0.16003 v -0.95999 h -0.15997 v -0.80002 h -0.16004 V 334.56 H 964 v -0.95999 h -0.15997 v -0.80002 h -0.16004 V 331.84 h -0.15997 v -0.96 h -0.16004 v -0.80001 h -0.15997 V 329.12 h -0.16003 v -0.96 H 962.88 v -0.80001 h -0.16003 v -0.96 H 962.56 V 325.44 h -0.15998 v -0.79999 h -0.16003 v -0.96002 h -0.15997 V 322.72 h -0.16004 v -0.79999 h -0.15997 v -0.96002 h -0.16003 V 320 H 961.44 v -0.79999 h -0.15997 v -0.96002 H 961.12 V 317.28 h -0.15998 v -0.79999 h -0.16003 v -0.96002 h -0.15998 V 314.72 h -0.16003 v -0.95999 h -0.15997 v -0.96002 h -0.16004 V 312 H 960 v -0.95999 h -0.15997 v -0.96002 h -0.16004 V 309.28 h -0.15997 v -0.95999 h -0.16004 v -0.96002 h -0.15997 V 306.56 h -0.16003 v -0.95999 H 958.88 v -0.96 h -0.16003 V 303.84 H 958.56 v -0.96 h -0.15998 v -0.95999 h -0.16003 V 301.12 h -0.15997 v -0.96 h -0.16004 v -0.95999 h -0.15997 v -0.80002 h -0.16003 V 297.44 H 957.44 v -0.95999 h -0.15997 v -0.80002 H 957.12 V 294.72 h -0.15998 v -0.95999 h -0.16003 v -0.80002 h -0.15998 V 292 h -0.16003 v -0.95999 h -0.15997 v -0.80002 h -0.16004 V 289.28 H 956 v -0.95999 h -0.15997 v -0.80002 h -0.16004 V 286.56 h -0.15997 v -0.95999 h -0.16004 v -0.80002 h -0.15997 V 283.84 h -0.16003 v -0.96 H 954.88 v -0.80001 h -0.16003 V 281.12 H 954.56 v -0.96 h -0.15998 v -0.80001 h -0.16003 v -0.96 h -0.15997 V 277.44 h -0.16004 v -0.79999 h -0.15997 v -0.96002 h -0.16003 V 274.72 H 953.44 v -0.79999 h -0.15997 v -0.96002 H 953.12 V 272 h -0.15998 v -0.79999 h -0.16003 v -0.96002 h -0.15998 V 269.28 h -0.16003 v -0.79999 h -0.15997 v -0.96002 h -0.16004 V 266.56 H 952 v -0.79999 h -0.15997 v -0.96002 h -0.16004 V 263.84 h -0.15997 v -0.79999 h -0.16004 v -0.96002 h -0.15997 V 261.12 h -0.16003 v -0.79999 H 950.88 v -0.96002 h -0.16003 v -0.96 H 950.56 v -0.79998 h -0.15998 v -0.96 h -0.16003 v -0.96002 h -0.15997 V 254.88 h -0.16004 v -0.96 h -0.15997 v -0.95999 h -0.16003 V 252.16 H 949.44 v -0.96 h -0.15997 v -0.96 H 949.12 v -0.8 h -0.15998 v -0.96 h -0.16003 v -0.96 h -0.15998 v -0.8 h -0.16003 v -0.96001 h -0.15997 V 244.8 h -0.16004 V 244 H 948 v -0.96001 h -0.15997 V 242.08 h -0.16004 v -0.8 h -0.15997 v -0.95999 h -0.16004 V 239.36 h -0.15997 v -0.8 h -0.16003 v -0.95999 H 946.88 V 236.64 h -0.16003 v -0.8 H 946.56 v -0.96 h -0.15998 v -0.96 h -0.16003 v -0.80001 h -0.15997 V 232.16 h -0.16004 v -0.96 h -0.15997 v -0.80001 h -0.16003 V 229.44 H 945.44 v -0.96 h -0.15997 v -0.80001 H 945.12 V 226.72 h -0.15998 v -0.8 z M 48,226.56 V 589.91998 H 75.199997 V 226.56 Z m 68.64,0 v 363.35998 h 27.2 V 226.56 Z m 314.40001,0 v 363.35998 h 27.19998 V 226.56 Z m 68.79999,0 v 363.35998 h 27.19998 V 226.56 Z m 299.68002,0 v 363.35998 h 27.19995 V 226.56 Z m 68.63995,0 v 363.35998 h 27.36005 V 226.56 Z"
         clip-rule="evenodd"
         id="path4495" /></clipPath><clipPath
       clipPathUnits="userSpaceOnUse"
       id="clipPath4507"><path
         d="M 0,44 V 772 H 1056 V 44 Z"
         clip-rule="evenodd"
         id="path4505" /></clipPath></defs><sodipodi:namedview
     id="namedview4485"
     pagecolor="#505050"
     bordercolor="#eeeeee"
     borderopacity="1"
     inkscape:pageshadow="0"
     inkscape:pageopacity="0"
     inkscape:pagecheckerboard="0"
     showgrid="false"
     inkscape:zoom="0.45060726"
     inkscape:cx="248.55347"
     inkscape:cy="-76.563347"
     inkscape:window-width="1360"
     inkscape:window-height="705"
     inkscape:window-x="1358"
     inkscape:window-y="-8"
     inkscape:window-maximized="1"
     inkscape:current-layer="g4489"
     fit-margin-top="0"
     fit-margin-left="0"
     fit-margin-right="0"
     fit-margin-bottom="0" /><g
     id="g4489"
     inkscape:groupmode="layer"
     inkscape:label="2D_cabide03"
     transform="translate(-46.895515,-224.81551)"><g
       id="g4491"
       style="fill:#5e5e5e;fill-opacity:1;stroke:#5e5e5e;stroke-width:6.92352;stroke-miterlimit:4;stroke-dasharray:none;stroke-opacity:1"
       transform="matrix(0.11439268,0,0,0.11439268,41.800666,199.36792)"><g
         id="g4493"
         clip-path="url(#clipPath4497)"
         style="fill:#5e5e5e;fill-opacity:1;stroke:#5e5e5e;stroke-width:6.92352;stroke-miterlimit:4;stroke-dasharray:none;stroke-opacity:1"><path
           d="m 48,225.92 h 960 V 589.91998 H 48 Z"
           style="fill:#5e5e5e;fill-opacity:1;fill-rule:nonzero;stroke:#5e5e5e;stroke-width:6.92352;stroke-miterlimit:4;stroke-dasharray:none;stroke-opacity:1"
           id="path4499" /></g></g></g></svg>
